# MagicaVoxel @ Ephtracy

# group
o 

# material
mtllib Grass7.mtl
usemtl palette

# normals
vn -1 0 0
vn 1 0 0
vn 0 0 1
vn 0 0 -1
vn 0 -1 0
vn 0 1 0

# texcoords
vt 0.970703 0.5
vt 0.974609 0.5

# verts
v -0.3 0.3 0.3
v -0.3 0.3 0.2
v -0.3 0.3 0.1
v -0.3 0.3 -0.1
v -0.3 0.3 -0.2
v -0.3 0.4 0.3
v -0.3 0.4 0.2
v -0.3 0.4 0.1
v -0.3 0.4 -0.1
v -0.3 0.4 -0.2
v -0.2 0.4 0.2
v -0.2 0.4 0.1
v -0.2 0.4 0
v -0.2 0.4 -0.1
v -0.2 0.5 0.2
v -0.2 0.5 0.1
v -0.2 0.5 0
v -0.2 0.5 -0.1
v -0.1 0 0.1
v -0.1 0 0
v -0.1 0.3 0.1
v -0.1 0.3 0
v 0 0 0.1
v 0 0 0
v 0 0.3 0.1
v 0 0.3 0
v 0.1 0.4 0.2
v 0.1 0.4 0.1
v 0.1 0.4 0
v 0.1 0.4 -0.1
v 0.1 0.5 0.2
v 0.1 0.5 0.1
v 0.1 0.5 0
v 0.1 0.5 -0.1
v 0.2 0.3 0.3
v 0.2 0.3 0.2
v 0.2 0.3 -0.1
v 0.2 0.3 -0.2
v 0.2 0.4 0.3
v 0.2 0.4 0.2
v 0.2 0.4 -0.1
v 0.2 0.4 -0.2
v -0.3 0.3 0.3
v -0.3 0.4 0.3
v -0.1 0.3 0.3
v -0.1 0.4 0.3
v 0 0.3 0.3
v 0 0.4 0.3
v 0.1 0.3 0.3
v 0.1 0.4 0.3
v 0.2 0.3 0.3
v 0.2 0.4 0.3
v -0.2 0.4 0.2
v -0.2 0.5 0.2
v -0.1 0.4 0.2
v 0 0.4 0.2
v 0.1 0.4 0.2
v 0.1 0.5 0.2
v -0.1 0 0.1
v -0.1 0.3 0.1
v 0 0 0.1
v 0 0.3 0.1
v -0.1 0 0
v -0.1 0.3 0
v 0 0 0
v 0 0.3 0
v -0.2 0.4 -0.1
v -0.2 0.5 -0.1
v -0.1 0.4 -0.1
v 0 0.4 -0.1
v 0.1 0.4 -0.1
v 0.1 0.5 -0.1
v -0.3 0.3 -0.2
v -0.3 0.4 -0.2
v -0.2 0.3 -0.2
v -0.2 0.4 -0.2
v -0.1 0.3 -0.2
v -0.1 0.4 -0.2
v 0 0.3 -0.2
v 0 0.4 -0.2
v 0.1 0.3 -0.2
v 0.1 0.4 -0.2
v 0.2 0.3 -0.2
v 0.2 0.4 -0.2
v -0.1 0 0.1
v 0 0 0.1
v -0.1 0 0
v 0 0 0
v -0.3 0.3 0.3
v -0.1 0.3 0.3
v 0 0.3 0.3
v 0.1 0.3 0.3
v 0.2 0.3 0.3
v -0.3 0.3 0.2
v -0.2 0.3 0.2
v -0.1 0.3 0.2
v 0 0.3 0.2
v 0.1 0.3 0.2
v 0.2 0.3 0.2
v -0.3 0.3 0.1
v -0.2 0.3 0.1
v -0.1 0.3 0.1
v 0 0.3 0.1
v -0.1 0.3 0
v 0 0.3 0
v -0.3 0.3 -0.1
v -0.2 0.3 -0.1
v -0.1 0.3 -0.1
v 0 0.3 -0.1
v 0.1 0.3 -0.1
v 0.2 0.3 -0.1
v -0.3 0.3 -0.2
v -0.2 0.3 -0.2
v -0.1 0.3 -0.2
v 0 0.3 -0.2
v 0.1 0.3 -0.2
v 0.2 0.3 -0.2
v -0.3 0.4 0.3
v -0.1 0.4 0.3
v 0 0.4 0.3
v 0.1 0.4 0.3
v 0.2 0.4 0.3
v -0.3 0.4 0.2
v -0.2 0.4 0.2
v -0.1 0.4 0.2
v 0 0.4 0.2
v 0.1 0.4 0.2
v 0.2 0.4 0.2
v -0.3 0.4 0.1
v -0.2 0.4 0.1
v 0.1 0.4 0.1
v -0.2 0.4 0
v 0.1 0.4 0
v -0.3 0.4 -0.1
v -0.2 0.4 -0.1
v -0.1 0.4 -0.1
v 0 0.4 -0.1
v 0.1 0.4 -0.1
v 0.2 0.4 -0.1
v -0.3 0.4 -0.2
v -0.2 0.4 -0.2
v -0.1 0.4 -0.2
v 0 0.4 -0.2
v 0.1 0.4 -0.2
v 0.2 0.4 -0.2
v -0.2 0.5 0.2
v 0.1 0.5 0.2
v -0.2 0.5 0.1
v -0.1 0.5 0.1
v 0 0.5 0.1
v 0.1 0.5 0.1
v -0.2 0.5 0
v -0.1 0.5 0
v 0 0.5 0
v 0.1 0.5 0
v -0.2 0.5 -0.1
v 0.1 0.5 -0.1

# faces
f 6/2/1 2/2/1 1/2/1
f 7/1/1 3/1/1 2/1/1
f 7/2/1 2/2/1 6/2/1
f 8/2/1 4/2/1 3/2/1
f 8/1/1 3/1/1 7/1/1
f 9/1/1 5/1/1 4/1/1
f 9/2/1 4/2/1 8/2/1
f 10/1/1 5/1/1 9/1/1
f 15/2/1 12/2/1 11/2/1
f 16/1/1 13/1/1 12/1/1
f 16/2/1 12/2/1 15/2/1
f 17/2/1 14/2/1 13/2/1
f 17/1/1 13/1/1 16/1/1
f 18/2/1 14/2/1 17/2/1
f 21/1/1 20/1/1 19/1/1
f 22/1/1 20/1/1 21/1/1
f 23/1/2 24/1/2 25/1/2
f 25/1/2 24/1/2 26/1/2
f 27/2/2 28/2/2 31/2/2
f 28/1/2 29/1/2 32/1/2
f 31/2/2 28/2/2 32/2/2
f 29/2/2 30/2/2 33/2/2
f 32/1/2 29/1/2 33/1/2
f 33/2/2 30/2/2 34/2/2
f 35/1/2 36/1/2 39/1/2
f 36/2/2 37/2/2 40/2/2
f 39/1/2 36/1/2 40/1/2
f 37/1/2 38/1/2 41/1/2
f 40/2/2 37/2/2 41/2/2
f 41/1/2 38/1/2 42/1/2
f 45/2/3 44/2/3 43/2/3
f 46/2/3 44/2/3 45/2/3
f 47/1/3 46/1/3 45/1/3
f 48/1/3 46/1/3 47/1/3
f 49/2/3 48/2/3 47/2/3
f 50/2/3 48/2/3 49/2/3
f 51/1/3 50/1/3 49/1/3
f 52/1/3 50/1/3 51/1/3
f 55/2/3 54/2/3 53/2/3
f 56/2/3 54/2/3 55/2/3
f 57/2/3 54/2/3 56/2/3
f 58/2/3 54/2/3 57/2/3
f 61/1/3 60/1/3 59/1/3
f 62/1/3 60/1/3 61/1/3
f 63/1/4 64/1/4 65/1/4
f 65/1/4 64/1/4 66/1/4
f 67/2/4 68/2/4 69/2/4
f 69/2/4 68/2/4 70/2/4
f 70/2/4 68/2/4 71/2/4
f 71/2/4 68/2/4 72/2/4
f 73/1/4 74/1/4 75/1/4
f 75/1/4 74/1/4 76/1/4
f 75/2/4 76/2/4 77/2/4
f 77/2/4 76/2/4 78/2/4
f 77/1/4 78/1/4 79/1/4
f 79/1/4 78/1/4 80/1/4
f 79/2/4 80/2/4 81/2/4
f 81/2/4 80/2/4 82/2/4
f 81/1/4 82/1/4 83/1/4
f 83/1/4 82/1/4 84/1/4
f 87/1/5 86/1/5 85/1/5
f 88/1/5 86/1/5 87/1/5
f 94/2/5 90/2/5 89/2/5
f 95/2/5 90/2/5 94/2/5
f 96/1/5 91/1/5 90/1/5
f 96/2/5 90/2/5 95/2/5
f 97/2/5 92/2/5 91/2/5
f 97/1/5 91/1/5 96/1/5
f 98/1/5 93/1/5 92/1/5
f 98/2/5 92/2/5 97/2/5
f 99/1/5 93/1/5 98/1/5
f 100/1/5 95/1/5 94/1/5
f 101/2/5 97/2/5 96/2/5
f 101/1/5 95/1/5 100/1/5
f 101/2/5 96/2/5 95/2/5
f 101/2/5 99/2/5 98/2/5
f 101/2/5 98/2/5 97/2/5
f 102/2/5 99/2/5 101/2/5
f 103/2/5 99/2/5 102/2/5
f 104/2/5 101/2/5 100/2/5
f 104/2/5 102/2/5 101/2/5
f 105/2/5 99/2/5 103/2/5
f 106/2/5 104/2/5 100/2/5
f 106/2/5 105/2/5 104/2/5
f 107/2/5 105/2/5 106/2/5
f 108/2/5 105/2/5 107/2/5
f 109/2/5 99/2/5 105/2/5
f 109/2/5 105/2/5 108/2/5
f 110/2/5 99/2/5 109/2/5
f 111/2/5 99/2/5 110/2/5
f 112/1/5 107/1/5 106/1/5
f 113/2/5 108/2/5 107/2/5
f 113/1/5 107/1/5 112/1/5
f 114/1/5 109/1/5 108/1/5
f 114/2/5 108/2/5 113/2/5
f 115/2/5 110/2/5 109/2/5
f 115/1/5 109/1/5 114/1/5
f 116/1/5 111/1/5 110/1/5
f 116/2/5 110/2/5 115/2/5
f 117/1/5 111/1/5 116/1/5
f 118/2/6 119/2/6 123/2/6
f 123/2/6 119/2/6 124/2/6
f 119/1/6 120/1/6 125/1/6
f 124/2/6 119/2/6 125/2/6
f 120/2/6 121/2/6 126/2/6
f 125/1/6 120/1/6 126/1/6
f 121/1/6 122/1/6 127/1/6
f 126/2/6 121/2/6 127/2/6
f 127/1/6 122/1/6 128/1/6
f 123/1/6 124/1/6 129/1/6
f 129/1/6 124/1/6 130/1/6
f 127/2/6 128/2/6 131/2/6
f 129/2/6 130/2/6 132/2/6
f 131/2/6 128/2/6 133/2/6
f 129/2/6 132/2/6 134/2/6
f 134/2/6 132/2/6 135/2/6
f 133/2/6 128/2/6 138/2/6
f 138/2/6 128/2/6 139/2/6
f 134/1/6 135/1/6 140/1/6
f 135/2/6 136/2/6 141/2/6
f 140/1/6 135/1/6 141/1/6
f 136/1/6 137/1/6 142/1/6
f 141/2/6 136/2/6 142/2/6
f 137/2/6 138/2/6 143/2/6
f 142/1/6 137/1/6 143/1/6
f 138/1/6 139/1/6 144/1/6
f 143/2/6 138/2/6 144/2/6
f 144/1/6 139/1/6 145/1/6
f 146/2/6 147/2/6 148/2/6
f 148/2/6 147/2/6 149/2/6
f 149/2/6 147/2/6 150/2/6
f 150/2/6 147/2/6 151/2/6
f 148/1/6 149/1/6 152/1/6
f 149/2/6 150/2/6 153/2/6
f 152/1/6 149/1/6 153/1/6
f 150/1/6 151/1/6 154/1/6
f 153/2/6 150/2/6 154/2/6
f 154/1/6 151/1/6 155/1/6
f 152/2/6 153/2/6 156/2/6
f 153/2/6 154/2/6 156/2/6
f 154/2/6 155/2/6 156/2/6
f 156/2/6 155/2/6 157/2/6
