# MagicaVoxel @ Ephtracy

# group
o 

# material
mtllib Human4(Kid)-3.mtl
usemtl palette

# normals
vn -1 0 0
vn 1 0 0
vn 0 0 1
vn 0 0 -1
vn 0 -1 0
vn 0 1 0

# texcoords
vt 0.970703 0.5
vt 0.978516 0.5
vt 0.990234 0.5

# verts
v -0.2 0 0.2
v -0.2 0 -0.2
v -0.2 0.2 0.2
v -0.2 0.2 -0.2
v -0.2 0.3 0.2
v -0.2 0.3 -0.2
v -0.2 0.8 0.2
v -0.2 0.8 -0.2
v 0.2 0 0.2
v 0.2 0 -0.2
v 0.2 0.2 0.2
v 0.2 0.2 -0.2
v 0.2 0.3 0.2
v 0.2 0.3 -0.2
v 0.2 0.8 0.2
v 0.2 0.8 -0.2
v -0.2 0 0.2
v -0.2 0.2 0.2
v -0.2 0.3 0.2
v -0.2 0.8 0.2
v 0.2 0 0.2
v 0.2 0.2 0.2
v 0.2 0.3 0.2
v 0.2 0.8 0.2
v -0.2 0 -0.2
v -0.2 0.2 -0.2
v -0.2 0.3 -0.2
v -0.2 0.8 -0.2
v 0.2 0 -0.2
v 0.2 0.2 -0.2
v 0.2 0.3 -0.2
v 0.2 0.8 -0.2
v -0.2 0 0.2
v 0.2 0 0.2
v -0.2 0 -0.2
v 0.2 0 -0.2
v -0.2 0.8 0.2
v 0.2 0.8 0.2
v -0.2 0.8 -0.2
v 0.2 0.8 -0.2

# faces
f 3/2/1 2/2/1 1/2/1
f 4/2/1 2/2/1 3/2/1
f 5/1/1 4/1/1 3/1/1
f 6/1/1 4/1/1 5/1/1
f 7/3/1 6/3/1 5/3/1
f 8/3/1 6/3/1 7/3/1
f 9/2/2 10/2/2 11/2/2
f 11/2/2 10/2/2 12/2/2
f 11/1/2 12/1/2 13/1/2
f 13/1/2 12/1/2 14/1/2
f 13/3/2 14/3/2 15/3/2
f 15/3/2 14/3/2 16/3/2
f 21/2/3 18/2/3 17/2/3
f 22/1/3 19/1/3 18/1/3
f 22/2/3 18/2/3 21/2/3
f 23/3/3 20/3/3 19/3/3
f 23/1/3 19/1/3 22/1/3
f 24/3/3 20/3/3 23/3/3
f 25/2/4 26/2/4 29/2/4
f 26/1/4 27/1/4 30/1/4
f 29/2/4 26/2/4 30/2/4
f 27/3/4 28/3/4 31/3/4
f 30/1/4 27/1/4 31/1/4
f 31/3/4 28/3/4 32/3/4
f 35/2/5 34/2/5 33/2/5
f 36/2/5 34/2/5 35/2/5
f 37/3/6 38/3/6 39/3/6
f 39/3/6 38/3/6 40/3/6
