# MagicaVoxel @ Ephtracy

# group
o 

# material
mtllib Human4(Kid)-0.mtl
usemtl palette

# normals
vn -1 0 0
vn 1 0 0
vn 0 0 1
vn 0 0 -1
vn 0 -1 0
vn 0 1 0

# texcoords
vt 0.974609 0.5
vt 0.978516 0.5
vt 0.982422 0.5
vt 0.986328 0.5

# verts
v -0.3 0 0.6
v -0.3 0 -0.3
v -0.3 0.1 0.6
v -0.3 0.1 -0.3
v -0.3 0.4 5.96046e-008
v -0.3 0.4 -0.1
v -0.3 0.5 5.96046e-008
v -0.3 0.5 -0.1
v -0.2 0.1 0.2
v -0.2 0.1 -0.2
v -0.2 0.2 0.2
v -0.2 0.2 -0.2
v -0.1 0.2 5.96046e-008
v -0.1 0.2 -0.1
v -0.1 0.4 0.3
v -0.1 0.4 5.96046e-008
v -0.1 0.4 -0.1
v -0.1 0.5 0.3
v -0.1 0.5 5.96046e-008
v 0 0.4 -0.1
v 0 0.4 -0.3
v 0 0.5 -0.1
v 0 0.5 -0.3
v 0 0.2 5.96046e-008
v 0 0.2 -0.1
v 0 0.4 0.3
v 0 0.4 0.1
v 0 0.4 5.96046e-008
v 0 0.4 -0.1
v 0 0.5 0.3
v 0 0.5 0.1
v 0.1 0.4 5.96046e-008
v 0.1 0.4 -0.3
v 0.1 0.5 5.96046e-008
v 0.1 0.5 -0.3
v 0.2 0.1 0.2
v 0.2 0.1 -0.2
v 0.2 0.2 0.2
v 0.2 0.2 -0.2
v 0.3 0 0.6
v 0.3 0 -0.3
v 0.3 0.1 0.6
v 0.3 0.1 -0.3
v 0.3 0.4 0.1
v 0.3 0.4 5.96046e-008
v 0.3 0.5 0.1
v 0.3 0.5 5.96046e-008
v -0.3 0 0.6
v -0.3 0.1 0.6
v 0.3 0 0.6
v 0.3 0.1 0.6
v -0.1 0.4 0.3
v -0.1 0.5 0.3
v 0 0.4 0.3
v 0 0.5 0.3
v -0.2 0.1 0.2
v -0.2 0.2 0.2
v 0.2 0.1 0.2
v 0.2 0.2 0.2
v 0 0.4 0.1
v 0 0.5 0.1
v 0.3 0.4 0.1
v 0.3 0.5 0.1
v -0.3 0.4 5.96046e-008
v -0.3 0.5 5.96046e-008
v -0.1 0.2 5.96046e-008
v -0.1 0.4 5.96046e-008
v -0.1 0.5 5.96046e-008
v 0 0.2 5.96046e-008
v 0 0.4 5.96046e-008
v 0.1 0.4 5.96046e-008
v 0.1 0.5 5.96046e-008
v 0.3 0.4 5.96046e-008
v 0.3 0.5 5.96046e-008
v -0.3 0.4 -0.1
v -0.3 0.5 -0.1
v -0.1 0.2 -0.1
v -0.1 0.4 -0.1
v 0 0.2 -0.1
v 0 0.4 -0.1
v 0 0.5 -0.1
v -0.2 0.1 -0.2
v -0.2 0.2 -0.2
v 0.2 0.1 -0.2
v 0.2 0.2 -0.2
v -0.3 0 -0.3
v -0.3 0.1 -0.3
v 0 0.4 -0.3
v 0 0.5 -0.3
v 0.1 0.4 -0.3
v 0.1 0.5 -0.3
v 0.3 0 -0.3
v 0.3 0.1 -0.3
v -0.3 0 0.6
v 0.3 0 0.6
v -0.3 0 -0.3
v 0.3 0 -0.3
v -0.1 0.4 0.3
v 0 0.4 0.3
v 0 0.4 0.1
v 0.3 0.4 0.1
v -0.3 0.4 5.96046e-008
v -0.1 0.4 5.96046e-008
v 0 0.4 5.96046e-008
v 0.1 0.4 5.96046e-008
v 0.3 0.4 5.96046e-008
v -0.3 0.4 -0.1
v -0.1 0.4 -0.1
v 0 0.4 -0.1
v 0 0.4 -0.3
v 0.1 0.4 -0.3
v -0.3 0.1 0.6
v 0.3 0.1 0.6
v -0.2 0.1 0.2
v 0.2 0.1 0.2
v -0.2 0.1 -0.2
v 0.2 0.1 -0.2
v -0.3 0.1 -0.3
v 0.3 0.1 -0.3
v -0.2 0.2 0.2
v 0.2 0.2 0.2
v -0.1 0.2 5.96046e-008
v 0 0.2 5.96046e-008
v -0.1 0.2 -0.1
v 0 0.2 -0.1
v -0.2 0.2 -0.2
v 0.2 0.2 -0.2
v -0.1 0.5 0.3
v 0 0.5 0.3
v 0 0.5 0.1
v 0.3 0.5 0.1
v -0.3 0.5 5.96046e-008
v -0.1 0.5 5.96046e-008
v 0 0.5 5.96046e-008
v 0.1 0.5 5.96046e-008
v 0.3 0.5 5.96046e-008
v -0.3 0.5 -0.1
v 0 0.5 -0.1
v 0 0.5 -0.3
v 0.1 0.5 -0.3

# faces
f 3/2/1 2/2/1 1/2/1
f 4/2/1 2/2/1 3/2/1
f 7/4/1 6/4/1 5/4/1
f 8/4/1 6/4/1 7/4/1
f 11/2/1 10/2/1 9/2/1
f 12/2/1 10/2/1 11/2/1
f 16/1/1 14/1/1 13/1/1
f 17/1/1 14/1/1 16/1/1
f 18/2/1 16/2/1 15/2/1
f 19/2/1 16/2/1 18/2/1
f 22/3/1 21/3/1 20/3/1
f 23/3/1 21/3/1 22/3/1
f 24/1/2 25/1/2 28/1/2
f 28/1/2 25/1/2 29/1/2
f 26/2/2 27/2/2 30/2/2
f 30/2/2 27/2/2 31/2/2
f 32/3/2 33/3/2 34/3/2
f 34/3/2 33/3/2 35/3/2
f 36/2/2 37/2/2 38/2/2
f 38/2/2 37/2/2 39/2/2
f 40/2/2 41/2/2 42/2/2
f 42/2/2 41/2/2 43/2/2
f 44/4/2 45/4/2 46/4/2
f 46/4/2 45/4/2 47/4/2
f 50/2/3 49/2/3 48/2/3
f 51/2/3 49/2/3 50/2/3
f 54/2/3 53/2/3 52/2/3
f 55/2/3 53/2/3 54/2/3
f 58/2/3 57/2/3 56/2/3
f 59/2/3 57/2/3 58/2/3
f 62/4/3 61/4/3 60/4/3
f 63/4/3 61/4/3 62/4/3
f 67/4/3 65/4/3 64/4/3
f 68/4/3 65/4/3 67/4/3
f 69/1/3 67/1/3 66/1/3
f 70/1/3 67/1/3 69/1/3
f 71/4/4 72/4/4 73/4/4
f 73/4/4 72/4/4 74/4/4
f 75/4/4 76/4/4 78/4/4
f 77/1/4 78/1/4 79/1/4
f 78/4/4 76/4/4 80/4/4
f 79/1/4 78/1/4 80/1/4
f 80/4/4 76/4/4 81/4/4
f 82/2/4 83/2/4 84/2/4
f 84/2/4 83/2/4 85/2/4
f 88/3/4 89/3/4 90/3/4
f 90/3/4 89/3/4 91/3/4
f 86/2/4 87/2/4 92/2/4
f 92/2/4 87/2/4 93/2/4
f 96/2/5 95/2/5 94/2/5
f 97/2/5 95/2/5 96/2/5
f 100/2/5 99/2/5 98/2/5
f 103/2/5 100/2/5 98/2/5
f 104/4/5 101/4/5 100/4/5
f 104/2/5 100/2/5 103/2/5
f 105/4/5 101/4/5 104/4/5
f 106/4/5 101/4/5 105/4/5
f 107/4/5 103/4/5 102/4/5
f 108/4/5 103/4/5 107/4/5
f 109/3/5 105/3/5 104/3/5
f 110/3/5 105/3/5 109/3/5
f 111/3/5 105/3/5 110/3/5
f 112/2/6 113/2/6 114/2/6
f 114/2/6 113/2/6 115/2/6
f 112/2/6 114/2/6 116/2/6
f 115/2/6 113/2/6 117/2/6
f 112/2/6 116/2/6 118/2/6
f 116/2/6 117/2/6 118/2/6
f 117/2/6 113/2/6 119/2/6
f 118/2/6 117/2/6 119/2/6
f 120/2/6 121/2/6 122/2/6
f 122/2/6 121/2/6 123/2/6
f 120/2/6 122/2/6 124/2/6
f 123/2/6 121/2/6 125/2/6
f 120/2/6 124/2/6 126/2/6
f 124/2/6 125/2/6 126/2/6
f 125/2/6 121/2/6 127/2/6
f 126/2/6 125/2/6 127/2/6
f 128/2/6 129/2/6 130/2/6
f 128/2/6 130/2/6 133/2/6
f 130/4/6 131/4/6 134/4/6
f 133/2/6 130/2/6 134/2/6
f 134/4/6 131/4/6 135/4/6
f 135/4/6 131/4/6 136/4/6
f 132/4/6 133/4/6 137/4/6
f 133/4/6 134/4/6 137/4/6
f 134/3/6 135/3/6 138/3/6
f 137/4/6 134/4/6 138/4/6
f 138/3/6 135/3/6 139/3/6
f 139/3/6 135/3/6 140/3/6
