# MagicaVoxel @ Ephtracy

# group
o 

# material
mtllib Building1.mtl
usemtl palette

# normals
vn -1 0 0
vn 1 0 0
vn 0 0 1
vn 0 0 -1
vn 0 -1 0
vn 0 1 0

# texcoords
vt 0.970703 0.5
vt 0.974609 0.5
vt 0.978516 0.5

# verts
v -2 0 1
v -2 0 -1
v -2 0.3 0.8
v -2 0.3 0.2
v -2 0.3 -0.2
v -2 0.3 -0.8
v -2 0.7 0.8
v -2 0.7 0.2
v -2 0.7 -0.2
v -2 0.7 -0.8
v -2 1.3 0.8
v -2 1.3 0.2
v -2 1.3 -0.2
v -2 1.3 -0.8
v -2 1.7 0.8
v -2 1.7 0.2
v -2 1.7 -0.2
v -2 1.7 -0.8
v -2 2.3 0.8
v -2 2.3 0.2
v -2 2.3 -0.2
v -2 2.3 -0.8
v -2 2.7 0.8
v -2 2.7 0.2
v -2 2.7 -0.2
v -2 2.7 -0.8
v -2 3.3 0.8
v -2 3.3 0.2
v -2 3.3 -0.2
v -2 3.3 -0.8
v -2 3.7 0.8
v -2 3.7 0.2
v -2 3.7 -0.2
v -2 3.7 -0.8
v -2 4 1
v -2 4 -1
v 2 0 1
v 2 0 -1
v 2 0.3 0.8
v 2 0.3 0.2
v 2 0.3 -0.2
v 2 0.3 -0.8
v 2 0.7 0.8
v 2 0.7 0.2
v 2 0.7 -0.2
v 2 0.7 -0.8
v 2 1.3 0.8
v 2 1.3 0.2
v 2 1.3 -0.2
v 2 1.3 -0.8
v 2 1.7 0.8
v 2 1.7 0.2
v 2 1.7 -0.2
v 2 1.7 -0.8
v 2 2.3 0.8
v 2 2.3 0.2
v 2 2.3 -0.2
v 2 2.3 -0.8
v 2 2.7 0.8
v 2 2.7 0.2
v 2 2.7 -0.2
v 2 2.7 -0.8
v 2 3.3 0.8
v 2 3.3 0.2
v 2 3.3 -0.2
v 2 3.3 -0.8
v 2 3.7 0.8
v 2 3.7 0.2
v 2 3.7 -0.2
v 2 3.7 -0.8
v 2 4 1
v 2 4 -1
v -2 0 1
v -2 4 1
v -1.9 0.3 1
v -1.9 0.7 1
v -1.9 1.3 1
v -1.9 1.7 1
v -1.9 2.3 1
v -1.9 2.7 1
v -1.9 3.3 1
v -1.9 3.7 1
v -1.6 0.3 1
v -1.6 0.7 1
v -1.6 1.3 1
v -1.6 1.7 1
v -1.6 2.3 1
v -1.6 2.7 1
v -1.6 3.3 1
v -1.6 3.7 1
v -1.4 0.3 1
v -1.4 0.7 1
v -1.4 1.3 1
v -1.4 1.7 1
v -1.4 2.3 1
v -1.4 2.7 1
v -1.4 3.3 1
v -1.4 3.7 1
v -1.1 0.3 1
v -1.1 0.7 1
v -1.1 1.3 1
v -1.1 1.7 1
v -1.1 2.3 1
v -1.1 2.7 1
v -1.1 3.3 1
v -1.1 3.7 1
v -0.9 0.3 1
v -0.9 0.7 1
v -0.9 1.3 1
v -0.9 1.7 1
v -0.9 2.3 1
v -0.9 2.7 1
v -0.9 3.3 1
v -0.9 3.7 1
v -0.6 0.3 1
v -0.6 0.7 1
v -0.6 1.3 1
v -0.6 1.7 1
v -0.6 2.3 1
v -0.6 2.7 1
v -0.6 3.3 1
v -0.6 3.7 1
v -0.4 0.3 1
v -0.4 0.7 1
v -0.4 1.3 1
v -0.4 1.7 1
v -0.4 2.3 1
v -0.4 2.7 1
v -0.4 3.3 1
v -0.4 3.7 1
v -0.0999999 0.3 1
v -0.0999999 0.7 1
v -0.0999999 1.3 1
v -0.0999999 1.7 1
v -0.0999999 2.3 1
v -0.0999999 2.7 1
v -0.0999999 3.3 1
v -0.0999999 3.7 1
v 0.1 0.3 1
v 0.1 0.7 1
v 0.1 1.3 1
v 0.1 1.7 1
v 0.1 2.3 1
v 0.1 2.7 1
v 0.1 3.3 1
v 0.1 3.7 1
v 0.4 0.3 1
v 0.4 0.7 1
v 0.4 1.3 1
v 0.4 1.7 1
v 0.4 2.3 1
v 0.4 2.7 1
v 0.4 3.3 1
v 0.4 3.7 1
v 0.6 0.3 1
v 0.6 0.7 1
v 0.6 1.3 1
v 0.6 1.7 1
v 0.6 2.3 1
v 0.6 2.7 1
v 0.6 3.3 1
v 0.6 3.7 1
v 0.9 0.3 1
v 0.9 0.7 1
v 0.9 1.3 1
v 0.9 1.7 1
v 0.9 2.3 1
v 0.9 2.7 1
v 0.9 3.3 1
v 0.9 3.7 1
v 1.1 0.3 1
v 1.1 0.7 1
v 1.1 1.3 1
v 1.1 1.7 1
v 1.1 2.3 1
v 1.1 2.7 1
v 1.1 3.3 1
v 1.1 3.7 1
v 1.4 0.3 1
v 1.4 0.7 1
v 1.4 1.3 1
v 1.4 1.7 1
v 1.4 2.3 1
v 1.4 2.7 1
v 1.4 3.3 1
v 1.4 3.7 1
v 1.6 0.3 1
v 1.6 0.7 1
v 1.6 1.3 1
v 1.6 1.7 1
v 1.6 2.3 1
v 1.6 2.7 1
v 1.6 3.3 1
v 1.6 3.7 1
v 1.9 0.3 1
v 1.9 0.7 1
v 1.9 1.3 1
v 1.9 1.7 1
v 1.9 2.3 1
v 1.9 2.7 1
v 1.9 3.3 1
v 1.9 3.7 1
v 2 0 1
v 2 4 1
v -2 0 -1
v -2 4 -1
v -1.9 0.3 -1
v -1.9 0.7 -1
v -1.9 1.3 -1
v -1.9 1.7 -1
v -1.9 2.3 -1
v -1.9 2.7 -1
v -1.9 3.3 -1
v -1.9 3.7 -1
v -1.6 0.3 -1
v -1.6 0.7 -1
v -1.6 1.3 -1
v -1.6 1.7 -1
v -1.6 2.3 -1
v -1.6 2.7 -1
v -1.6 3.3 -1
v -1.6 3.7 -1
v -1.4 0.3 -1
v -1.4 0.7 -1
v -1.4 1.3 -1
v -1.4 1.7 -1
v -1.4 2.3 -1
v -1.4 2.7 -1
v -1.4 3.3 -1
v -1.4 3.7 -1
v -1.1 0.3 -1
v -1.1 0.7 -1
v -1.1 1.3 -1
v -1.1 1.7 -1
v -1.1 2.3 -1
v -1.1 2.7 -1
v -1.1 3.3 -1
v -1.1 3.7 -1
v -0.9 0.3 -1
v -0.9 0.7 -1
v -0.9 1.3 -1
v -0.9 1.7 -1
v -0.9 2.3 -1
v -0.9 2.7 -1
v -0.9 3.3 -1
v -0.9 3.7 -1
v -0.6 0.3 -1
v -0.6 0.7 -1
v -0.6 1.3 -1
v -0.6 1.7 -1
v -0.6 2.3 -1
v -0.6 2.7 -1
v -0.6 3.3 -1
v -0.6 3.7 -1
v -0.4 0.3 -1
v -0.4 0.7 -1
v -0.4 1.3 -1
v -0.4 1.7 -1
v -0.4 2.3 -1
v -0.4 2.7 -1
v -0.4 3.3 -1
v -0.4 3.7 -1
v -0.0999999 0.3 -1
v -0.0999999 0.7 -1
v -0.0999999 1.3 -1
v -0.0999999 1.7 -1
v -0.0999999 2.3 -1
v -0.0999999 2.7 -1
v -0.0999999 3.3 -1
v -0.0999999 3.7 -1
v 0.1 0.3 -1
v 0.1 0.7 -1
v 0.1 1.3 -1
v 0.1 1.7 -1
v 0.1 2.3 -1
v 0.1 2.7 -1
v 0.1 3.3 -1
v 0.1 3.7 -1
v 0.4 0.3 -1
v 0.4 0.7 -1
v 0.4 1.3 -1
v 0.4 1.7 -1
v 0.4 2.3 -1
v 0.4 2.7 -1
v 0.4 3.3 -1
v 0.4 3.7 -1
v 0.6 0.3 -1
v 0.6 0.7 -1
v 0.6 1.3 -1
v 0.6 1.7 -1
v 0.6 2.3 -1
v 0.6 2.7 -1
v 0.6 3.3 -1
v 0.6 3.7 -1
v 0.9 0.3 -1
v 0.9 0.7 -1
v 0.9 1.3 -1
v 0.9 1.7 -1
v 0.9 2.3 -1
v 0.9 2.7 -1
v 0.9 3.3 -1
v 0.9 3.7 -1
v 1.1 0.3 -1
v 1.1 0.7 -1
v 1.1 1.3 -1
v 1.1 1.7 -1
v 1.1 2.3 -1
v 1.1 2.7 -1
v 1.1 3.3 -1
v 1.1 3.7 -1
v 1.4 0.3 -1
v 1.4 0.7 -1
v 1.4 1.3 -1
v 1.4 1.7 -1
v 1.4 2.3 -1
v 1.4 2.7 -1
v 1.4 3.3 -1
v 1.4 3.7 -1
v 1.6 0.3 -1
v 1.6 0.7 -1
v 1.6 1.3 -1
v 1.6 1.7 -1
v 1.6 2.3 -1
v 1.6 2.7 -1
v 1.6 3.3 -1
v 1.6 3.7 -1
v 1.9 0.3 -1
v 1.9 0.7 -1
v 1.9 1.3 -1
v 1.9 1.7 -1
v 1.9 2.3 -1
v 1.9 2.7 -1
v 1.9 3.3 -1
v 1.9 3.7 -1
v 2 0 -1
v 2 4 -1
v -2 0 1
v 2 0 1
v -2 0 -1
v 2 0 -1
v -2 4 1
v 2 4 1
v -2 4 -1
v 2 4 -1

# faces
f 3/1/1 2/1/1 1/1/1
f 4/1/1 2/1/1 3/1/1
f 5/1/1 2/1/1 4/1/1
f 6/1/1 2/1/1 5/1/1
f 7/1/1 3/1/1 1/1/1
f 7/3/1 4/3/1 3/3/1
f 8/1/1 5/1/1 4/1/1
f 8/3/1 4/3/1 7/3/1
f 9/3/1 6/3/1 5/3/1
f 9/1/1 5/1/1 8/1/1
f 10/1/1 2/1/1 6/1/1
f 10/3/1 6/3/1 9/3/1
f 11/1/1 9/1/1 8/1/1
f 11/1/1 8/1/1 7/1/1
f 11/1/1 10/1/1 9/1/1
f 11/1/1 7/1/1 1/1/1
f 12/1/1 10/1/1 11/1/1
f 13/1/1 10/1/1 12/1/1
f 14/1/1 2/1/1 10/1/1
f 14/1/1 10/1/1 13/1/1
f 15/1/1 11/1/1 1/1/1
f 15/2/1 12/2/1 11/2/1
f 16/1/1 13/1/1 12/1/1
f 16/2/1 12/2/1 15/2/1
f 17/2/1 14/2/1 13/2/1
f 17/1/1 13/1/1 16/1/1
f 18/1/1 2/1/1 14/1/1
f 18/2/1 14/2/1 17/2/1
f 19/1/1 15/1/1 1/1/1
f 19/1/1 17/1/1 16/1/1
f 19/1/1 18/1/1 17/1/1
f 19/1/1 16/1/1 15/1/1
f 20/1/1 18/1/1 19/1/1
f 21/1/1 18/1/1 20/1/1
f 22/1/1 2/1/1 18/1/1
f 22/1/1 18/1/1 21/1/1
f 23/1/1 19/1/1 1/1/1
f 23/2/1 20/2/1 19/2/1
f 24/1/1 21/1/1 20/1/1
f 24/2/1 20/2/1 23/2/1
f 25/3/1 22/3/1 21/3/1
f 25/1/1 21/1/1 24/1/1
f 26/1/1 2/1/1 22/1/1
f 26/3/1 22/3/1 25/3/1
f 27/1/1 23/1/1 1/1/1
f 27/1/1 25/1/1 24/1/1
f 27/1/1 26/1/1 25/1/1
f 27/1/1 24/1/1 23/1/1
f 28/1/1 26/1/1 27/1/1
f 29/1/1 26/1/1 28/1/1
f 30/1/1 2/1/1 26/1/1
f 30/1/1 26/1/1 29/1/1
f 31/1/1 27/1/1 1/1/1
f 31/3/1 28/3/1 27/3/1
f 32/1/1 29/1/1 28/1/1
f 32/3/1 28/3/1 31/3/1
f 33/2/1 30/2/1 29/2/1
f 33/1/1 29/1/1 32/1/1
f 34/1/1 2/1/1 30/1/1
f 34/2/1 30/2/1 33/2/1
f 35/1/1 31/1/1 1/1/1
f 35/1/1 33/1/1 32/1/1
f 35/1/1 34/1/1 33/1/1
f 35/1/1 32/1/1 31/1/1
f 36/1/1 2/1/1 34/1/1
f 36/1/1 34/1/1 35/1/1
f 37/1/2 38/1/2 39/1/2
f 39/1/2 38/1/2 40/1/2
f 40/1/2 38/1/2 41/1/2
f 41/1/2 38/1/2 42/1/2
f 37/1/2 39/1/2 43/1/2
f 39/2/2 40/2/2 43/2/2
f 40/1/2 41/1/2 44/1/2
f 43/2/2 40/2/2 44/2/2
f 41/3/2 42/3/2 45/3/2
f 44/1/2 41/1/2 45/1/2
f 42/1/2 38/1/2 46/1/2
f 45/3/2 42/3/2 46/3/2
f 44/1/2 45/1/2 47/1/2
f 43/1/2 44/1/2 47/1/2
f 45/1/2 46/1/2 47/1/2
f 37/1/2 43/1/2 47/1/2
f 47/1/2 46/1/2 48/1/2
f 48/1/2 46/1/2 49/1/2
f 46/1/2 38/1/2 50/1/2
f 49/1/2 46/1/2 50/1/2
f 37/1/2 47/1/2 51/1/2
f 47/3/2 48/3/2 51/3/2
f 48/1/2 49/1/2 52/1/2
f 51/3/2 48/3/2 52/3/2
f 49/2/2 50/2/2 53/2/2
f 52/1/2 49/1/2 53/1/2
f 50/1/2 38/1/2 54/1/2
f 53/2/2 50/2/2 54/2/2
f 37/1/2 51/1/2 55/1/2
f 52/1/2 53/1/2 55/1/2
f 53/1/2 54/1/2 55/1/2
f 51/1/2 52/1/2 55/1/2
f 55/1/2 54/1/2 56/1/2
f 56/1/2 54/1/2 57/1/2
f 54/1/2 38/1/2 58/1/2
f 57/1/2 54/1/2 58/1/2
f 37/1/2 55/1/2 59/1/2
f 55/2/2 56/2/2 59/2/2
f 56/1/2 57/1/2 60/1/2
f 59/2/2 56/2/2 60/2/2
f 57/3/2 58/3/2 61/3/2
f 60/1/2 57/1/2 61/1/2
f 58/1/2 38/1/2 62/1/2
f 61/3/2 58/3/2 62/3/2
f 37/1/2 59/1/2 63/1/2
f 60/1/2 61/1/2 63/1/2
f 61/1/2 62/1/2 63/1/2
f 59/1/2 60/1/2 63/1/2
f 63/1/2 62/1/2 64/1/2
f 64/1/2 62/1/2 65/1/2
f 62/1/2 38/1/2 66/1/2
f 65/1/2 62/1/2 66/1/2
f 37/1/2 63/1/2 67/1/2
f 63/3/2 64/3/2 67/3/2
f 64/1/2 65/1/2 68/1/2
f 67/3/2 64/3/2 68/3/2
f 65/2/2 66/2/2 69/2/2
f 68/1/2 65/1/2 69/1/2
f 66/1/2 38/1/2 70/1/2
f 69/2/2 66/2/2 70/2/2
f 37/1/2 67/1/2 71/1/2
f 68/1/2 69/1/2 71/1/2
f 69/1/2 70/1/2 71/1/2
f 67/1/2 68/1/2 71/1/2
f 70/1/2 38/1/2 72/1/2
f 71/1/2 70/1/2 72/1/2
f 75/1/3 74/1/3 73/1/3
f 76/1/3 74/1/3 75/1/3
f 77/1/3 74/1/3 76/1/3
f 78/1/3 74/1/3 77/1/3
f 79/1/3 74/1/3 78/1/3
f 80/1/3 74/1/3 79/1/3
f 81/1/3 74/1/3 80/1/3
f 82/1/3 74/1/3 81/1/3
f 83/1/3 75/1/3 73/1/3
f 83/3/3 76/3/3 75/3/3
f 84/1/3 77/1/3 76/1/3
f 84/3/3 76/3/3 83/3/3
f 85/2/3 78/2/3 77/2/3
f 85/1/3 77/1/3 84/1/3
f 86/1/3 79/1/3 78/1/3
f 86/2/3 78/2/3 85/2/3
f 87/2/3 80/2/3 79/2/3
f 87/1/3 79/1/3 86/1/3
f 88/1/3 81/1/3 80/1/3
f 88/2/3 80/2/3 87/2/3
f 89/3/3 82/3/3 81/3/3
f 89/1/3 81/1/3 88/1/3
f 90/1/3 74/1/3 82/1/3
f 90/3/3 82/3/3 89/3/3
f 91/1/3 89/1/3 88/1/3
f 91/1/3 88/1/3 87/1/3
f 91/1/3 90/1/3 89/1/3
f 91/1/3 87/1/3 86/1/3
f 91/1/3 86/1/3 85/1/3
f 91/1/3 85/1/3 84/1/3
f 91/1/3 84/1/3 83/1/3
f 91/1/3 83/1/3 73/1/3
f 92/1/3 90/1/3 91/1/3
f 93/1/3 90/1/3 92/1/3
f 94/1/3 90/1/3 93/1/3
f 95/1/3 90/1/3 94/1/3
f 96/1/3 90/1/3 95/1/3
f 97/1/3 90/1/3 96/1/3
f 98/1/3 74/1/3 90/1/3
f 98/1/3 90/1/3 97/1/3
f 99/1/3 91/1/3 73/1/3
f 99/2/3 92/2/3 91/2/3
f 100/1/3 93/1/3 92/1/3
f 100/2/3 92/2/3 99/2/3
f 101/2/3 94/2/3 93/2/3
f 101/1/3 93/1/3 100/1/3
f 102/1/3 95/1/3 94/1/3
f 102/2/3 94/2/3 101/2/3
f 103/3/3 96/3/3 95/3/3
f 103/1/3 95/1/3 102/1/3
f 104/1/3 97/1/3 96/1/3
f 104/3/3 96/3/3 103/3/3
f 105/2/3 98/2/3 97/2/3
f 105/1/3 97/1/3 104/1/3
f 106/1/3 74/1/3 98/1/3
f 106/2/3 98/2/3 105/2/3
f 107/1/3 103/1/3 102/1/3
f 107/1/3 105/1/3 104/1/3
f 107/1/3 106/1/3 105/1/3
f 107/1/3 102/1/3 101/1/3
f 107/1/3 101/1/3 100/1/3
f 107/1/3 100/1/3 99/1/3
f 107/1/3 99/1/3 73/1/3
f 107/1/3 104/1/3 103/1/3
f 108/1/3 106/1/3 107/1/3
f 109/1/3 106/1/3 108/1/3
f 110/1/3 106/1/3 109/1/3
f 111/1/3 106/1/3 110/1/3
f 112/1/3 106/1/3 111/1/3
f 113/1/3 106/1/3 112/1/3
f 114/1/3 74/1/3 106/1/3
f 114/1/3 106/1/3 113/1/3
f 115/1/3 107/1/3 73/1/3
f 115/2/3 108/2/3 107/2/3
f 116/1/3 109/1/3 108/1/3
f 116/2/3 108/2/3 115/2/3
f 117/3/3 110/3/3 109/3/3
f 117/1/3 109/1/3 116/1/3
f 118/1/3 111/1/3 110/1/3
f 118/3/3 110/3/3 117/3/3
f 119/2/3 112/2/3 111/2/3
f 119/1/3 111/1/3 118/1/3
f 120/1/3 113/1/3 112/1/3
f 120/2/3 112/2/3 119/2/3
f 121/3/3 114/3/3 113/3/3
f 121/1/3 113/1/3 120/1/3
f 122/1/3 74/1/3 114/1/3
f 122/3/3 114/3/3 121/3/3
f 123/1/3 119/1/3 118/1/3
f 123/1/3 121/1/3 120/1/3
f 123/1/3 122/1/3 121/1/3
f 123/1/3 118/1/3 117/1/3
f 123/1/3 117/1/3 116/1/3
f 123/1/3 116/1/3 115/1/3
f 123/1/3 115/1/3 73/1/3
f 123/1/3 120/1/3 119/1/3
f 124/1/3 122/1/3 123/1/3
f 125/1/3 122/1/3 124/1/3
f 126/1/3 122/1/3 125/1/3
f 127/1/3 122/1/3 126/1/3
f 128/1/3 122/1/3 127/1/3
f 129/1/3 122/1/3 128/1/3
f 130/1/3 74/1/3 122/1/3
f 130/1/3 122/1/3 129/1/3
f 131/1/3 123/1/3 73/1/3
f 131/3/3 124/3/3 123/3/3
f 132/1/3 125/1/3 124/1/3
f 132/3/3 124/3/3 131/3/3
f 133/2/3 126/2/3 125/2/3
f 133/1/3 125/1/3 132/1/3
f 134/1/3 127/1/3 126/1/3
f 134/2/3 126/2/3 133/2/3
f 135/2/3 128/2/3 127/2/3
f 135/1/3 127/1/3 134/1/3
f 136/1/3 129/1/3 128/1/3
f 136/2/3 128/2/3 135/2/3
f 137/2/3 130/2/3 129/2/3
f 137/1/3 129/1/3 136/1/3
f 138/1/3 74/1/3 130/1/3
f 138/2/3 130/2/3 137/2/3
f 139/1/3 135/1/3 134/1/3
f 139/1/3 137/1/3 136/1/3
f 139/1/3 138/1/3 137/1/3
f 139/1/3 134/1/3 133/1/3
f 139/1/3 133/1/3 132/1/3
f 139/1/3 132/1/3 131/1/3
f 139/1/3 131/1/3 73/1/3
f 139/1/3 136/1/3 135/1/3
f 140/1/3 138/1/3 139/1/3
f 141/1/3 138/1/3 140/1/3
f 142/1/3 138/1/3 141/1/3
f 143/1/3 138/1/3 142/1/3
f 144/1/3 138/1/3 143/1/3
f 145/1/3 138/1/3 144/1/3
f 146/1/3 74/1/3 138/1/3
f 146/1/3 138/1/3 145/1/3
f 147/1/3 139/1/3 73/1/3
f 147/3/3 140/3/3 139/3/3
f 148/1/3 141/1/3 140/1/3
f 148/3/3 140/3/3 147/3/3
f 149/2/3 142/2/3 141/2/3
f 149/1/3 141/1/3 148/1/3
f 150/1/3 143/1/3 142/1/3
f 150/2/3 142/2/3 149/2/3
f 151/3/3 144/3/3 143/3/3
f 151/1/3 143/1/3 150/1/3
f 152/1/3 145/1/3 144/1/3
f 152/3/3 144/3/3 151/3/3
f 153/3/3 146/3/3 145/3/3
f 153/1/3 145/1/3 152/1/3
f 154/1/3 74/1/3 146/1/3
f 154/3/3 146/3/3 153/3/3
f 155/1/3 151/1/3 150/1/3
f 155/1/3 153/1/3 152/1/3
f 155/1/3 154/1/3 153/1/3
f 155/1/3 150/1/3 149/1/3
f 155/1/3 149/1/3 148/1/3
f 155/1/3 148/1/3 147/1/3
f 155/1/3 147/1/3 73/1/3
f 155/1/3 152/1/3 151/1/3
f 156/1/3 154/1/3 155/1/3
f 157/1/3 154/1/3 156/1/3
f 158/1/3 154/1/3 157/1/3
f 159/1/3 154/1/3 158/1/3
f 160/1/3 154/1/3 159/1/3
f 161/1/3 154/1/3 160/1/3
f 162/1/3 74/1/3 154/1/3
f 162/1/3 154/1/3 161/1/3
f 163/1/3 155/1/3 73/1/3
f 163/2/3 156/2/3 155/2/3
f 164/1/3 157/1/3 156/1/3
f 164/2/3 156/2/3 163/2/3
f 165/3/3 158/3/3 157/3/3
f 165/1/3 157/1/3 164/1/3
f 166/1/3 159/1/3 158/1/3
f 166/3/3 158/3/3 165/3/3
f 167/2/3 160/2/3 159/2/3
f 167/1/3 159/1/3 166/1/3
f 168/1/3 161/1/3 160/1/3
f 168/2/3 160/2/3 167/2/3
f 169/2/3 162/2/3 161/2/3
f 169/1/3 161/1/3 168/1/3
f 170/1/3 74/1/3 162/1/3
f 170/2/3 162/2/3 169/2/3
f 171/1/3 167/1/3 166/1/3
f 171/1/3 169/1/3 168/1/3
f 171/1/3 170/1/3 169/1/3
f 171/1/3 166/1/3 165/1/3
f 171/1/3 165/1/3 164/1/3
f 171/1/3 164/1/3 163/1/3
f 171/1/3 163/1/3 73/1/3
f 171/1/3 168/1/3 167/1/3
f 172/1/3 170/1/3 171/1/3
f 173/1/3 170/1/3 172/1/3
f 174/1/3 170/1/3 173/1/3
f 175/1/3 170/1/3 174/1/3
f 176/1/3 170/1/3 175/1/3
f 177/1/3 170/1/3 176/1/3
f 178/1/3 74/1/3 170/1/3
f 178/1/3 170/1/3 177/1/3
f 179/1/3 171/1/3 73/1/3
f 179/3/3 172/3/3 171/3/3
f 180/1/3 173/1/3 172/1/3
f 180/3/3 172/3/3 179/3/3
f 181/2/3 174/2/3 173/2/3
f 181/1/3 173/1/3 180/1/3
f 182/1/3 175/1/3 174/1/3
f 182/2/3 174/2/3 181/2/3
f 183/3/3 176/3/3 175/3/3
f 183/1/3 175/1/3 182/1/3
f 184/1/3 177/1/3 176/1/3
f 184/3/3 176/3/3 183/3/3
f 185/3/3 178/3/3 177/3/3
f 185/1/3 177/1/3 184/1/3
f 186/1/3 74/1/3 178/1/3
f 186/3/3 178/3/3 185/3/3
f 187/1/3 183/1/3 182/1/3
f 187/1/3 185/1/3 184/1/3
f 187/1/3 186/1/3 185/1/3
f 187/1/3 182/1/3 181/1/3
f 187/1/3 181/1/3 180/1/3
f 187/1/3 180/1/3 179/1/3
f 187/1/3 179/1/3 73/1/3
f 187/1/3 184/1/3 183/1/3
f 188/1/3 186/1/3 187/1/3
f 189/1/3 186/1/3 188/1/3
f 190/1/3 186/1/3 189/1/3
f 191/1/3 186/1/3 190/1/3
f 192/1/3 186/1/3 191/1/3
f 193/1/3 186/1/3 192/1/3
f 194/1/3 74/1/3 186/1/3
f 194/1/3 186/1/3 193/1/3
f 195/1/3 187/1/3 73/1/3
f 195/2/3 188/2/3 187/2/3
f 196/1/3 189/1/3 188/1/3
f 196/2/3 188/2/3 195/2/3
f 197/3/3 190/3/3 189/3/3
f 197/1/3 189/1/3 196/1/3
f 198/1/3 191/1/3 190/1/3
f 198/3/3 190/3/3 197/3/3
f 199/2/3 192/2/3 191/2/3
f 199/1/3 191/1/3 198/1/3
f 200/1/3 193/1/3 192/1/3
f 200/2/3 192/2/3 199/2/3
f 201/3/3 194/3/3 193/3/3
f 201/1/3 193/1/3 200/1/3
f 202/1/3 74/1/3 194/1/3
f 202/3/3 194/3/3 201/3/3
f 203/1/3 199/1/3 198/1/3
f 203/1/3 201/1/3 200/1/3
f 203/1/3 202/1/3 201/1/3
f 203/1/3 198/1/3 197/1/3
f 203/1/3 197/1/3 196/1/3
f 203/1/3 196/1/3 195/1/3
f 203/1/3 195/1/3 73/1/3
f 203/1/3 200/1/3 199/1/3
f 204/1/3 74/1/3 202/1/3
f 204/1/3 202/1/3 203/1/3
f 205/1/4 206/1/4 207/1/4
f 207/1/4 206/1/4 208/1/4
f 208/1/4 206/1/4 209/1/4
f 209/1/4 206/1/4 210/1/4
f 210/1/4 206/1/4 211/1/4
f 211/1/4 206/1/4 212/1/4
f 212/1/4 206/1/4 213/1/4
f 213/1/4 206/1/4 214/1/4
f 205/1/4 207/1/4 215/1/4
f 207/3/4 208/3/4 215/3/4
f 208/1/4 209/1/4 216/1/4
f 215/3/4 208/3/4 216/3/4
f 209/2/4 210/2/4 217/2/4
f 216/1/4 209/1/4 217/1/4
f 210/1/4 211/1/4 218/1/4
f 217/2/4 210/2/4 218/2/4
f 211/3/4 212/3/4 219/3/4
f 218/1/4 211/1/4 219/1/4
f 212/1/4 213/1/4 220/1/4
f 219/3/4 212/3/4 220/3/4
f 213/2/4 214/2/4 221/2/4
f 220/1/4 213/1/4 221/1/4
f 214/1/4 206/1/4 222/1/4
f 221/2/4 214/2/4 222/2/4
f 220/1/4 221/1/4 223/1/4
f 219/1/4 220/1/4 223/1/4
f 221/1/4 222/1/4 223/1/4
f 218/1/4 219/1/4 223/1/4
f 217/1/4 218/1/4 223/1/4
f 216/1/4 217/1/4 223/1/4
f 215/1/4 216/1/4 223/1/4
f 205/1/4 215/1/4 223/1/4
f 223/1/4 222/1/4 224/1/4
f 224/1/4 222/1/4 225/1/4
f 225/1/4 222/1/4 226/1/4
f 226/1/4 222/1/4 227/1/4
f 227/1/4 222/1/4 228/1/4
f 228/1/4 222/1/4 229/1/4
f 222/1/4 206/1/4 230/1/4
f 229/1/4 222/1/4 230/1/4
f 205/1/4 223/1/4 231/1/4
f 223/2/4 224/2/4 231/2/4
f 224/1/4 225/1/4 232/1/4
f 231/2/4 224/2/4 232/2/4
f 225/3/4 226/3/4 233/3/4
f 232/1/4 225/1/4 233/1/4
f 226/1/4 227/1/4 234/1/4
f 233/3/4 226/3/4 234/3/4
f 227/2/4 228/2/4 235/2/4
f 234/1/4 227/1/4 235/1/4
f 228/1/4 229/1/4 236/1/4
f 235/2/4 228/2/4 236/2/4
f 229/2/4 230/2/4 237/2/4
f 236/1/4 229/1/4 237/1/4
f 230/1/4 206/1/4 238/1/4
f 237/2/4 230/2/4 238/2/4
f 234/1/4 235/1/4 239/1/4
f 236/1/4 237/1/4 239/1/4
f 237/1/4 238/1/4 239/1/4
f 233/1/4 234/1/4 239/1/4
f 232/1/4 233/1/4 239/1/4
f 231/1/4 232/1/4 239/1/4
f 205/1/4 231/1/4 239/1/4
f 235/1/4 236/1/4 239/1/4
f 239/1/4 238/1/4 240/1/4
f 240/1/4 238/1/4 241/1/4
f 241/1/4 238/1/4 242/1/4
f 242/1/4 238/1/4 243/1/4
f 243/1/4 238/1/4 244/1/4
f 244/1/4 238/1/4 245/1/4
f 238/1/4 206/1/4 246/1/4
f 245/1/4 238/1/4 246/1/4
f 205/1/4 239/1/4 247/1/4
f 239/3/4 240/3/4 247/3/4
f 240/1/4 241/1/4 248/1/4
f 247/3/4 240/3/4 248/3/4
f 241/2/4 242/2/4 249/2/4
f 248/1/4 241/1/4 249/1/4
f 242/1/4 243/1/4 250/1/4
f 249/2/4 242/2/4 250/2/4
f 243/2/4 244/2/4 251/2/4
f 250/1/4 243/1/4 251/1/4
f 244/1/4 245/1/4 252/1/4
f 251/2/4 244/2/4 252/2/4
f 245/3/4 246/3/4 253/3/4
f 252/1/4 245/1/4 253/1/4
f 246/1/4 206/1/4 254/1/4
f 253/3/4 246/3/4 254/3/4
f 250/1/4 251/1/4 255/1/4
f 252/1/4 253/1/4 255/1/4
f 253/1/4 254/1/4 255/1/4
f 249/1/4 250/1/4 255/1/4
f 248/1/4 249/1/4 255/1/4
f 247/1/4 248/1/4 255/1/4
f 205/1/4 247/1/4 255/1/4
f 251/1/4 252/1/4 255/1/4
f 255/1/4 254/1/4 256/1/4
f 256/1/4 254/1/4 257/1/4
f 257/1/4 254/1/4 258/1/4
f 258/1/4 254/1/4 259/1/4
f 259/1/4 254/1/4 260/1/4
f 260/1/4 254/1/4 261/1/4
f 254/1/4 206/1/4 262/1/4
f 261/1/4 254/1/4 262/1/4
f 205/1/4 255/1/4 263/1/4
f 255/2/4 256/2/4 263/2/4
f 256/1/4 257/1/4 264/1/4
f 263/2/4 256/2/4 264/2/4
f 257/2/4 258/2/4 265/2/4
f 264/1/4 257/1/4 265/1/4
f 258/1/4 259/1/4 266/1/4
f 265/2/4 258/2/4 266/2/4
f 259/3/4 260/3/4 267/3/4
f 266/1/4 259/1/4 267/1/4
f 260/1/4 261/1/4 268/1/4
f 267/3/4 260/3/4 268/3/4
f 261/2/4 262/2/4 269/2/4
f 268/1/4 261/1/4 269/1/4
f 262/1/4 206/1/4 270/1/4
f 269/2/4 262/2/4 270/2/4
f 266/1/4 267/1/4 271/1/4
f 268/1/4 269/1/4 271/1/4
f 269/1/4 270/1/4 271/1/4
f 265/1/4 266/1/4 271/1/4
f 264/1/4 265/1/4 271/1/4
f 263/1/4 264/1/4 271/1/4
f 205/1/4 263/1/4 271/1/4
f 267/1/4 268/1/4 271/1/4
f 271/1/4 270/1/4 272/1/4
f 272/1/4 270/1/4 273/1/4
f 273/1/4 270/1/4 274/1/4
f 274/1/4 270/1/4 275/1/4
f 275/1/4 270/1/4 276/1/4
f 276/1/4 270/1/4 277/1/4
f 270/1/4 206/1/4 278/1/4
f 277/1/4 270/1/4 278/1/4
f 205/1/4 271/1/4 279/1/4
f 271/2/4 272/2/4 279/2/4
f 272/1/4 273/1/4 280/1/4
f 279/2/4 272/2/4 280/2/4
f 273/3/4 274/3/4 281/3/4
f 280/1/4 273/1/4 281/1/4
f 274/1/4 275/1/4 282/1/4
f 281/3/4 274/3/4 282/3/4
f 275/3/4 276/3/4 283/3/4
f 282/1/4 275/1/4 283/1/4
f 276/1/4 277/1/4 284/1/4
f 283/3/4 276/3/4 284/3/4
f 277/2/4 278/2/4 285/2/4
f 284/1/4 277/1/4 285/1/4
f 278/1/4 206/1/4 286/1/4
f 285/2/4 278/2/4 286/2/4
f 282/1/4 283/1/4 287/1/4
f 284/1/4 285/1/4 287/1/4
f 285/1/4 286/1/4 287/1/4
f 281/1/4 282/1/4 287/1/4
f 280/1/4 281/1/4 287/1/4
f 279/1/4 280/1/4 287/1/4
f 205/1/4 279/1/4 287/1/4
f 283/1/4 284/1/4 287/1/4
f 287/1/4 286/1/4 288/1/4
f 288/1/4 286/1/4 289/1/4
f 289/1/4 286/1/4 290/1/4
f 290/1/4 286/1/4 291/1/4
f 291/1/4 286/1/4 292/1/4
f 292/1/4 286/1/4 293/1/4
f 286/1/4 206/1/4 294/1/4
f 293/1/4 286/1/4 294/1/4
f 205/1/4 287/1/4 295/1/4
f 287/3/4 288/3/4 295/3/4
f 288/1/4 289/1/4 296/1/4
f 295/3/4 288/3/4 296/3/4
f 289/2/4 290/2/4 297/2/4
f 296/1/4 289/1/4 297/1/4
f 290/1/4 291/1/4 298/1/4
f 297/2/4 290/2/4 298/2/4
f 291/2/4 292/2/4 299/2/4
f 298/1/4 291/1/4 299/1/4
f 292/1/4 293/1/4 300/1/4
f 299/2/4 292/2/4 300/2/4
f 293/2/4 294/2/4 301/2/4
f 300/1/4 293/1/4 301/1/4
f 294/1/4 206/1/4 302/1/4
f 301/2/4 294/2/4 302/2/4
f 298/1/4 299/1/4 303/1/4
f 300/1/4 301/1/4 303/1/4
f 301/1/4 302/1/4 303/1/4
f 297/1/4 298/1/4 303/1/4
f 296/1/4 297/1/4 303/1/4
f 295/1/4 296/1/4 303/1/4
f 205/1/4 295/1/4 303/1/4
f 299/1/4 300/1/4 303/1/4
f 303/1/4 302/1/4 304/1/4
f 304/1/4 302/1/4 305/1/4
f 305/1/4 302/1/4 306/1/4
f 306/1/4 302/1/4 307/1/4
f 307/1/4 302/1/4 308/1/4
f 308/1/4 302/1/4 309/1/4
f 302/1/4 206/1/4 310/1/4
f 309/1/4 302/1/4 310/1/4
f 205/1/4 303/1/4 311/1/4
f 303/2/4 304/2/4 311/2/4
f 304/1/4 305/1/4 312/1/4
f 311/2/4 304/2/4 312/2/4
f 305/3/4 306/3/4 313/3/4
f 312/1/4 305/1/4 313/1/4
f 306/1/4 307/1/4 314/1/4
f 313/3/4 306/3/4 314/3/4
f 307/2/4 308/2/4 315/2/4
f 314/1/4 307/1/4 315/1/4
f 308/1/4 309/1/4 316/1/4
f 315/2/4 308/2/4 316/2/4
f 309/3/4 310/3/4 317/3/4
f 316/1/4 309/1/4 317/1/4
f 310/1/4 206/1/4 318/1/4
f 317/3/4 310/3/4 318/3/4
f 314/1/4 315/1/4 319/1/4
f 316/1/4 317/1/4 319/1/4
f 317/1/4 318/1/4 319/1/4
f 313/1/4 314/1/4 319/1/4
f 312/1/4 313/1/4 319/1/4
f 311/1/4 312/1/4 319/1/4
f 205/1/4 311/1/4 319/1/4
f 315/1/4 316/1/4 319/1/4
f 319/1/4 318/1/4 320/1/4
f 320/1/4 318/1/4 321/1/4
f 321/1/4 318/1/4 322/1/4
f 322/1/4 318/1/4 323/1/4
f 323/1/4 318/1/4 324/1/4
f 324/1/4 318/1/4 325/1/4
f 318/1/4 206/1/4 326/1/4
f 325/1/4 318/1/4 326/1/4
f 205/1/4 319/1/4 327/1/4
f 319/3/4 320/3/4 327/3/4
f 320/1/4 321/1/4 328/1/4
f 327/3/4 320/3/4 328/3/4
f 321/2/4 322/2/4 329/2/4
f 328/1/4 321/1/4 329/1/4
f 322/1/4 323/1/4 330/1/4
f 329/2/4 322/2/4 330/2/4
f 323/3/4 324/3/4 331/3/4
f 330/1/4 323/1/4 331/1/4
f 324/1/4 325/1/4 332/1/4
f 331/3/4 324/3/4 332/3/4
f 325/2/4 326/2/4 333/2/4
f 332/1/4 325/1/4 333/1/4
f 326/1/4 206/1/4 334/1/4
f 333/2/4 326/2/4 334/2/4
f 330/1/4 331/1/4 335/1/4
f 332/1/4 333/1/4 335/1/4
f 333/1/4 334/1/4 335/1/4
f 329/1/4 330/1/4 335/1/4
f 328/1/4 329/1/4 335/1/4
f 327/1/4 328/1/4 335/1/4
f 205/1/4 327/1/4 335/1/4
f 331/1/4 332/1/4 335/1/4
f 334/1/4 206/1/4 336/1/4
f 335/1/4 334/1/4 336/1/4
f 339/1/5 338/1/5 337/1/5
f 340/1/5 338/1/5 339/1/5
f 341/1/6 342/1/6 343/1/6
f 343/1/6 342/1/6 344/1/6
