# MagicaVoxel @ Ephtracy

# group
o 

# material
mtllib DeadEndRightSign2.mtl
usemtl palette

# normals
vn -1 0 0
vn 1 0 0
vn 0 0 1
vn 0 0 -1
vn 0 -1 0
vn 0 1 0

# texcoords
vt 0.970703 0.5
vt 0.974609 0.5
vt 0.982422 0.5
vt 0.990234 0.5

# verts
v -0.9 2.7 0
v -0.9 2.7 -0.1
v -0.9 4.6 0
v -0.9 4.6 -0.1
v -0.2 0 0.1
v -0.2 0 -0.2
v -0.2 0.1 0.1
v -0.2 0.1 -0.2
v -0.1 0 0.2
v -0.1 0 0.1
v -0.1 0 -0.2
v -0.1 0 -0.3
v -0.1 0.1 0.2
v -0.1 0.1 0.1
v -0.1 0.1 -0.2
v -0.1 0.1 -0.3
v 0 0.1 0
v 0 0.1 -0.1
v 0 2.7 0
v 0 2.7 -0.1
v 0.1 0.1 0
v 0.1 0.1 -0.1
v 0.1 2.7 0
v 0.1 2.7 -0.1
v 0.2 0 0.2
v 0.2 0 0.1
v 0.2 0 -0.2
v 0.2 0 -0.3
v 0.2 0.1 0.2
v 0.2 0.1 0.1
v 0.2 0.1 -0.2
v 0.2 0.1 -0.3
v 0.3 0 0.1
v 0.3 0 -0.2
v 0.3 0.1 0.1
v 0.3 0.1 -0.2
v 1 2.7 0
v 1 2.7 -0.1
v 1 4.6 0
v 1 4.6 -0.1
v -0.1 0 0.2
v -0.1 0.1 0.2
v 0.2 0 0.2
v 0.2 0.1 0.2
v -0.2 0 0.1
v -0.2 0.1 0.1
v -0.1 0 0.1
v -0.1 0.1 0.1
v 0.2 0 0.1
v 0.2 0.1 0.1
v 0.3 0 0.1
v 0.3 0.1 0.1
v -0.9 2.7 0
v -0.9 4.6 0
v -0.8 2.8 0
v -0.8 3.5 0
v -0.8 3.8 0
v -0.8 4.5 0
v -0.1 2.8 0
v -0.1 3.5 0
v 0 0.1 0
v 0 2.7 0
v 0.1 0.1 0
v 0.1 2.7 0
v 0.2 2.8 0
v 0.2 3.5 0
v 0.4 3.3 0
v 0.4 3.5 0
v 0.4 3.8 0
v 0.4 4 0
v 0.5 3.4 0
v 0.5 3.9 0
v 0.7 3.4 0
v 0.7 3.9 0
v 0.8 3.3 0
v 0.8 4 0
v 0.9 2.8 0
v 0.9 4.5 0
v 1 2.7 0
v 1 4.6 0
v -0.9 2.7 -0.1
v -0.9 4.6 -0.1
v -0.8 2.8 -0.1
v -0.8 3.5 -0.1
v -0.8 3.8 -0.1
v -0.8 4.5 -0.1
v -0.1 2.8 -0.1
v -0.1 3.5 -0.1
v 0 0.1 -0.1
v 0 2.7 -0.1
v 0.1 0.1 -0.1
v 0.1 2.7 -0.1
v 0.2 2.8 -0.1
v 0.2 3.5 -0.1
v 0.4 3.3 -0.1
v 0.4 3.5 -0.1
v 0.4 3.8 -0.1
v 0.4 4 -0.1
v 0.5 3.4 -0.1
v 0.5 3.9 -0.1
v 0.7 3.4 -0.1
v 0.7 3.9 -0.1
v 0.8 3.3 -0.1
v 0.8 4 -0.1
v 0.9 2.8 -0.1
v 0.9 4.5 -0.1
v 1 2.7 -0.1
v 1 4.6 -0.1
v -0.2 0 -0.2
v -0.2 0.1 -0.2
v -0.1 0 -0.2
v -0.1 0.1 -0.2
v 0.2 0 -0.2
v 0.2 0.1 -0.2
v 0.3 0 -0.2
v 0.3 0.1 -0.2
v -0.1 0 -0.3
v -0.1 0.1 -0.3
v 0.2 0 -0.3
v 0.2 0.1 -0.3
v -0.1 0 0.2
v 0.2 0 0.2
v -0.2 0 0.1
v -0.1 0 0.1
v 0.2 0 0.1
v 0.3 0 0.1
v -0.2 0 -0.2
v -0.1 0 -0.2
v 0.2 0 -0.2
v 0.3 0 -0.2
v -0.1 0 -0.3
v 0.2 0 -0.3
v -0.9 2.7 0
v 0 2.7 0
v 0.1 2.7 0
v 1 2.7 0
v -0.9 2.7 -0.1
v 0 2.7 -0.1
v 0.1 2.7 -0.1
v 1 2.7 -0.1
v -0.1 0.1 0.2
v 0.2 0.1 0.2
v -0.2 0.1 0.1
v -0.1 0.1 0.1
v 0.2 0.1 0.1
v 0.3 0.1 0.1
v 0 0.1 0
v 0.1 0.1 0
v 0 0.1 -0.1
v 0.1 0.1 -0.1
v -0.2 0.1 -0.2
v -0.1 0.1 -0.2
v 0.2 0.1 -0.2
v 0.3 0.1 -0.2
v -0.1 0.1 -0.3
v 0.2 0.1 -0.3
v -0.9 4.6 0
v 1 4.6 0
v -0.9 4.6 -0.1
v 1 4.6 -0.1

# faces
f 3/3/1 2/3/1 1/3/1
f 4/3/1 2/3/1 3/3/1
f 7/1/1 6/1/1 5/1/1
f 8/1/1 6/1/1 7/1/1
f 13/1/1 10/1/1 9/1/1
f 14/1/1 10/1/1 13/1/1
f 15/1/1 12/1/1 11/1/1
f 16/1/1 12/1/1 15/1/1
f 19/1/1 18/1/1 17/1/1
f 20/1/1 18/1/1 19/1/1
f 21/1/2 22/1/2 23/1/2
f 23/1/2 22/1/2 24/1/2
f 25/1/2 26/1/2 29/1/2
f 29/1/2 26/1/2 30/1/2
f 27/1/2 28/1/2 31/1/2
f 31/1/2 28/1/2 32/1/2
f 33/1/2 34/1/2 35/1/2
f 35/1/2 34/1/2 36/1/2
f 37/3/2 38/3/2 39/3/2
f 39/3/2 38/3/2 40/3/2
f 43/1/3 42/1/3 41/1/3
f 44/1/3 42/1/3 43/1/3
f 47/1/3 46/1/3 45/1/3
f 48/1/3 46/1/3 47/1/3
f 51/1/3 50/1/3 49/1/3
f 52/1/3 50/1/3 51/1/3
f 55/3/3 54/3/3 53/3/3
f 56/3/3 54/3/3 55/3/3
f 57/3/3 54/3/3 56/3/3
f 58/3/3 54/3/3 57/3/3
f 59/3/3 55/3/3 53/3/3
f 59/2/3 56/2/3 55/2/3
f 60/3/3 57/3/3 56/3/3
f 60/2/3 56/2/3 59/2/3
f 62/3/3 59/3/3 53/3/3
f 62/3/3 60/3/3 59/3/3
f 63/1/3 62/1/3 61/1/3
f 64/3/3 60/3/3 62/3/3
f 64/1/3 62/1/3 63/1/3
f 65/3/3 60/3/3 64/3/3
f 66/3/3 57/3/3 60/3/3
f 66/3/3 60/3/3 65/3/3
f 67/2/3 66/2/3 65/2/3
f 68/3/3 57/3/3 66/3/3
f 68/2/3 66/2/3 67/2/3
f 69/2/3 58/2/3 57/2/3
f 69/3/3 57/3/3 68/3/3
f 70/2/3 58/2/3 69/2/3
f 71/3/3 68/3/3 67/3/3
f 71/3/3 69/3/3 68/3/3
f 71/3/3 70/3/3 69/3/3
f 72/3/3 70/3/3 71/3/3
f 73/3/3 71/3/3 67/3/3
f 73/4/3 72/4/3 71/4/3
f 74/3/3 70/3/3 72/3/3
f 74/4/3 72/4/3 73/4/3
f 75/2/3 67/2/3 65/2/3
f 75/3/3 73/3/3 67/3/3
f 75/3/3 74/3/3 73/3/3
f 76/2/3 58/2/3 70/2/3
f 76/3/3 74/3/3 75/3/3
f 76/3/3 70/3/3 74/3/3
f 77/2/3 75/2/3 65/2/3
f 77/3/3 65/3/3 64/3/3
f 77/2/3 76/2/3 75/2/3
f 78/3/3 54/3/3 58/3/3
f 78/2/3 76/2/3 77/2/3
f 78/2/3 58/2/3 76/2/3
f 79/3/3 77/3/3 64/3/3
f 79/3/3 78/3/3 77/3/3
f 80/3/3 54/3/3 78/3/3
f 80/3/3 78/3/3 79/3/3
f 81/3/4 82/3/4 83/3/4
f 83/3/4 82/3/4 84/3/4
f 84/3/4 82/3/4 85/3/4
f 85/3/4 82/3/4 86/3/4
f 81/3/4 83/3/4 87/3/4
f 83/2/4 84/2/4 87/2/4
f 84/3/4 85/3/4 88/3/4
f 87/2/4 84/2/4 88/2/4
f 81/3/4 87/3/4 90/3/4
f 87/3/4 88/3/4 90/3/4
f 89/1/4 90/1/4 91/1/4
f 90/3/4 88/3/4 92/3/4
f 91/1/4 90/1/4 92/1/4
f 92/3/4 88/3/4 93/3/4
f 88/3/4 85/3/4 94/3/4
f 93/3/4 88/3/4 94/3/4
f 93/2/4 94/2/4 95/2/4
f 94/3/4 85/3/4 96/3/4
f 95/2/4 94/2/4 96/2/4
f 85/2/4 86/2/4 97/2/4
f 96/3/4 85/3/4 97/3/4
f 97/2/4 86/2/4 98/2/4
f 95/3/4 96/3/4 99/3/4
f 96/3/4 97/3/4 99/3/4
f 97/3/4 98/3/4 99/3/4
f 99/3/4 98/3/4 100/3/4
f 95/3/4 99/3/4 101/3/4
f 99/4/4 100/4/4 101/4/4
f 100/3/4 98/3/4 102/3/4
f 101/4/4 100/4/4 102/4/4
f 93/2/4 95/2/4 103/2/4
f 95/3/4 101/3/4 103/3/4
f 101/3/4 102/3/4 103/3/4
f 98/2/4 86/2/4 104/2/4
f 103/3/4 102/3/4 104/3/4
f 102/3/4 98/3/4 104/3/4
f 93/2/4 103/2/4 105/2/4
f 92/3/4 93/3/4 105/3/4
f 103/2/4 104/2/4 105/2/4
f 86/3/4 82/3/4 106/3/4
f 105/2/4 104/2/4 106/2/4
f 104/2/4 86/2/4 106/2/4
f 92/3/4 105/3/4 107/3/4
f 105/3/4 106/3/4 107/3/4
f 106/3/4 82/3/4 108/3/4
f 107/3/4 106/3/4 108/3/4
f 109/1/4 110/1/4 111/1/4
f 111/1/4 110/1/4 112/1/4
f 113/1/4 114/1/4 115/1/4
f 115/1/4 114/1/4 116/1/4
f 117/1/4 118/1/4 119/1/4
f 119/1/4 118/1/4 120/1/4
f 124/1/5 122/1/5 121/1/5
f 125/1/5 122/1/5 124/1/5
f 127/1/5 124/1/5 123/1/5
f 127/1/5 126/1/5 125/1/5
f 127/1/5 125/1/5 124/1/5
f 128/1/5 126/1/5 127/1/5
f 129/1/5 126/1/5 128/1/5
f 130/1/5 126/1/5 129/1/5
f 131/1/5 129/1/5 128/1/5
f 132/1/5 129/1/5 131/1/5
f 137/3/5 134/3/5 133/3/5
f 138/3/5 134/3/5 137/3/5
f 139/3/5 136/3/5 135/3/5
f 140/3/5 136/3/5 139/3/5
f 141/1/6 142/1/6 144/1/6
f 144/1/6 142/1/6 145/1/6
f 143/1/6 144/1/6 147/1/6
f 145/1/6 146/1/6 147/1/6
f 144/1/6 145/1/6 147/1/6
f 147/1/6 146/1/6 148/1/6
f 143/1/6 147/1/6 149/1/6
f 148/1/6 146/1/6 150/1/6
f 143/1/6 149/1/6 151/1/6
f 149/1/6 150/1/6 151/1/6
f 151/1/6 150/1/6 152/1/6
f 150/1/6 146/1/6 153/1/6
f 152/1/6 150/1/6 153/1/6
f 153/1/6 146/1/6 154/1/6
f 152/1/6 153/1/6 155/1/6
f 155/1/6 153/1/6 156/1/6
f 157/3/6 158/3/6 159/3/6
f 159/3/6 158/3/6 160/3/6
