# MagicaVoxel @ Ephtracy

# group
o 

# material
mtllib DeadEndRightSign.mtl
usemtl palette

# normals
vn -1 0 0
vn 1 0 0
vn 0 0 1
vn 0 0 -1
vn 0 -1 0
vn 0 1 0

# texcoords
vt 0.970703 0.5
vt 0.974609 0.5
vt 0.982422 0.5
vt 0.990234 0.5

# verts
v -0.9 2.7 0
v -0.9 2.7 -0.1
v -0.9 4.6 0
v -0.9 4.6 -0.1
v -0.2 0 0.1
v -0.2 0 -0.2
v -0.2 0.1 0.1
v -0.2 0.1 -0.2
v -0.1 0 0.2
v -0.1 0 0.1
v -0.1 0 -0.2
v -0.1 0 -0.3
v -0.1 0.1 0.2
v -0.1 0.1 0.1
v -0.1 0.1 -0.2
v -0.1 0.1 -0.3
v 0 0.1 0
v 0 0.1 -0.1
v 0 2.7 0
v 0 2.7 -0.1
v 0.1 0.1 0
v 0.1 0.1 -0.1
v 0.1 2.7 0
v 0.1 2.7 -0.1
v 0.2 0 0.2
v 0.2 0 0.1
v 0.2 0 -0.2
v 0.2 0 -0.3
v 0.2 0.1 0.2
v 0.2 0.1 0.1
v 0.2 0.1 -0.2
v 0.2 0.1 -0.3
v 0.3 0 0.1
v 0.3 0 -0.2
v 0.3 0.1 0.1
v 0.3 0.1 -0.2
v 1 2.7 0
v 1 2.7 -0.1
v 1 4.6 0
v 1 4.6 -0.1
v -0.1 0 0.2
v -0.1 0.1 0.2
v 0.2 0 0.2
v 0.2 0.1 0.2
v -0.2 0 0.1
v -0.2 0.1 0.1
v -0.1 0 0.1
v -0.1 0.1 0.1
v 0.2 0 0.1
v 0.2 0.1 0.1
v 0.3 0 0.1
v 0.3 0.1 0.1
v -0.9 2.7 0
v -0.9 4.6 0
v -0.8 2.8 0
v -0.8 3.5 0
v -0.8 3.8 0
v -0.8 4.5 0
v -0.1 2.8 0
v -0.1 3.5 0
v -0.1 3.8 0
v -0.1 4.5 0
v 0 0.1 0
v 0 2.7 0
v 0.1 0.1 0
v 0.1 2.7 0
v 0.2 2.8 0
v 0.2 3.5 0
v 0.2 3.8 0
v 0.2 4.5 0
v 0.4 3.3 0
v 0.4 3.5 0
v 0.4 3.8 0
v 0.4 4 0
v 0.5 3.4 0
v 0.5 3.9 0
v 0.7 3.4 0
v 0.7 3.9 0
v 0.8 3.3 0
v 0.8 4 0
v 0.9 2.8 0
v 0.9 4.5 0
v 1 2.7 0
v 1 4.6 0
v -0.9 2.7 -0.1
v -0.9 4.6 -0.1
v -0.8 2.8 -0.1
v -0.8 3.5 -0.1
v -0.8 3.8 -0.1
v -0.8 4.5 -0.1
v -0.1 2.8 -0.1
v -0.1 3.5 -0.1
v -0.1 3.8 -0.1
v -0.1 4.5 -0.1
v 0 0.1 -0.1
v 0 2.7 -0.1
v 0.1 0.1 -0.1
v 0.1 2.7 -0.1
v 0.2 2.8 -0.1
v 0.2 3.5 -0.1
v 0.2 3.8 -0.1
v 0.2 4.5 -0.1
v 0.4 3.3 -0.1
v 0.4 3.5 -0.1
v 0.4 3.8 -0.1
v 0.4 4 -0.1
v 0.5 3.4 -0.1
v 0.5 3.9 -0.1
v 0.7 3.4 -0.1
v 0.7 3.9 -0.1
v 0.8 3.3 -0.1
v 0.8 4 -0.1
v 0.9 2.8 -0.1
v 0.9 4.5 -0.1
v 1 2.7 -0.1
v 1 4.6 -0.1
v -0.2 0 -0.2
v -0.2 0.1 -0.2
v -0.1 0 -0.2
v -0.1 0.1 -0.2
v 0.2 0 -0.2
v 0.2 0.1 -0.2
v 0.3 0 -0.2
v 0.3 0.1 -0.2
v -0.1 0 -0.3
v -0.1 0.1 -0.3
v 0.2 0 -0.3
v 0.2 0.1 -0.3
v -0.1 0 0.2
v 0.2 0 0.2
v -0.2 0 0.1
v -0.1 0 0.1
v 0.2 0 0.1
v 0.3 0 0.1
v -0.2 0 -0.2
v -0.1 0 -0.2
v 0.2 0 -0.2
v 0.3 0 -0.2
v -0.1 0 -0.3
v 0.2 0 -0.3
v -0.9 2.7 0
v 0 2.7 0
v 0.1 2.7 0
v 1 2.7 0
v -0.9 2.7 -0.1
v 0 2.7 -0.1
v 0.1 2.7 -0.1
v 1 2.7 -0.1
v -0.1 0.1 0.2
v 0.2 0.1 0.2
v -0.2 0.1 0.1
v -0.1 0.1 0.1
v 0.2 0.1 0.1
v 0.3 0.1 0.1
v 0 0.1 0
v 0.1 0.1 0
v 0 0.1 -0.1
v 0.1 0.1 -0.1
v -0.2 0.1 -0.2
v -0.1 0.1 -0.2
v 0.2 0.1 -0.2
v 0.3 0.1 -0.2
v -0.1 0.1 -0.3
v 0.2 0.1 -0.3
v -0.9 4.6 0
v 1 4.6 0
v -0.9 4.6 -0.1
v 1 4.6 -0.1

# faces
f 3/3/1 2/3/1 1/3/1
f 4/3/1 2/3/1 3/3/1
f 7/1/1 6/1/1 5/1/1
f 8/1/1 6/1/1 7/1/1
f 13/1/1 10/1/1 9/1/1
f 14/1/1 10/1/1 13/1/1
f 15/1/1 12/1/1 11/1/1
f 16/1/1 12/1/1 15/1/1
f 19/1/1 18/1/1 17/1/1
f 20/1/1 18/1/1 19/1/1
f 21/1/2 22/1/2 23/1/2
f 23/1/2 22/1/2 24/1/2
f 25/1/2 26/1/2 29/1/2
f 29/1/2 26/1/2 30/1/2
f 27/1/2 28/1/2 31/1/2
f 31/1/2 28/1/2 32/1/2
f 33/1/2 34/1/2 35/1/2
f 35/1/2 34/1/2 36/1/2
f 37/3/2 38/3/2 39/3/2
f 39/3/2 38/3/2 40/3/2
f 43/1/3 42/1/3 41/1/3
f 44/1/3 42/1/3 43/1/3
f 47/1/3 46/1/3 45/1/3
f 48/1/3 46/1/3 47/1/3
f 51/1/3 50/1/3 49/1/3
f 52/1/3 50/1/3 51/1/3
f 55/3/3 54/3/3 53/3/3
f 56/3/3 54/3/3 55/3/3
f 57/3/3 54/3/3 56/3/3
f 58/3/3 54/3/3 57/3/3
f 59/3/3 55/3/3 53/3/3
f 59/2/3 56/2/3 55/2/3
f 60/3/3 57/3/3 56/3/3
f 60/2/3 56/2/3 59/2/3
f 61/2/3 58/2/3 57/2/3
f 61/3/3 57/3/3 60/3/3
f 62/3/3 54/3/3 58/3/3
f 62/2/3 58/2/3 61/2/3
f 64/3/3 61/3/3 60/3/3
f 64/3/3 60/3/3 59/3/3
f 64/3/3 62/3/3 61/3/3
f 64/3/3 59/3/3 53/3/3
f 65/1/3 64/1/3 63/1/3
f 66/3/3 62/3/3 64/3/3
f 66/1/3 64/1/3 65/1/3
f 67/3/3 62/3/3 66/3/3
f 68/3/3 62/3/3 67/3/3
f 69/3/3 62/3/3 68/3/3
f 70/3/3 54/3/3 62/3/3
f 70/3/3 62/3/3 69/3/3
f 71/2/3 68/2/3 67/2/3
f 72/3/3 69/3/3 68/3/3
f 72/2/3 68/2/3 71/2/3
f 73/2/3 70/2/3 69/2/3
f 73/3/3 69/3/3 72/3/3
f 74/2/3 70/2/3 73/2/3
f 75/3/3 72/3/3 71/3/3
f 75/3/3 73/3/3 72/3/3
f 75/3/3 74/3/3 73/3/3
f 76/3/3 74/3/3 75/3/3
f 77/3/3 75/3/3 71/3/3
f 77/4/3 76/4/3 75/4/3
f 78/3/3 74/3/3 76/3/3
f 78/4/3 76/4/3 77/4/3
f 79/2/3 71/2/3 67/2/3
f 79/3/3 77/3/3 71/3/3
f 79/3/3 78/3/3 77/3/3
f 80/3/3 74/3/3 78/3/3
f 80/3/3 78/3/3 79/3/3
f 80/2/3 70/2/3 74/2/3
f 81/2/3 79/2/3 67/2/3
f 81/3/3 67/3/3 66/3/3
f 81/2/3 80/2/3 79/2/3
f 82/2/3 70/2/3 80/2/3
f 82/2/3 80/2/3 81/2/3
f 82/3/3 54/3/3 70/3/3
f 83/3/3 81/3/3 66/3/3
f 83/3/3 82/3/3 81/3/3
f 84/3/3 54/3/3 82/3/3
f 84/3/3 82/3/3 83/3/3
f 85/3/4 86/3/4 87/3/4
f 87/3/4 86/3/4 88/3/4
f 88/3/4 86/3/4 89/3/4
f 89/3/4 86/3/4 90/3/4
f 85/3/4 87/3/4 91/3/4
f 87/2/4 88/2/4 91/2/4
f 88/3/4 89/3/4 92/3/4
f 91/2/4 88/2/4 92/2/4
f 89/2/4 90/2/4 93/2/4
f 92/3/4 89/3/4 93/3/4
f 90/3/4 86/3/4 94/3/4
f 93/2/4 90/2/4 94/2/4
f 92/3/4 93/3/4 96/3/4
f 91/3/4 92/3/4 96/3/4
f 93/3/4 94/3/4 96/3/4
f 85/3/4 91/3/4 96/3/4
f 95/1/4 96/1/4 97/1/4
f 96/3/4 94/3/4 98/3/4
f 97/1/4 96/1/4 98/1/4
f 98/3/4 94/3/4 99/3/4
f 99/3/4 94/3/4 100/3/4
f 100/3/4 94/3/4 101/3/4
f 94/3/4 86/3/4 102/3/4
f 101/3/4 94/3/4 102/3/4
f 99/2/4 100/2/4 103/2/4
f 100/3/4 101/3/4 104/3/4
f 103/2/4 100/2/4 104/2/4
f 101/2/4 102/2/4 105/2/4
f 104/3/4 101/3/4 105/3/4
f 105/2/4 102/2/4 106/2/4
f 103/3/4 104/3/4 107/3/4
f 104/3/4 105/3/4 107/3/4
f 105/3/4 106/3/4 107/3/4
f 107/3/4 106/3/4 108/3/4
f 103/3/4 107/3/4 109/3/4
f 107/4/4 108/4/4 109/4/4
f 108/3/4 106/3/4 110/3/4
f 109/4/4 108/4/4 110/4/4
f 99/2/4 103/2/4 111/2/4
f 103/3/4 109/3/4 111/3/4
f 109/3/4 110/3/4 111/3/4
f 110/3/4 106/3/4 112/3/4
f 111/3/4 110/3/4 112/3/4
f 106/2/4 102/2/4 112/2/4
f 99/2/4 111/2/4 113/2/4
f 98/3/4 99/3/4 113/3/4
f 111/2/4 112/2/4 113/2/4
f 112/2/4 102/2/4 114/2/4
f 113/2/4 112/2/4 114/2/4
f 102/3/4 86/3/4 114/3/4
f 98/3/4 113/3/4 115/3/4
f 113/3/4 114/3/4 115/3/4
f 114/3/4 86/3/4 116/3/4
f 115/3/4 114/3/4 116/3/4
f 117/1/4 118/1/4 119/1/4
f 119/1/4 118/1/4 120/1/4
f 121/1/4 122/1/4 123/1/4
f 123/1/4 122/1/4 124/1/4
f 125/1/4 126/1/4 127/1/4
f 127/1/4 126/1/4 128/1/4
f 132/1/5 130/1/5 129/1/5
f 133/1/5 130/1/5 132/1/5
f 135/1/5 132/1/5 131/1/5
f 135/1/5 134/1/5 133/1/5
f 135/1/5 133/1/5 132/1/5
f 136/1/5 134/1/5 135/1/5
f 137/1/5 134/1/5 136/1/5
f 138/1/5 134/1/5 137/1/5
f 139/1/5 137/1/5 136/1/5
f 140/1/5 137/1/5 139/1/5
f 145/3/5 142/3/5 141/3/5
f 146/3/5 142/3/5 145/3/5
f 147/3/5 144/3/5 143/3/5
f 148/3/5 144/3/5 147/3/5
f 149/1/6 150/1/6 152/1/6
f 152/1/6 150/1/6 153/1/6
f 151/1/6 152/1/6 155/1/6
f 153/1/6 154/1/6 155/1/6
f 152/1/6 153/1/6 155/1/6
f 155/1/6 154/1/6 156/1/6
f 151/1/6 155/1/6 157/1/6
f 156/1/6 154/1/6 158/1/6
f 151/1/6 157/1/6 159/1/6
f 157/1/6 158/1/6 159/1/6
f 159/1/6 158/1/6 160/1/6
f 158/1/6 154/1/6 161/1/6
f 160/1/6 158/1/6 161/1/6
f 161/1/6 154/1/6 162/1/6
f 160/1/6 161/1/6 163/1/6
f 163/1/6 161/1/6 164/1/6
f 165/3/6 166/3/6 167/3/6
f 167/3/6 166/3/6 168/3/6
