# MagicaVoxel @ Ephtracy

# group
o 

# material
mtllib Human3(Mushroom)-1.mtl
usemtl palette

# normals
vn -1 0 0
vn 1 0 0
vn 0 0 1
vn 0 0 -1
vn 0 -1 0
vn 0 1 0

# texcoords
vt 0.970703 0.5
vt 0.974609 0.5
vt 0.982422 0.5

# verts
v -0.1 -1 0.1
v -0.1 -1 -0.1
v -0.1 -0.9 0.1
v -0.1 -0.9 0
v -0.1 -0.9 -0.1
v -0.1 -0.7 0
v -0.1 -0.7 -0.1
v -0.1 -0.5 0.1
v -0.1 -0.5 0
v -0.1 -0.4 0.1
v -0.1 -0.4 0
v -0.1 -0.3 0.1
v -0.1 -0.3 0
v -0.1 -0.2 0.1
v -0.1 -0.2 0
v -0.1 0 0.1
v -0.1 0 -0.1
v 0.1 -1 0.1
v 0.1 -1 -0.1
v 0.1 -0.9 0.1
v 0.1 -0.9 0
v 0.1 -0.9 -0.1
v 0.1 -0.8 0.1
v 0.1 -0.8 0
v 0.1 -0.7 0.1
v 0.1 -0.7 0
v 0.1 -0.5 0.1
v 0.1 -0.5 0
v 0.1 -0.5 -0.1
v 0.1 -0.4 0.1
v 0.1 -0.4 0
v 0.1 -0.4 -0.1
v 0.1 -0.3 0.1
v 0.1 -0.3 0
v 0.1 -0.2 0
v 0.1 -0.2 -0.1
v 0.1 -0.1 0
v 0.1 -0.1 -0.1
v 0.1 0 0.1
v 0.1 0 -0.1
v -0.1 -1 0.1
v -0.1 -0.9 0.1
v -0.1 -0.5 0.1
v -0.1 -0.4 0.1
v -0.1 -0.3 0.1
v -0.1 -0.2 0.1
v -0.1 0 0.1
v 0 -0.9 0.1
v 0 -0.8 0.1
v 0 -0.7 0.1
v 0 -0.5 0.1
v 0 -0.4 0.1
v 0 -0.3 0.1
v 0 -0.2 0.1
v 0.1 -1 0.1
v 0.1 -0.9 0.1
v 0.1 -0.8 0.1
v 0.1 -0.7 0.1
v 0.1 -0.5 0.1
v 0.1 -0.4 0.1
v 0.1 -0.3 0.1
v 0.1 0 0.1
v -0.1 -1 -0.1
v -0.1 -0.9 -0.1
v -0.1 -0.7 -0.1
v -0.1 0 -0.1
v 0 -0.9 -0.1
v 0 -0.7 -0.1
v 0 -0.5 -0.1
v 0 -0.4 -0.1
v 0 -0.2 -0.1
v 0 -0.1 -0.1
v 0.1 -1 -0.1
v 0.1 -0.9 -0.1
v 0.1 -0.5 -0.1
v 0.1 -0.4 -0.1
v 0.1 -0.2 -0.1
v 0.1 -0.1 -0.1
v 0.1 0 -0.1
v -0.1 -1 0.1
v 0.1 -1 0.1
v -0.1 -1 -0.1
v 0.1 -1 -0.1
v -0.1 0 0.1
v 0.1 0 0.1
v -0.1 0 -0.1
v 0.1 0 -0.1

# faces
f 3/2/1 2/2/1 1/2/1
f 4/2/1 2/2/1 3/2/1
f 5/2/1 2/2/1 4/2/1
f 6/1/1 4/1/1 3/1/1
f 6/3/1 5/3/1 4/3/1
f 7/3/1 5/3/1 6/3/1
f 8/1/1 6/1/1 3/1/1
f 8/1/1 7/1/1 6/1/1
f 9/1/1 7/1/1 8/1/1
f 10/3/1 9/3/1 8/3/1
f 11/1/1 7/1/1 9/1/1
f 11/3/1 9/3/1 10/3/1
f 12/1/1 11/1/1 10/1/1
f 13/1/1 7/1/1 11/1/1
f 13/1/1 11/1/1 12/1/1
f 14/3/1 13/3/1 12/3/1
f 15/1/1 7/1/1 13/1/1
f 15/3/1 13/3/1 14/3/1
f 16/1/1 15/1/1 14/1/1
f 17/1/1 7/1/1 15/1/1
f 17/1/1 15/1/1 16/1/1
f 18/2/2 19/2/2 20/2/2
f 20/2/2 19/2/2 21/2/2
f 21/2/2 19/2/2 22/2/2
f 20/3/2 21/3/2 23/3/2
f 21/1/2 22/1/2 24/1/2
f 23/3/2 21/3/2 24/3/2
f 23/1/2 24/1/2 25/1/2
f 24/1/2 22/1/2 26/1/2
f 25/1/2 24/1/2 26/1/2
f 25/3/2 26/3/2 27/3/2
f 26/1/2 22/1/2 28/1/2
f 27/3/2 26/3/2 28/3/2
f 28/1/2 22/1/2 29/1/2
f 27/1/2 28/1/2 30/1/2
f 28/3/2 29/3/2 31/3/2
f 30/1/2 28/1/2 31/1/2
f 31/3/2 29/3/2 32/3/2
f 30/3/2 31/3/2 33/3/2
f 31/1/2 32/1/2 34/1/2
f 33/3/2 31/3/2 34/3/2
f 33/1/2 34/1/2 35/1/2
f 34/1/2 32/1/2 35/1/2
f 35/1/2 32/1/2 36/1/2
f 33/1/2 35/1/2 37/1/2
f 35/3/2 36/3/2 37/3/2
f 37/3/2 36/3/2 38/3/2
f 33/1/2 37/1/2 39/1/2
f 37/1/2 38/1/2 39/1/2
f 39/1/2 38/1/2 40/1/2
f 48/2/3 42/2/3 41/2/3
f 48/1/3 43/1/3 42/1/3
f 49/1/3 43/1/3 48/1/3
f 50/1/3 43/1/3 49/1/3
f 51/3/3 44/3/3 43/3/3
f 51/1/3 43/1/3 50/1/3
f 52/1/3 45/1/3 44/1/3
f 52/3/3 44/3/3 51/3/3
f 53/3/3 46/3/3 45/3/3
f 53/1/3 45/1/3 52/1/3
f 54/1/3 47/1/3 46/1/3
f 54/3/3 46/3/3 53/3/3
f 55/2/3 48/2/3 41/2/3
f 56/3/3 49/3/3 48/3/3
f 56/2/3 48/2/3 55/2/3
f 57/1/3 50/1/3 49/1/3
f 57/3/3 49/3/3 56/3/3
f 58/3/3 51/3/3 50/3/3
f 58/1/3 50/1/3 57/1/3
f 59/1/3 52/1/3 51/1/3
f 59/3/3 51/3/3 58/3/3
f 60/3/3 53/3/3 52/3/3
f 60/1/3 52/1/3 59/1/3
f 61/1/3 54/1/3 53/1/3
f 61/3/3 53/3/3 60/3/3
f 62/1/3 47/1/3 54/1/3
f 62/1/3 54/1/3 61/1/3
f 63/2/4 64/2/4 67/2/4
f 64/3/4 65/3/4 67/3/4
f 65/1/4 66/1/4 68/1/4
f 67/3/4 65/3/4 68/3/4
f 68/1/4 66/1/4 69/1/4
f 69/1/4 66/1/4 70/1/4
f 70/1/4 66/1/4 71/1/4
f 71/1/4 66/1/4 72/1/4
f 63/2/4 67/2/4 73/2/4
f 67/1/4 68/1/4 74/1/4
f 73/2/4 67/2/4 74/2/4
f 68/1/4 69/1/4 74/1/4
f 69/3/4 70/3/4 75/3/4
f 74/1/4 69/1/4 75/1/4
f 70/1/4 71/1/4 76/1/4
f 75/3/4 70/3/4 76/3/4
f 71/3/4 72/3/4 77/3/4
f 76/1/4 71/1/4 77/1/4
f 72/1/4 66/1/4 78/1/4
f 77/3/4 72/3/4 78/3/4
f 78/1/4 66/1/4 79/1/4
f 82/2/5 81/2/5 80/2/5
f 83/2/5 81/2/5 82/2/5
f 84/1/6 85/1/6 86/1/6
f 86/1/6 85/1/6 87/1/6
