# MagicaVoxel @ Ephtracy

# group
o 

# material
mtllib Human3(Mushroom)-0.mtl
usemtl palette

# normals
vn -1 0 0
vn 1 0 0
vn 0 0 1
vn 0 0 -1
vn 0 -1 0
vn 0 1 0

# texcoords
vt 0.978516 0.5
vt 0.982422 0.5

# verts
v -0.5 0 0.4
v -0.5 0 0.2
v -0.5 0 0.1
v -0.5 0 -0.4
v -0.5 0.1 0.2
v -0.5 0.1 0.1
v -0.5 0.1 -0.2
v -0.5 0.1 -0.3
v -0.5 0.2 0.4
v -0.5 0.2 -0.2
v -0.5 0.2 -0.3
v -0.5 0.2 -0.4
v -0.4 0 0.5
v -0.4 0 0.4
v -0.4 0 -0.4
v -0.4 0 -0.5
v -0.4 0.1 0.5
v -0.4 0.1 0.4
v -0.4 0.2 0.5
v -0.4 0.2 0.4
v -0.4 0.2 0.3
v -0.4 0.2 0
v -0.4 0.2 -0.1
v -0.4 0.2 -0.2
v -0.4 0.2 -0.3
v -0.4 0.2 -0.4
v -0.4 0.2 -0.5
v -0.4 0.3 0.3
v -0.4 0.3 0
v -0.4 0.3 -0.1
v -0.4 0.3 -0.3
v -0.3 0.2 0.4
v -0.3 0.2 0.3
v -0.3 0.2 -0.3
v -0.3 0.2 -0.4
v -0.3 0.3 0.4
v -0.3 0.3 0.3
v -0.3 0.3 0.2
v -0.3 0.3 0.1
v -0.3 0.3 0
v -0.3 0.3 -0.1
v -0.3 0.3 -0.2
v -0.3 0.3 -0.3
v -0.3 0.3 -0.4
v -0.3 0.4 0.2
v -0.3 0.4 0.1
v -0.3 0.4 -0.2
v -0.2 0.3 0.3
v -0.2 0.3 0.2
v -0.2 0.3 -0.2
v -0.2 0.3 -0.3
v -0.2 0.4 0.3
v -0.2 0.4 0.2
v -0.2 0.4 0.1
v -0.2 0.4 0
v -0.2 0.4 -0.1
v -0.2 0.4 -0.2
v -0.2 0.4 -0.3
v -0.2 0.5 0.1
v -0.2 0.5 0
v -0.2 0.5 -0.1
v -0.1 0.4 0.2
v -0.1 0.4 0.1
v -0.1 0.4 -0.1
v -0.1 0.4 -0.2
v -0.1 0.5 0.2
v -0.1 0.5 0.1
v -0.1 0.5 -0.1
v -0.1 0.5 -0.2
v 0.4 0 0.4
v 0.4 0 0.2
v 0.4 0 0.1
v 0.4 0 -0.4
v 0.4 0.1 0.4
v 0.4 0.1 0.2
v 0.4 0.1 0.1
v 0.4 0.1 -0.4
v -0.4 0 0.4
v -0.4 0 0.2
v -0.4 0 0.1
v -0.4 0 -0.4
v -0.4 0.1 0.4
v -0.4 0.1 0.2
v -0.4 0.1 0.1
v -0.4 0.1 -0.4
v 0.1 0.4 0.2
v 0.1 0.4 0.1
v 0.1 0.4 -0.1
v 0.1 0.4 -0.2
v 0.1 0.5 0.2
v 0.1 0.5 0.1
v 0.1 0.5 -0.1
v 0.1 0.5 -0.2
v 0.2 0.3 0.3
v 0.2 0.3 0.2
v 0.2 0.3 -0.2
v 0.2 0.3 -0.3
v 0.2 0.4 0.3
v 0.2 0.4 0.2
v 0.2 0.4 0.1
v 0.2 0.4 -0.1
v 0.2 0.4 -0.2
v 0.2 0.4 -0.3
v 0.2 0.5 0.1
v 0.2 0.5 -0.1
v 0.3 0.2 0.4
v 0.3 0.2 0.3
v 0.3 0.2 -0.3
v 0.3 0.2 -0.4
v 0.3 0.3 0.4
v 0.3 0.3 0.3
v 0.3 0.3 0.2
v 0.3 0.3 0.1
v 0.3 0.3 0
v 0.3 0.3 -0.2
v 0.3 0.3 -0.3
v 0.3 0.3 -0.4
v 0.3 0.4 0.2
v 0.3 0.4 -0.2
v 0.4 0 0.5
v 0.4 0 0.4
v 0.4 0 -0.4
v 0.4 0 -0.5
v 0.4 0.1 0.5
v 0.4 0.1 0.4
v 0.4 0.2 0.5
v 0.4 0.2 0.4
v 0.4 0.2 0.3
v 0.4 0.2 0.2
v 0.4 0.2 0.1
v 0.4 0.2 0
v 0.4 0.2 -0.2
v 0.4 0.2 -0.3
v 0.4 0.2 -0.4
v 0.4 0.2 -0.5
v 0.4 0.3 0.3
v 0.4 0.3 0.2
v 0.4 0.3 0.1
v 0.4 0.3 0
v 0.4 0.3 -0.3
v 0.5 0 0.4
v 0.5 0 0.2
v 0.5 0 0.1
v 0.5 0 -0.4
v 0.5 0.1 0.2
v 0.5 0.1 0.1
v 0.5 0.1 -0.2
v 0.5 0.1 -0.3
v 0.5 0.2 0.4
v 0.5 0.2 -0.2
v 0.5 0.2 -0.3
v 0.5 0.2 -0.4
v -0.4 0 0.5
v -0.4 0.1 0.5
v -0.4 0.2 0.5
v -0.3 0.1 0.5
v -0.3 0.2 0.5
v 0.1 0.1 0.5
v 0.1 0.2 0.5
v 0.2 0.1 0.5
v 0.2 0.2 0.5
v 0.3 0 0.5
v 0.3 0.1 0.5
v 0.4 0 0.5
v 0.4 0.1 0.5
v 0.4 0.2 0.5
v -0.5 0 0.4
v -0.5 0.2 0.4
v -0.4 0 0.4
v -0.4 0.1 0.4
v -0.4 0.2 0.4
v -0.3 0.2 0.4
v -0.3 0.3 0.4
v 0.1 0.2 0.4
v 0.2 0.2 0.4
v 0.3 0.2 0.4
v 0.3 0.3 0.4
v 0.4 0 0.4
v 0.4 0.1 0.4
v 0.4 0.2 0.4
v 0.5 0 0.4
v 0.5 0.2 0.4
v -0.4 0.2 0.3
v -0.4 0.3 0.3
v -0.3 0.2 0.3
v -0.3 0.3 0.3
v -0.2 0.3 0.3
v -0.2 0.4 0.3
v 0.1 0.3 0.3
v 0.1 0.4 0.3
v 0.2 0.3 0.3
v 0.2 0.4 0.3
v 0.3 0.2 0.3
v 0.3 0.3 0.3
v 0.4 0.2 0.3
v 0.4 0.3 0.3
v -0.3 0.3 0.2
v -0.3 0.4 0.2
v -0.2 0.3 0.2
v -0.2 0.4 0.2
v -0.1 0.4 0.2
v -0.1 0.5 0.2
v 0.1 0.4 0.2
v 0.1 0.5 0.2
v 0.2 0.3 0.2
v 0.2 0.4 0.2
v 0.3 0.3 0.2
v 0.3 0.4 0.2
v -0.2 0.4 0.1
v -0.2 0.5 0.1
v -0.1 0.4 0.1
v -0.1 0.5 0.1
v 0.1 0.4 0.1
v 0.1 0.5 0.1
v 0.2 0.4 0.1
v 0.2 0.5 0.1
v -0.4 0 -0.4
v -0.4 0.1 -0.4
v 0.2 0 -0.4
v 0.2 0.1 -0.4
v 0.3 0 -0.4
v 0.3 0.1 -0.4
v 0.4 0 -0.4
v 0.4 0.1 -0.4
v -0.4 0 0.4
v -0.4 0.1 0.4
v 0.3 0 0.4
v 0.3 0.1 0.4
v 0.4 0 0.4
v 0.4 0.1 0.4
v -0.2 0.4 -0.1
v -0.2 0.5 -0.1
v -0.1 0.4 -0.1
v -0.1 0.5 -0.1
v 0.1 0.4 -0.1
v 0.1 0.5 -0.1
v 0.2 0.4 -0.1
v 0.2 0.5 -0.1
v -0.3 0.3 -0.2
v -0.3 0.4 -0.2
v -0.2 0.3 -0.2
v -0.2 0.4 -0.2
v -0.1 0.4 -0.2
v -0.1 0.5 -0.2
v 0 0.4 -0.2
v 0.1 0.4 -0.2
v 0.1 0.5 -0.2
v 0.2 0.3 -0.2
v 0.2 0.4 -0.2
v 0.3 0.3 -0.2
v 0.3 0.4 -0.2
v -0.4 0.2 -0.3
v -0.4 0.3 -0.3
v -0.3 0.2 -0.3
v -0.3 0.3 -0.3
v -0.2 0.3 -0.3
v -0.2 0.4 -0.3
v 0 0.3 -0.3
v 0 0.4 -0.3
v 0.1 0.3 -0.3
v 0.1 0.4 -0.3
v 0.2 0.3 -0.3
v 0.2 0.4 -0.3
v 0.3 0.2 -0.3
v 0.3 0.3 -0.3
v 0.4 0.2 -0.3
v 0.4 0.3 -0.3
v -0.5 0 -0.4
v -0.5 0.2 -0.4
v -0.4 0 -0.4
v -0.4 0.2 -0.4
v -0.3 0.2 -0.4
v -0.3 0.3 -0.4
v -0.2 0.2 -0.4
v -0.2 0.3 -0.4
v -0.1 0.2 -0.4
v 0 0.2 -0.4
v 0.2 0.2 -0.4
v 0.2 0.3 -0.4
v 0.3 0.2 -0.4
v 0.3 0.3 -0.4
v 0.4 0 -0.4
v 0.4 0.2 -0.4
v 0.5 0 -0.4
v 0.5 0.2 -0.4
v -0.4 0 -0.5
v -0.4 0.2 -0.5
v -0.1 0.1 -0.5
v -0.1 0.2 -0.5
v 0 0.1 -0.5
v 0 0.2 -0.5
v 0.2 0 -0.5
v 0.2 0.1 -0.5
v 0.3 0 -0.5
v 0.3 0.1 -0.5
v 0.4 0 -0.5
v 0.4 0.2 -0.5
v -0.4 0 0.5
v 0.3 0 0.5
v 0.4 0 0.5
v -0.5 0 0.4
v -0.4 0 0.4
v 0.3 0 0.4
v 0.4 0 0.4
v 0.5 0 0.4
v -0.5 0 0.2
v -0.4 0 0.2
v 0.4 0 0.2
v 0.5 0 0.2
v -0.5 0 0.1
v -0.4 0 0.1
v 0.4 0 0.1
v 0.5 0 0.1
v -0.5 0 -0.4
v -0.4 0 -0.4
v 0.2 0 -0.4
v 0.3 0 -0.4
v 0.4 0 -0.4
v 0.5 0 -0.4
v -0.4 0 -0.5
v 0.2 0 -0.5
v 0.3 0 -0.5
v 0.4 0 -0.5
v -0.4 0.1 0.4
v 0.3 0.1 0.4
v 0.4 0.1 0.4
v -0.4 0.1 0.2
v 0.4 0.1 0.2
v -0.4 0.1 0.1
v 0.4 0.1 0.1
v -0.4 0.1 -0.4
v 0.2 0.1 -0.4
v 0.3 0.1 -0.4
v 0.4 0.1 -0.4
v -0.4 0.2 0.5
v -0.3 0.2 0.5
v 0.1 0.2 0.5
v 0.2 0.2 0.5
v 0.4 0.2 0.5
v -0.5 0.2 0.4
v -0.4 0.2 0.4
v -0.3 0.2 0.4
v 0.1 0.2 0.4
v 0.2 0.2 0.4
v 0.3 0.2 0.4
v 0.4 0.2 0.4
v 0.5 0.2 0.4
v -0.4 0.2 0.3
v -0.3 0.2 0.3
v 0.3 0.2 0.3
v 0.4 0.2 0.3
v 0.4 0.2 0.2
v 0.4 0.2 0.1
v -0.4 0.2 0
v 0.4 0.2 0
v -0.4 0.2 -0.1
v -0.5 0.2 -0.2
v -0.4 0.2 -0.2
v 0.4 0.2 -0.2
v 0.5 0.2 -0.2
v -0.5 0.2 -0.3
v -0.4 0.2 -0.3
v -0.3 0.2 -0.3
v 0.3 0.2 -0.3
v 0.4 0.2 -0.3
v 0.5 0.2 -0.3
v -0.5 0.2 -0.4
v -0.4 0.2 -0.4
v -0.3 0.2 -0.4
v -0.2 0.2 -0.4
v -0.1 0.2 -0.4
v 0 0.2 -0.4
v 0.2 0.2 -0.4
v 0.3 0.2 -0.4
v 0.4 0.2 -0.4
v 0.5 0.2 -0.4
v -0.4 0.2 -0.5
v -0.1 0.2 -0.5
v 0 0.2 -0.5
v 0.4 0.2 -0.5
v -0.3 0.3 0.4
v 0.3 0.3 0.4
v -0.4 0.3 0.3
v -0.3 0.3 0.3
v -0.2 0.3 0.3
v 0.1 0.3 0.3
v 0.2 0.3 0.3
v 0.3 0.3 0.3
v 0.4 0.3 0.3
v -0.3 0.3 0.2
v -0.2 0.3 0.2
v 0.2 0.3 0.2
v 0.3 0.3 0.2
v 0.4 0.3 0.2
v -0.3 0.3 0.1
v 0.3 0.3 0.1
v 0.4 0.3 0.1
v -0.4 0.3 0
v -0.3 0.3 0
v 0.3 0.3 0
v 0.4 0.3 0
v -0.4 0.3 -0.1
v -0.3 0.3 -0.1
v -0.3 0.3 -0.2
v -0.2 0.3 -0.2
v 0.2 0.3 -0.2
v 0.3 0.3 -0.2
v -0.4 0.3 -0.3
v -0.3 0.3 -0.3
v -0.2 0.3 -0.3
v 0 0.3 -0.3
v 0.1 0.3 -0.3
v 0.2 0.3 -0.3
v 0.3 0.3 -0.3
v 0.4 0.3 -0.3
v -0.3 0.3 -0.4
v -0.2 0.3 -0.4
v 0.2 0.3 -0.4
v 0.3 0.3 -0.4
v -0.2 0.4 0.3
v 0.1 0.4 0.3
v 0.2 0.4 0.3
v -0.3 0.4 0.2
v -0.2 0.4 0.2
v -0.1 0.4 0.2
v 0.1 0.4 0.2
v 0.2 0.4 0.2
v 0.3 0.4 0.2
v -0.3 0.4 0.1
v -0.2 0.4 0.1
v -0.1 0.4 0.1
v 0.1 0.4 0.1
v 0.2 0.4 0.1
v -0.2 0.4 0
v -0.2 0.4 -0.1
v -0.1 0.4 -0.1
v 0.1 0.4 -0.1
v 0.2 0.4 -0.1
v -0.3 0.4 -0.2
v -0.2 0.4 -0.2
v -0.1 0.4 -0.2
v 0 0.4 -0.2
v 0.1 0.4 -0.2
v 0.2 0.4 -0.2
v 0.3 0.4 -0.2
v -0.2 0.4 -0.3
v 0 0.4 -0.3
v 0.1 0.4 -0.3
v 0.2 0.4 -0.3
v -0.1 0.5 0.2
v 0.1 0.5 0.2
v -0.2 0.5 0.1
v -0.1 0.5 0.1
v 0 0.5 0.1
v 0.1 0.5 0.1
v 0.2 0.5 0.1
v -0.2 0.5 0
v -0.1 0.5 0
v 0 0.5 0
v 0.1 0.5 0
v -0.2 0.5 -0.1
v -0.1 0.5 -0.1
v 0.1 0.5 -0.1
v 0.2 0.5 -0.1
v -0.1 0.5 -0.2
v 0.1 0.5 -0.2

# faces
f 5/1/1 2/1/1 1/1/1
f 5/2/1 3/2/1 2/2/1
f 6/1/1 4/1/1 3/1/1
f 6/2/1 3/2/1 5/2/1
f 7/1/1 4/1/1 6/1/1
f 8/1/1 4/1/1 7/1/1
f 9/1/1 5/1/1 1/1/1
f 9/1/1 6/1/1 5/1/1
f 9/1/1 7/1/1 6/1/1
f 10/2/1 8/2/1 7/2/1
f 10/1/1 7/1/1 9/1/1
f 11/1/1 4/1/1 8/1/1
f 11/2/1 8/2/1 10/2/1
f 12/1/1 4/1/1 11/1/1
f 17/1/1 14/1/1 13/1/1
f 18/1/1 14/1/1 17/1/1
f 19/2/1 18/2/1 17/2/1
f 20/2/1 18/2/1 19/2/1
f 26/1/1 16/1/1 15/1/1
f 27/1/1 16/1/1 26/1/1
f 28/1/1 22/1/1 21/1/1
f 29/2/1 23/2/1 22/2/1
f 29/1/1 22/1/1 28/1/1
f 30/1/1 25/1/1 24/1/1
f 30/2/1 23/2/1 29/2/1
f 30/1/1 24/1/1 23/1/1
f 31/1/1 25/1/1 30/1/1
f 36/1/1 33/1/1 32/1/1
f 37/1/1 33/1/1 36/1/1
f 43/2/1 35/2/1 34/2/1
f 44/2/1 35/2/1 43/2/1
f 45/2/1 39/2/1 38/2/1
f 46/1/1 42/1/1 41/1/1
f 46/2/1 39/2/1 45/2/1
f 46/1/1 40/1/1 39/1/1
f 46/1/1 41/1/1 40/1/1
f 47/1/1 42/1/1 46/1/1
f 52/1/1 49/1/1 48/1/1
f 53/1/1 49/1/1 52/1/1
f 57/1/1 51/1/1 50/1/1
f 58/1/1 51/1/1 57/1/1
f 59/1/1 55/1/1 54/1/1
f 60/2/1 56/2/1 55/2/1
f 60/1/1 55/1/1 59/1/1
f 61/2/1 56/2/1 60/2/1
f 66/1/1 63/1/1 62/1/1
f 67/1/1 63/1/1 66/1/1
f 68/1/1 65/1/1 64/1/1
f 69/1/1 65/1/1 68/1/1
f 74/1/1 71/1/1 70/1/1
f 75/2/1 72/2/1 71/2/1
f 75/1/1 71/1/1 74/1/1
f 76/1/1 73/1/1 72/1/1
f 76/2/1 72/2/1 75/2/1
f 77/1/1 73/1/1 76/1/1
f 78/1/2 79/1/2 82/1/2
f 79/2/2 80/2/2 83/2/2
f 82/1/2 79/1/2 83/1/2
f 80/1/2 81/1/2 84/1/2
f 83/2/2 80/2/2 84/2/2
f 84/1/2 81/1/2 85/1/2
f 86/1/2 87/1/2 90/1/2
f 90/1/2 87/1/2 91/1/2
f 88/1/2 89/1/2 92/1/2
f 92/1/2 89/1/2 93/1/2
f 94/2/2 95/2/2 98/2/2
f 98/2/2 95/2/2 99/2/2
f 96/1/2 97/1/2 102/1/2
f 102/1/2 97/1/2 103/1/2
f 100/1/2 101/1/2 104/1/2
f 104/1/2 101/1/2 105/1/2
f 106/1/2 107/1/2 110/1/2
f 110/1/2 107/1/2 111/1/2
f 108/2/2 109/2/2 116/2/2
f 116/2/2 109/2/2 117/2/2
f 114/1/2 115/1/2 118/1/2
f 112/1/2 113/1/2 118/1/2
f 113/1/2 114/1/2 118/1/2
f 118/1/2 115/1/2 119/1/2
f 120/2/2 121/2/2 124/2/2
f 124/2/2 121/2/2 125/2/2
f 124/1/2 125/1/2 126/1/2
f 126/1/2 125/1/2 127/1/2
f 122/1/2 123/1/2 134/1/2
f 134/1/2 123/1/2 135/1/2
f 128/2/2 129/2/2 136/2/2
f 129/1/2 130/1/2 137/1/2
f 136/2/2 129/2/2 137/2/2
f 130/2/2 131/2/2 138/2/2
f 137/1/2 130/1/2 138/1/2
f 132/1/2 133/1/2 139/1/2
f 138/2/2 131/2/2 139/2/2
f 131/1/2 132/1/2 139/1/2
f 139/1/2 133/1/2 140/1/2
f 141/1/2 142/1/2 145/1/2
f 142/2/2 143/2/2 145/2/2
f 143/1/2 144/1/2 146/1/2
f 145/2/2 143/2/2 146/2/2
f 146/1/2 144/1/2 147/1/2
f 147/1/2 144/1/2 148/1/2
f 141/1/2 145/1/2 149/1/2
f 145/1/2 146/1/2 149/1/2
f 146/1/2 147/1/2 149/1/2
f 147/2/2 148/2/2 150/2/2
f 149/1/2 147/1/2 150/1/2
f 148/1/2 144/1/2 151/1/2
f 150/2/2 148/2/2 151/2/2
f 151/1/2 144/1/2 152/1/2
f 156/1/3 154/1/3 153/1/3
f 156/2/3 155/2/3 154/2/3
f 157/2/3 155/2/3 156/2/3
f 158/1/3 156/1/3 153/1/3
f 158/1/3 157/1/3 156/1/3
f 159/1/3 157/1/3 158/1/3
f 160/1/3 158/1/3 153/1/3
f 160/2/3 159/2/3 158/2/3
f 161/2/3 159/2/3 160/2/3
f 162/1/3 160/1/3 153/1/3
f 162/1/3 161/1/3 160/1/3
f 163/1/3 161/1/3 162/1/3
f 164/2/3 163/2/3 162/2/3
f 165/1/3 161/1/3 163/1/3
f 165/2/3 163/2/3 164/2/3
f 166/1/3 161/1/3 165/1/3
f 169/1/3 168/1/3 167/1/3
f 170/1/3 168/1/3 169/1/3
f 171/1/3 168/1/3 170/1/3
f 174/1/3 173/1/3 172/1/3
f 175/1/3 173/1/3 174/1/3
f 176/1/3 173/1/3 175/1/3
f 177/1/3 173/1/3 176/1/3
f 181/1/3 179/1/3 178/1/3
f 181/1/3 180/1/3 179/1/3
f 182/1/3 180/1/3 181/1/3
f 185/1/3 184/1/3 183/1/3
f 186/1/3 184/1/3 185/1/3
f 189/1/3 188/1/3 187/1/3
f 190/1/3 188/1/3 189/1/3
f 191/2/3 190/2/3 189/2/3
f 192/2/3 190/2/3 191/2/3
f 195/2/3 194/2/3 193/2/3
f 196/2/3 194/2/3 195/2/3
f 199/2/3 198/2/3 197/2/3
f 200/2/3 198/2/3 199/2/3
f 203/1/3 202/1/3 201/1/3
f 204/1/3 202/1/3 203/1/3
f 207/1/3 206/1/3 205/1/3
f 208/1/3 206/1/3 207/1/3
f 211/1/3 210/1/3 209/1/3
f 212/1/3 210/1/3 211/1/3
f 215/1/3 214/1/3 213/1/3
f 216/1/3 214/1/3 215/1/3
f 219/1/3 218/1/3 217/1/3
f 220/1/3 218/1/3 219/1/3
f 221/2/3 220/2/3 219/2/3
f 222/2/3 220/2/3 221/2/3
f 223/1/3 222/1/3 221/1/3
f 224/1/3 222/1/3 223/1/3
f 225/1/4 226/1/4 227/1/4
f 227/1/4 226/1/4 228/1/4
f 227/2/4 228/2/4 229/2/4
f 229/2/4 228/2/4 230/2/4
f 231/2/4 232/2/4 233/2/4
f 233/2/4 232/2/4 234/2/4
f 235/1/4 236/1/4 237/1/4
f 237/1/4 236/1/4 238/1/4
f 239/1/4 240/1/4 241/1/4
f 241/1/4 240/1/4 242/1/4
f 243/1/4 244/1/4 245/1/4
f 245/1/4 244/1/4 246/1/4
f 246/1/4 244/1/4 247/1/4
f 248/1/4 249/1/4 250/1/4
f 250/1/4 249/1/4 251/1/4
f 252/1/4 253/1/4 254/1/4
f 254/1/4 253/1/4 255/1/4
f 256/1/4 257/1/4 258/1/4
f 258/1/4 257/1/4 259/1/4
f 258/2/4 259/2/4 260/2/4
f 260/2/4 259/2/4 261/2/4
f 260/1/4 261/1/4 262/1/4
f 262/1/4 261/1/4 263/1/4
f 264/1/4 265/1/4 266/1/4
f 266/1/4 265/1/4 267/1/4
f 268/1/4 269/1/4 270/1/4
f 270/1/4 269/1/4 271/1/4
f 272/2/4 273/2/4 274/2/4
f 274/2/4 273/2/4 275/2/4
f 274/1/4 275/1/4 276/1/4
f 276/1/4 275/1/4 277/1/4
f 277/1/4 275/1/4 278/1/4
f 278/1/4 275/1/4 279/1/4
f 278/2/4 279/2/4 280/2/4
f 280/2/4 279/2/4 281/2/4
f 282/1/4 283/1/4 284/1/4
f 284/1/4 283/1/4 285/1/4
f 286/1/4 287/1/4 288/1/4
f 288/1/4 287/1/4 289/1/4
f 286/1/4 288/1/4 290/1/4
f 288/2/4 289/2/4 290/2/4
f 290/2/4 289/2/4 291/2/4
f 286/1/4 290/1/4 292/1/4
f 290/1/4 291/1/4 292/1/4
f 292/1/4 291/1/4 293/1/4
f 292/2/4 293/2/4 294/2/4
f 293/1/4 291/1/4 295/1/4
f 294/2/4 293/2/4 295/2/4
f 294/1/4 295/1/4 296/1/4
f 295/1/4 291/1/4 297/1/4
f 296/1/4 295/1/4 297/1/4
f 302/1/5 299/1/5 298/1/5
f 303/2/5 300/2/5 299/2/5
f 303/1/5 299/1/5 302/1/5
f 304/2/5 300/2/5 303/2/5
f 306/1/5 302/1/5 301/1/5
f 307/1/5 302/1/5 306/1/5
f 308/1/5 305/1/5 304/1/5
f 309/1/5 305/1/5 308/1/5
f 310/2/5 307/2/5 306/2/5
f 311/2/5 307/2/5 310/2/5
f 312/2/5 309/2/5 308/2/5
f 313/2/5 309/2/5 312/2/5
f 314/1/5 311/1/5 310/1/5
f 315/1/5 311/1/5 314/1/5
f 318/1/5 313/1/5 312/1/5
f 319/1/5 313/1/5 318/1/5
f 320/1/5 316/1/5 315/1/5
f 321/2/5 317/2/5 316/2/5
f 321/1/5 316/1/5 320/1/5
f 322/1/5 318/1/5 317/1/5
f 322/2/5 317/2/5 321/2/5
f 323/1/5 318/1/5 322/1/5
f 327/1/5 325/1/5 324/1/5
f 327/1/5 326/1/5 325/1/5
f 328/1/5 326/1/5 327/1/5
f 329/1/5 328/1/5 327/1/5
f 330/1/5 328/1/5 329/1/5
f 331/1/5 330/1/5 329/1/5
f 332/1/5 330/1/5 331/1/5
f 333/1/5 330/1/5 332/1/5
f 334/1/5 330/1/5 333/1/5
f 335/2/6 336/2/6 341/2/6
f 336/1/6 337/1/6 342/1/6
f 341/2/6 336/2/6 342/2/6
f 337/2/6 338/2/6 343/2/6
f 342/1/6 337/1/6 343/1/6
f 338/1/6 339/1/6 344/1/6
f 343/2/6 338/2/6 344/2/6
f 344/1/6 339/1/6 345/1/6
f 345/1/6 339/1/6 346/1/6
f 340/1/6 341/1/6 348/1/6
f 341/1/6 342/1/6 348/1/6
f 348/1/6 342/1/6 349/1/6
f 346/1/6 347/1/6 350/1/6
f 345/1/6 346/1/6 350/1/6
f 350/1/6 347/1/6 351/1/6
f 351/1/6 347/1/6 352/1/6
f 352/1/6 347/1/6 353/1/6
f 340/1/6 348/1/6 354/1/6
f 353/1/6 347/1/6 355/1/6
f 340/1/6 354/1/6 356/1/6
f 340/1/6 356/1/6 357/1/6
f 357/1/6 356/1/6 358/1/6
f 355/1/6 347/1/6 359/1/6
f 359/1/6 347/1/6 360/1/6
f 357/2/6 358/2/6 361/2/6
f 361/2/6 358/2/6 362/2/6
f 359/2/6 360/2/6 365/2/6
f 365/2/6 360/2/6 366/2/6
f 362/1/6 363/1/6 367/1/6
f 361/1/6 362/1/6 367/1/6
f 367/1/6 363/1/6 368/1/6
f 368/1/6 363/1/6 369/1/6
f 365/1/6 366/1/6 374/1/6
f 364/1/6 365/1/6 374/1/6
f 374/1/6 366/1/6 375/1/6
f 375/1/6 366/1/6 376/1/6
f 368/1/6 369/1/6 377/1/6
f 369/1/6 370/1/6 377/1/6
f 370/1/6 371/1/6 377/1/6
f 371/2/6 372/2/6 378/2/6
f 377/1/6 371/1/6 378/1/6
f 372/1/6 373/1/6 379/1/6
f 378/2/6 372/2/6 379/2/6
f 374/1/6 375/1/6 379/1/6
f 373/1/6 374/1/6 379/1/6
f 379/1/6 375/1/6 380/1/6
f 381/1/6 382/1/6 384/1/6
f 384/1/6 382/1/6 385/1/6
f 385/1/6 382/1/6 386/1/6
f 386/1/6 382/1/6 387/1/6
f 387/1/6 382/1/6 388/1/6
f 383/1/6 384/1/6 390/1/6
f 384/1/6 385/1/6 390/1/6
f 390/1/6 385/1/6 391/1/6
f 387/1/6 388/1/6 392/1/6
f 388/2/6 389/2/6 393/2/6
f 392/1/6 388/1/6 393/1/6
f 393/2/6 389/2/6 394/2/6
f 383/1/6 390/1/6 395/1/6
f 393/1/6 394/1/6 396/1/6
f 396/1/6 394/1/6 397/1/6
f 383/1/6 395/1/6 398/1/6
f 398/1/6 395/1/6 399/1/6
f 396/2/6 397/2/6 400/2/6
f 400/2/6 397/2/6 401/2/6
f 398/2/6 399/2/6 402/2/6
f 402/2/6 399/2/6 403/2/6
f 402/1/6 403/1/6 404/1/6
f 400/1/6 401/1/6 407/1/6
f 404/1/6 405/1/6 408/1/6
f 402/1/6 404/1/6 408/1/6
f 408/1/6 405/1/6 409/1/6
f 409/1/6 405/1/6 410/1/6
f 406/1/6 407/1/6 413/1/6
f 407/1/6 401/1/6 414/1/6
f 413/1/6 407/1/6 414/1/6
f 414/1/6 401/1/6 415/1/6
f 409/2/6 410/2/6 416/2/6
f 411/1/6 412/1/6 417/1/6
f 416/2/6 410/2/6 417/2/6
f 412/1/6 413/1/6 417/1/6
f 410/1/6 411/1/6 417/1/6
f 413/2/6 414/2/6 418/2/6
f 417/1/6 413/1/6 418/1/6
f 418/2/6 414/2/6 419/2/6
f 420/1/6 421/1/6 424/1/6
f 424/1/6 421/1/6 425/1/6
f 421/2/6 422/2/6 426/2/6
f 425/1/6 421/1/6 426/1/6
f 426/2/6 422/2/6 427/2/6
f 423/2/6 424/2/6 429/2/6
f 424/1/6 425/1/6 430/1/6
f 429/2/6 424/2/6 430/2/6
f 430/1/6 425/1/6 431/1/6
f 427/1/6 428/1/6 432/1/6
f 426/1/6 427/1/6 432/1/6
f 432/1/6 428/1/6 433/1/6
f 429/1/6 430/1/6 434/1/6
f 429/1/6 434/1/6 435/1/6
f 433/1/6 428/1/6 438/1/6
f 435/1/6 436/1/6 439/1/6
f 429/1/6 435/1/6 439/1/6
f 439/1/6 436/1/6 440/1/6
f 440/1/6 436/1/6 441/1/6
f 437/1/6 438/1/6 443/1/6
f 438/1/6 428/1/6 444/1/6
f 443/1/6 438/1/6 444/1/6
f 444/1/6 428/1/6 445/1/6
f 441/1/6 442/1/6 446/1/6
f 440/1/6 441/1/6 446/1/6
f 442/2/6 443/2/6 447/2/6
f 446/1/6 442/1/6 447/1/6
f 443/1/6 444/1/6 448/1/6
f 447/2/6 443/2/6 448/2/6
f 448/1/6 444/1/6 449/1/6
f 450/1/6 451/1/6 453/1/6
f 453/1/6 451/1/6 454/1/6
f 454/1/6 451/1/6 455/1/6
f 452/1/6 453/1/6 457/1/6
f 453/1/6 454/1/6 457/1/6
f 457/1/6 454/1/6 458/1/6
f 454/2/6 455/2/6 459/2/6
f 458/1/6 454/1/6 459/1/6
f 455/1/6 456/1/6 460/1/6
f 459/2/6 455/2/6 460/2/6
f 457/2/6 458/2/6 461/2/6
f 458/1/6 459/1/6 462/1/6
f 461/2/6 458/2/6 462/2/6
f 459/1/6 460/1/6 462/1/6
f 460/1/6 456/1/6 463/1/6
f 462/1/6 460/1/6 463/1/6
f 463/1/6 456/1/6 464/1/6
f 462/1/6 463/1/6 465/1/6
f 465/1/6 463/1/6 466/1/6
