# MagicaVoxel @ Ephtracy

# group
o 

# material
mtllib Human2-0.mtl
usemtl palette

# normals
vn -1 0 0
vn 1 0 0
vn 0 0 1
vn 0 0 -1
vn 0 -1 0
vn 0 1 0

# texcoords
vt 0.970703 0.5
vt 0.986328 0.5
vt 0.990234 0.5

# verts
v -0.1 -1 0.1
v -0.1 -1 0
v -0.1 -1 -0.1
v -0.1 -0.9 0.1
v -0.1 -0.9 0
v -0.1 -0.9 -0.1
v -0.1 -0.8 0.1
v -0.1 -0.8 0
v -0.1 -0.7 0.1
v -0.1 -0.7 0
v -0.1 -0.6 0.1
v -0.1 -0.6 0
v -0.1 -0.5 0.1
v -0.1 -0.5 0
v -0.1 -0.4 0.1
v -0.1 -0.4 0
v -0.1 -0.3 0.1
v -0.1 -0.3 0
v -0.1 -0.2 0.1
v -0.1 -0.2 0
v -0.1 0 0.1
v -0.1 0 -0.1
v 0.1 -1 0.1
v 0.1 -1 -0.1
v 0.1 -0.8 0.1
v 0.1 -0.8 0
v 0.1 -0.8 -0.1
v 0.1 -0.7 0.1
v 0.1 -0.7 0
v 0.1 -0.7 -0.1
v 0.1 -0.6 0.1
v 0.1 -0.6 0
v 0.1 -0.5 0.1
v 0.1 -0.5 0
v 0.1 -0.5 -0.1
v 0.1 -0.4 0
v 0.1 -0.4 -0.1
v 0.1 -0.3 0.1
v 0.1 -0.3 0
v 0.1 -0.2 0.1
v 0.1 -0.2 0
v 0.1 0 0.1
v 0.1 0 -0.1
v -0.1 -1 0.1
v -0.1 -0.9 0.1
v -0.1 -0.8 0.1
v -0.1 -0.7 0.1
v -0.1 -0.6 0.1
v -0.1 -0.5 0.1
v -0.1 -0.4 0.1
v -0.1 -0.3 0.1
v -0.1 -0.2 0.1
v -0.1 0 0.1
v 0 -0.9 0.1
v 0 -0.8 0.1
v 0 -0.7 0.1
v 0 -0.6 0.1
v 0 -0.5 0.1
v 0 -0.4 0.1
v 0 -0.3 0.1
v 0 -0.2 0.1
v 0.1 -1 0.1
v 0.1 -0.8 0.1
v 0.1 -0.7 0.1
v 0.1 -0.6 0.1
v 0.1 -0.5 0.1
v 0.1 -0.3 0.1
v 0.1 -0.2 0.1
v 0.1 0 0.1
v -0.1 -1 -0.1
v -0.1 -0.9 -0.1
v -0.1 0 -0.1
v 0 -1 -0.1
v 0 -0.9 -0.1
v 0 -0.8 -0.1
v 0 -0.7 -0.1
v 0 -0.5 -0.1
v 0 -0.4 -0.1
v 0.1 -1 -0.1
v 0.1 -0.8 -0.1
v 0.1 -0.7 -0.1
v 0.1 -0.5 -0.1
v 0.1 -0.4 -0.1
v 0.1 0 -0.1
v -0.1 -1 0.1
v 0.1 -1 0.1
v -0.1 -1 0
v 0 -1 0
v -0.1 -1 -0.1
v 0 -1 -0.1
v 0.1 -1 -0.1
v -0.1 0 0.1
v 0.1 0 0.1
v -0.1 0 -0.1
v 0.1 0 -0.1

# faces
f 4/2/1 2/2/1 1/2/1
f 5/3/1 3/3/1 2/3/1
f 5/2/1 2/2/1 4/2/1
f 6/3/1 3/3/1 5/3/1
f 7/3/1 5/3/1 4/3/1
f 8/2/1 6/2/1 5/2/1
f 8/3/1 5/3/1 7/3/1
f 9/1/1 8/1/1 7/1/1
f 10/2/1 6/2/1 8/2/1
f 10/1/1 8/1/1 9/1/1
f 11/3/1 10/3/1 9/3/1
f 12/2/1 6/2/1 10/2/1
f 12/3/1 10/3/1 11/3/1
f 13/2/1 12/2/1 11/2/1
f 14/2/1 6/2/1 12/2/1
f 14/2/1 12/2/1 13/2/1
f 15/1/1 14/1/1 13/1/1
f 16/2/1 6/2/1 14/2/1
f 16/1/1 14/1/1 15/1/1
f 17/2/1 16/2/1 15/2/1
f 18/2/1 6/2/1 16/2/1
f 18/2/1 16/2/1 17/2/1
f 19/3/1 18/3/1 17/3/1
f 20/2/1 6/2/1 18/2/1
f 20/3/1 18/3/1 19/3/1
f 21/2/1 20/2/1 19/2/1
f 22/2/1 6/2/1 20/2/1
f 22/2/1 20/2/1 21/2/1
f 23/2/2 24/2/2 25/2/2
f 25/2/2 24/2/2 26/2/2
f 26/2/2 24/2/2 27/2/2
f 25/1/2 26/1/2 28/1/2
f 26/3/2 27/3/2 29/3/2
f 28/1/2 26/1/2 29/1/2
f 29/3/2 27/3/2 30/3/2
f 28/2/2 29/2/2 31/2/2
f 29/2/2 30/2/2 31/2/2
f 31/2/2 30/2/2 32/2/2
f 31/3/2 32/3/2 33/3/2
f 32/2/2 30/2/2 34/2/2
f 33/3/2 32/3/2 34/3/2
f 34/2/2 30/2/2 35/2/2
f 33/2/2 34/2/2 36/2/2
f 34/1/2 35/1/2 36/1/2
f 36/1/2 35/1/2 37/1/2
f 33/2/2 36/2/2 38/2/2
f 36/2/2 37/2/2 38/2/2
f 38/2/2 37/2/2 39/2/2
f 38/1/2 39/1/2 40/1/2
f 39/2/2 37/2/2 41/2/2
f 40/1/2 39/1/2 41/1/2
f 40/2/2 41/2/2 42/2/2
f 41/2/2 37/2/2 43/2/2
f 42/2/2 41/2/2 43/2/2
f 54/2/3 45/2/3 44/2/3
f 54/3/3 46/3/3 45/3/3
f 55/1/3 47/1/3 46/1/3
f 55/3/3 46/3/3 54/3/3
f 56/3/3 48/3/3 47/3/3
f 56/1/3 47/1/3 55/1/3
f 57/2/3 49/2/3 48/2/3
f 57/3/3 48/3/3 56/3/3
f 58/1/3 50/1/3 49/1/3
f 58/2/3 49/2/3 57/2/3
f 59/2/3 51/2/3 50/2/3
f 59/1/3 50/1/3 58/1/3
f 60/3/3 52/3/3 51/3/3
f 60/2/3 51/2/3 59/2/3
f 61/2/3 53/2/3 52/2/3
f 61/3/3 52/3/3 60/3/3
f 62/2/3 54/2/3 44/2/3
f 62/2/3 55/2/3 54/2/3
f 63/1/3 56/1/3 55/1/3
f 63/2/3 55/2/3 62/2/3
f 64/2/3 57/2/3 56/2/3
f 64/1/3 56/1/3 63/1/3
f 65/3/3 58/3/3 57/3/3
f 65/2/3 57/2/3 64/2/3
f 66/2/3 60/2/3 59/2/3
f 66/3/3 58/3/3 65/3/3
f 66/2/3 59/2/3 58/2/3
f 67/1/3 61/1/3 60/1/3
f 67/2/3 60/2/3 66/2/3
f 68/2/3 53/2/3 61/2/3
f 68/1/3 61/1/3 67/1/3
f 69/2/3 53/2/3 68/2/3
f 70/3/4 71/3/4 73/3/4
f 71/2/4 72/2/4 74/2/4
f 73/3/4 71/3/4 74/3/4
f 74/2/4 72/2/4 75/2/4
f 75/2/4 72/2/4 76/2/4
f 76/2/4 72/2/4 77/2/4
f 77/2/4 72/2/4 78/2/4
f 73/2/4 74/2/4 79/2/4
f 74/2/4 75/2/4 79/2/4
f 75/3/4 76/3/4 80/3/4
f 79/2/4 75/2/4 80/2/4
f 76/2/4 77/2/4 81/2/4
f 80/3/4 76/3/4 81/3/4
f 77/1/4 78/1/4 82/1/4
f 81/2/4 77/2/4 82/2/4
f 78/2/4 72/2/4 83/2/4
f 82/1/4 78/1/4 83/1/4
f 83/2/4 72/2/4 84/2/4
f 87/2/5 86/2/5 85/2/5
f 88/2/5 86/2/5 87/2/5
f 89/3/5 88/3/5 87/3/5
f 90/2/5 86/2/5 88/2/5
f 90/3/5 88/3/5 89/3/5
f 91/2/5 86/2/5 90/2/5
f 92/2/6 93/2/6 94/2/6
f 94/2/6 93/2/6 95/2/6
