# MagicaVoxel @ Ephtracy

# group
o 

# material
mtllib Human2-4.mtl
usemtl palette

# normals
vn -1 0 0
vn 1 0 0
vn 0 0 1
vn 0 0 -1
vn 0 -1 0
vn 0 1 0

# texcoords
vt 0.970703 0.5
vt 0.982422 0.5
vt 0.986328 0.5
vt 0.990234 0.5

# verts
v -0.2 0 0.2
v -0.2 0 -0.1
v -0.2 0 -0.2
v -0.2 0.1 0.1
v -0.2 0.1 0
v -0.2 0.1 -0.1
v -0.2 0.1 -0.2
v -0.2 0.2 0.2
v -0.2 0.2 0.1
v -0.2 0.2 0
v -0.2 0.2 -0.2
v -0.2 0.7 0.2
v -0.2 0.7 0.1
v -0.2 0.8 0.2
v -0.2 0.8 0.1
v -0.2 1 0.2
v -0.2 1 -0.2
v 0.2 0 0.2
v 0.2 0 0.1
v 0.2 0 0
v 0.2 0 -0.2
v 0.2 0.1 0.1
v 0.2 0.1 0
v 0.2 0.1 -0.1
v 0.2 0.1 -0.2
v 0.2 0.2 0.2
v 0.2 0.2 -0.1
v 0.2 0.2 -0.2
v 0.2 0.7 0.2
v 0.2 0.7 0.1
v 0.2 0.8 0.2
v 0.2 0.8 0.1
v 0.2 1 0.2
v 0.2 1 -0.2
v -0.2 0 0.2
v -0.2 0.2 0.2
v -0.2 0.7 0.2
v -0.2 0.8 0.2
v -0.2 1 0.2
v -0.1 0.1 0.2
v -0.1 0.2 0.2
v -0.1 0.7 0.2
v -0.1 0.8 0.2
v 0 0.1 0.2
v 0 0.2 0.2
v 0 0.3 0.2
v 0 0.4 0.2
v 0.1 0.3 0.2
v 0.1 0.4 0.2
v 0.1 0.7 0.2
v 0.1 0.8 0.2
v 0.2 0 0.2
v 0.2 0.2 0.2
v 0.2 0.7 0.2
v 0.2 0.8 0.2
v 0.2 1 0.2
v -0.2 0 -0.2
v -0.2 0.1 -0.2
v -0.2 0.2 -0.2
v -0.2 1 -0.2
v -0.1 0 -0.2
v -0.1 0.1 -0.2
v 0 0 -0.2
v 0 0.1 -0.2
v 0.1 0 -0.2
v 0.1 0.1 -0.2
v 0.1 0.2 -0.2
v 0.2 0 -0.2
v 0.2 0.1 -0.2
v 0.2 0.2 -0.2
v 0.2 1 -0.2
v -0.2 0 0.2
v 0.2 0 0.2
v 0.1 0 0.1
v 0.2 0 0.1
v 0.1 0 0
v 0.2 0 0
v -0.2 0 -0.1
v -0.1 0 -0.1
v 0 0 -0.1
v 0.1 0 -0.1
v -0.2 0 -0.2
v -0.1 0 -0.2
v 0 0 -0.2
v 0.1 0 -0.2
v 0.2 0 -0.2
v -0.2 1 0.2
v 0.2 1 0.2
v -0.2 1 -0.2
v 0.2 1 -0.2

# faces
f 4/3/1 2/3/1 1/3/1
f 5/3/1 2/3/1 4/3/1
f 6/4/1 3/4/1 2/4/1
f 6/3/1 2/3/1 5/3/1
f 7/4/1 3/4/1 6/4/1
f 8/3/1 4/3/1 1/3/1
f 9/4/1 5/4/1 4/4/1
f 9/3/1 4/3/1 8/3/1
f 10/3/1 6/3/1 5/3/1
f 10/4/1 5/4/1 9/4/1
f 10/3/1 7/3/1 6/3/1
f 11/3/1 7/3/1 10/3/1
f 12/1/1 9/1/1 8/1/1
f 12/1/1 10/1/1 9/1/1
f 12/1/1 11/1/1 10/1/1
f 13/1/1 11/1/1 12/1/1
f 14/2/1 13/2/1 12/2/1
f 15/1/1 11/1/1 13/1/1
f 15/2/1 13/2/1 14/2/1
f 16/1/1 15/1/1 14/1/1
f 17/1/1 11/1/1 15/1/1
f 17/1/1 15/1/1 16/1/1
f 18/3/2 19/3/2 22/3/2
f 19/4/2 20/4/2 22/4/2
f 20/3/2 21/3/2 23/3/2
f 22/4/2 20/4/2 23/4/2
f 23/3/2 21/3/2 24/3/2
f 24/3/2 21/3/2 25/3/2
f 18/3/2 22/3/2 26/3/2
f 22/3/2 23/3/2 26/3/2
f 23/3/2 24/3/2 26/3/2
f 24/4/2 25/4/2 27/4/2
f 26/3/2 24/3/2 27/3/2
f 27/4/2 25/4/2 28/4/2
f 26/1/2 27/1/2 29/1/2
f 27/1/2 28/1/2 29/1/2
f 29/1/2 28/1/2 30/1/2
f 29/2/2 30/2/2 31/2/2
f 30/1/2 28/1/2 32/1/2
f 31/2/2 30/2/2 32/2/2
f 31/1/2 32/1/2 33/1/2
f 32/1/2 28/1/2 34/1/2
f 33/1/2 32/1/2 34/1/2
f 40/3/3 36/3/3 35/3/3
f 41/1/3 37/1/3 36/1/3
f 41/3/3 36/3/3 40/3/3
f 42/2/3 38/2/3 37/2/3
f 42/1/3 37/1/3 41/1/3
f 43/1/3 39/1/3 38/1/3
f 43/2/3 38/2/3 42/2/3
f 44/3/3 40/3/3 35/3/3
f 44/4/3 41/4/3 40/4/3
f 45/1/3 42/1/3 41/1/3
f 45/4/3 41/4/3 44/4/3
f 45/1/3 43/1/3 42/1/3
f 46/1/3 43/1/3 45/1/3
f 47/1/3 43/1/3 46/1/3
f 48/1/3 46/1/3 45/1/3
f 48/2/3 47/2/3 46/2/3
f 49/1/3 43/1/3 47/1/3
f 49/2/3 47/2/3 48/2/3
f 50/1/3 43/1/3 49/1/3
f 51/1/3 39/1/3 43/1/3
f 51/1/3 43/1/3 50/1/3
f 52/3/3 44/3/3 35/3/3
f 52/3/3 45/3/3 44/3/3
f 53/1/3 50/1/3 49/1/3
f 53/3/3 45/3/3 52/3/3
f 53/1/3 48/1/3 45/1/3
f 53/1/3 49/1/3 48/1/3
f 54/2/3 51/2/3 50/2/3
f 54/1/3 50/1/3 53/1/3
f 55/1/3 39/1/3 51/1/3
f 55/2/3 51/2/3 54/2/3
f 56/1/3 39/1/3 55/1/3
f 57/4/4 58/4/4 61/4/4
f 58/3/4 59/3/4 62/3/4
f 61/4/4 58/4/4 62/4/4
f 61/3/4 62/3/4 63/3/4
f 62/3/4 59/3/4 64/3/4
f 63/3/4 62/3/4 64/3/4
f 63/4/4 64/4/4 65/4/4
f 64/3/4 59/3/4 66/3/4
f 65/4/4 64/4/4 66/4/4
f 59/1/4 60/1/4 67/1/4
f 66/3/4 59/3/4 67/3/4
f 65/3/4 66/3/4 68/3/4
f 66/4/4 67/4/4 69/4/4
f 68/3/4 66/3/4 69/3/4
f 67/1/4 60/1/4 70/1/4
f 69/4/4 67/4/4 70/4/4
f 70/1/4 60/1/4 71/1/4
f 74/3/5 73/3/5 72/3/5
f 75/3/5 73/3/5 74/3/5
f 76/3/5 74/3/5 72/3/5
f 76/4/5 75/4/5 74/4/5
f 77/4/5 75/4/5 76/4/5
f 78/3/5 76/3/5 72/3/5
f 78/3/5 77/3/5 76/3/5
f 79/3/5 77/3/5 78/3/5
f 80/3/5 77/3/5 79/3/5
f 81/3/5 77/3/5 80/3/5
f 82/4/5 79/4/5 78/4/5
f 83/3/5 80/3/5 79/3/5
f 83/4/5 79/4/5 82/4/5
f 84/4/5 81/4/5 80/4/5
f 84/3/5 80/3/5 83/3/5
f 85/3/5 77/3/5 81/3/5
f 85/4/5 81/4/5 84/4/5
f 86/3/5 77/3/5 85/3/5
f 87/1/6 88/1/6 89/1/6
f 89/1/6 88/1/6 90/1/6
