# MagicaVoxel @ Ephtracy

# group
o 

# material
mtllib Robot-2.mtl
usemtl palette

# normals
vn -1 0 0
vn 1 0 0
vn 0 0 1
vn 0 0 -1
vn 0 -1 0
vn 0 1 0

# texcoords
vt 0.978516 0.5
vt 0.982422 0.5
vt 0.986328 0.5
vt 0.990234 0.5
vt 0.994141 0.5

# verts
v -0.2 0 0.2
v -0.2 0 -0.2
v -0.2 0.1 0.2
v -0.2 0.1 0.1
v -0.2 0.2 0.2
v -0.2 0.2 0.1
v -0.2 0.4 0.2
v -0.2 0.4 0.1
v -0.2 0.5 0.2
v -0.2 0.5 0.1
v -0.2 0.6 0.2
v -0.2 0.6 0.1
v -0.2 0.7 0.2
v -0.2 0.7 0.1
v -0.2 0.8 0.2
v -0.2 0.8 0.1
v -0.2 1 0.2
v -0.2 1 -0.2
v 0.2 0 0.2
v 0.2 0 -0.2
v 0.2 0.1 0.2
v 0.2 0.1 0.1
v 0.2 0.2 0.2
v 0.2 0.2 0.1
v 0.2 0.4 0.2
v 0.2 0.4 0.1
v 0.2 0.5 0.2
v 0.2 0.5 0.1
v 0.2 0.6 0.2
v 0.2 0.6 0.1
v 0.2 0.8 0.2
v 0.2 0.8 0.1
v 0.2 1 0.2
v 0.2 1 -0.2
v -0.2 0 0.2
v -0.2 0.1 0.2
v -0.2 0.2 0.2
v -0.2 0.4 0.2
v -0.2 0.5 0.2
v -0.2 0.6 0.2
v -0.2 0.7 0.2
v -0.2 0.8 0.2
v -0.2 1 0.2
v -0.1 0.5 0.2
v -0.1 0.6 0.2
v -0.1 0.7 0.2
v 0 0.6 0.2
v 0 0.7 0.2
v 0.1 0.5 0.2
v 0.1 0.6 0.2
v 0.1 0.7 0.2
v 0.2 0 0.2
v 0.2 0.1 0.2
v 0.2 0.2 0.2
v 0.2 0.4 0.2
v 0.2 0.5 0.2
v 0.2 0.6 0.2
v 0.2 0.8 0.2
v 0.2 1 0.2
v -0.2 0 -0.2
v -0.2 1 -0.2
v 0.2 0 -0.2
v 0.2 1 -0.2
v -0.2 0 0.2
v 0.2 0 0.2
v -0.2 0 -0.2
v 0.2 0 -0.2
v -0.2 1 0.2
v 0.2 1 0.2
v -0.2 1 -0.2
v 0.2 1 -0.2

# faces
f 3/1/1 2/1/1 1/1/1
f 4/1/1 2/1/1 3/1/1
f 5/2/1 4/2/1 3/2/1
f 6/1/1 2/1/1 4/1/1
f 6/2/1 4/2/1 5/2/1
f 7/1/1 6/1/1 5/1/1
f 8/1/1 2/1/1 6/1/1
f 8/1/1 6/1/1 7/1/1
f 9/2/1 8/2/1 7/2/1
f 10/1/1 2/1/1 8/1/1
f 10/2/1 8/2/1 9/2/1
f 11/4/1 10/4/1 9/4/1
f 12/1/1 2/1/1 10/1/1
f 12/4/1 10/4/1 11/4/1
f 13/3/1 12/3/1 11/3/1
f 14/1/1 2/1/1 12/1/1
f 14/3/1 12/3/1 13/3/1
f 15/2/1 14/2/1 13/2/1
f 16/1/1 2/1/1 14/1/1
f 16/2/1 14/2/1 15/2/1
f 17/1/1 16/1/1 15/1/1
f 18/1/1 2/1/1 16/1/1
f 18/1/1 16/1/1 17/1/1
f 19/1/2 20/1/2 21/1/2
f 21/1/2 20/1/2 22/1/2
f 21/2/2 22/2/2 23/2/2
f 22/1/2 20/1/2 24/1/2
f 23/2/2 22/2/2 24/2/2
f 23/1/2 24/1/2 25/1/2
f 24/1/2 20/1/2 26/1/2
f 25/1/2 24/1/2 26/1/2
f 25/2/2 26/2/2 27/2/2
f 26/1/2 20/1/2 28/1/2
f 27/2/2 26/2/2 28/2/2
f 27/5/2 28/5/2 29/5/2
f 28/1/2 20/1/2 30/1/2
f 29/5/2 28/5/2 30/5/2
f 29/2/2 30/2/2 31/2/2
f 30/1/2 20/1/2 32/1/2
f 31/2/2 30/2/2 32/2/2
f 31/1/2 32/1/2 33/1/2
f 32/1/2 20/1/2 34/1/2
f 33/1/2 32/1/2 34/1/2
f 44/2/3 39/2/3 38/2/3
f 44/4/3 40/4/3 39/4/3
f 45/3/3 41/3/3 40/3/3
f 45/4/3 40/4/3 44/4/3
f 46/2/3 42/2/3 41/2/3
f 46/3/3 41/3/3 45/3/3
f 47/2/3 45/2/3 44/2/3
f 47/2/3 46/2/3 45/2/3
f 48/2/3 42/2/3 46/2/3
f 48/2/3 46/2/3 47/2/3
f 49/2/3 47/2/3 44/2/3
f 49/2/3 44/2/3 38/2/3
f 50/3/3 48/3/3 47/3/3
f 50/2/3 47/2/3 49/2/3
f 51/2/3 42/2/3 48/2/3
f 51/3/3 48/3/3 50/3/3
f 52/1/3 36/1/3 35/1/3
f 53/2/3 37/2/3 36/2/3
f 53/1/3 36/1/3 52/1/3
f 54/1/3 38/1/3 37/1/3
f 54/2/3 37/2/3 53/2/3
f 55/2/3 49/2/3 38/2/3
f 55/1/3 38/1/3 54/1/3
f 56/5/3 50/5/3 49/5/3
f 56/2/3 49/2/3 55/2/3
f 57/2/3 51/2/3 50/2/3
f 57/5/3 50/5/3 56/5/3
f 58/2/3 42/2/3 51/2/3
f 58/2/3 51/2/3 57/2/3
f 58/1/3 43/1/3 42/1/3
f 59/1/3 43/1/3 58/1/3
f 60/1/4 61/1/4 62/1/4
f 62/1/4 61/1/4 63/1/4
f 66/1/5 65/1/5 64/1/5
f 67/1/5 65/1/5 66/1/5
f 68/1/6 69/1/6 70/1/6
f 70/1/6 69/1/6 71/1/6
