# MagicaVoxel @ Ephtracy

# group
o 

# material
mtllib Robot-3.mtl
usemtl palette

# normals
vn -1 0 0
vn 1 0 0
vn 0 0 1
vn 0 0 -1
vn 0 -1 0
vn 0 1 0

# texcoords
vt 0.970703 0.5
vt 0.974609 0.5
vt 0.978516 0.5
vt 0.986328 0.5
vt 0.990234 0.5

# verts
v -0.5 0.7 0
v -0.5 0.7 -0.1
v -0.5 0.8 0
v -0.5 0.8 -0.1
v -0.3 0 0.3
v -0.3 0 -0.3
v -0.3 0.6 0.3
v -0.3 0.6 -0.3
v -0.2 0.6 0
v -0.2 0.6 -0.1
v -0.2 0.7 0
v -0.2 0.7 -0.1
v 0.1 0.6 0
v 0.1 0.6 -0.1
v 0.1 0.9 0
v 0.1 0.9 -0.1
v 0.1 1 0
v 0.1 1 -0.1
v -0.2 0.7 0
v -0.2 0.7 -0.1
v -0.2 0.8 0
v -0.2 0.8 -0.1
v -0.1 0.6 0
v -0.1 0.6 -0.1
v -0.1 0.7 0
v -0.1 0.7 -0.1
v 0.2 0.6 0
v 0.2 0.6 -0.1
v 0.2 0.9 0
v 0.2 0.9 -0.1
v 0.2 1 0
v 0.2 1 -0.1
v 0.3 0 0.3
v 0.3 0 -0.3
v 0.3 0.6 0.3
v 0.3 0.6 -0.3
v -0.3 0 0.3
v -0.3 0.6 0.3
v -0.2 0.3 0.3
v -0.2 0.4 0.3
v -0.1 0.1 0.3
v -0.1 0.2 0.3
v -0.1 0.3 0.3
v -0.1 0.4 0.3
v 0.1 0.1 0.3
v 0.1 0.2 0.3
v 0.1 0.3 0.3
v 0.1 0.4 0.3
v 0.2 0.3 0.3
v 0.2 0.4 0.3
v 0.3 0 0.3
v 0.3 0.6 0.3
v -0.5 0.7 0
v -0.5 0.8 0
v -0.4 0.7 0
v -0.4 0.8 0
v -0.2 0.6 0
v -0.2 0.7 0
v -0.2 0.8 0
v -0.1 0.6 0
v -0.1 0.7 0
v 0.1 0.6 0
v 0.1 0.9 0
v 0.1 1 0
v 0.2 0.6 0
v 0.2 0.9 0
v 0.2 1 0
v -0.5 0.7 -0.1
v -0.5 0.8 -0.1
v -0.4 0.7 -0.1
v -0.4 0.8 -0.1
v -0.2 0.6 -0.1
v -0.2 0.7 -0.1
v -0.2 0.8 -0.1
v -0.1 0.6 -0.1
v -0.1 0.7 -0.1
v 0.1 0.6 -0.1
v 0.1 0.9 -0.1
v 0.1 1 -0.1
v 0.2 0.6 -0.1
v 0.2 0.9 -0.1
v 0.2 1 -0.1
v -0.3 0 -0.3
v -0.3 0.6 -0.3
v 0.3 0 -0.3
v 0.3 0.6 -0.3
v -0.3 0 0.3
v 0.3 0 0.3
v -0.3 0 -0.3
v 0.3 0 -0.3
v -0.5 0.7 0
v -0.4 0.7 0
v -0.2 0.7 0
v -0.5 0.7 -0.1
v -0.4 0.7 -0.1
v -0.2 0.7 -0.1
v -0.3 0.6 0.3
v 0.3 0.6 0.3
v -0.2 0.6 0
v -0.1 0.6 0
v 0.1 0.6 0
v 0.2 0.6 0
v -0.2 0.6 -0.1
v -0.1 0.6 -0.1
v 0.1 0.6 -0.1
v 0.2 0.6 -0.1
v -0.3 0.6 -0.3
v 0.3 0.6 -0.3
v -0.2 0.7 0
v -0.1 0.7 0
v -0.2 0.7 -0.1
v -0.1 0.7 -0.1
v -0.5 0.8 0
v -0.4 0.8 0
v -0.2 0.8 0
v -0.5 0.8 -0.1
v -0.4 0.8 -0.1
v -0.2 0.8 -0.1
v 0.1 1 0
v 0.2 1 0
v 0.1 1 -0.1
v 0.2 1 -0.1

# faces
f 3/4/1 2/4/1 1/4/1
f 4/4/1 2/4/1 3/4/1
f 7/3/1 6/3/1 5/3/1
f 8/3/1 6/3/1 7/3/1
f 11/3/1 10/3/1 9/3/1
f 12/3/1 10/3/1 11/3/1
f 15/3/1 14/3/1 13/3/1
f 16/3/1 14/3/1 15/3/1
f 17/4/1 16/4/1 15/4/1
f 18/4/1 16/4/1 17/4/1
f 19/3/2 20/3/2 21/3/2
f 21/3/2 20/3/2 22/3/2
f 23/3/2 24/3/2 25/3/2
f 25/3/2 24/3/2 26/3/2
f 27/3/2 28/3/2 29/3/2
f 29/3/2 28/3/2 30/3/2
f 29/4/2 30/4/2 31/4/2
f 31/4/2 30/4/2 32/4/2
f 33/3/2 34/3/2 35/3/2
f 35/3/2 34/3/2 36/3/2
f 39/3/3 38/3/3 37/3/3
f 40/3/3 38/3/3 39/3/3
f 41/3/3 39/3/3 37/3/3
f 42/3/3 39/3/3 41/3/3
f 43/5/3 40/5/3 39/5/3
f 43/3/3 39/3/3 42/3/3
f 44/3/3 38/3/3 40/3/3
f 44/5/3 40/5/3 43/5/3
f 45/2/3 42/2/3 41/2/3
f 45/3/3 41/3/3 37/3/3
f 46/3/3 43/3/3 42/3/3
f 46/2/3 42/2/3 45/2/3
f 46/3/3 44/3/3 43/3/3
f 47/3/3 44/3/3 46/3/3
f 48/3/3 38/3/3 44/3/3
f 48/3/3 44/3/3 47/3/3
f 49/3/3 47/3/3 46/3/3
f 49/3/3 46/3/3 45/3/3
f 49/5/3 48/5/3 47/5/3
f 50/3/3 38/3/3 48/3/3
f 50/5/3 48/5/3 49/5/3
f 51/3/3 45/3/3 37/3/3
f 51/3/3 49/3/3 45/3/3
f 51/3/3 50/3/3 49/3/3
f 52/3/3 38/3/3 50/3/3
f 52/3/3 50/3/3 51/3/3
f 55/4/3 54/4/3 53/4/3
f 56/4/3 54/4/3 55/4/3
f 58/3/3 56/3/3 55/3/3
f 59/3/3 56/3/3 58/3/3
f 60/3/3 58/3/3 57/3/3
f 61/3/3 58/3/3 60/3/3
f 65/3/3 63/3/3 62/3/3
f 66/4/3 64/4/3 63/4/3
f 66/3/3 63/3/3 65/3/3
f 67/4/3 64/4/3 66/4/3
f 68/4/4 69/4/4 70/4/4
f 70/4/4 69/4/4 71/4/4
f 70/3/4 71/3/4 73/3/4
f 73/3/4 71/3/4 74/3/4
f 72/3/4 73/3/4 75/3/4
f 75/3/4 73/3/4 76/3/4
f 77/3/4 78/3/4 80/3/4
f 78/4/4 79/4/4 81/4/4
f 80/3/4 78/3/4 81/3/4
f 81/4/4 79/4/4 82/4/4
f 83/3/4 84/3/4 85/3/4
f 85/3/4 84/3/4 86/3/4
f 89/3/5 88/3/5 87/3/5
f 90/3/5 88/3/5 89/3/5
f 94/4/5 92/4/5 91/4/5
f 95/3/5 93/3/5 92/3/5
f 95/4/5 92/4/5 94/4/5
f 96/3/5 93/3/5 95/3/5
f 97/3/6 98/3/6 99/3/6
f 99/3/6 98/3/6 100/3/6
f 100/3/6 98/3/6 101/3/6
f 101/3/6 98/3/6 102/3/6
f 97/3/6 99/3/6 103/3/6
f 100/3/6 101/3/6 104/3/6
f 104/3/6 101/3/6 105/3/6
f 102/3/6 98/3/6 106/3/6
f 104/3/6 105/3/6 107/3/6
f 105/3/6 106/3/6 107/3/6
f 97/3/6 103/3/6 107/3/6
f 103/3/6 104/3/6 107/3/6
f 106/3/6 98/3/6 108/3/6
f 107/3/6 106/3/6 108/3/6
f 109/3/6 110/3/6 111/3/6
f 111/3/6 110/3/6 112/3/6
f 113/4/6 114/4/6 116/4/6
f 114/3/6 115/3/6 117/3/6
f 116/4/6 114/4/6 117/4/6
f 117/3/6 115/3/6 118/3/6
f 119/4/6 120/4/6 121/4/6
f 121/4/6 120/4/6 122/4/6
