# MagicaVoxel @ Ephtracy

# group
o 

# material
mtllib TunnelRoad2.mtl
usemtl palette

# normals
vn -1 0 0
vn 1 0 0
vn 0 0 1
vn 0 0 -1
vn 0 -1 0
vn 0 1 0

# texcoords
vt 0.970703 0.5
vt 0.974609 0.5
vt 0.978516 0.5

# verts
v -12.5 0 5
v -12.5 0 4
v -12.5 0 -4
v -12.5 0 -5
v -12.5 0.2 4
v -12.5 0.2 -4
v -12.5 0.5 5
v -12.5 0.5 4
v -12.5 0.5 -4
v -12.5 0.5 -5
v -4.5 0 6
v -4.5 0 5
v -4.5 0 -5
v -4.5 0 -6
v -4.5 0.5 6
v -4.5 0.5 5
v -4.5 0.5 -5
v -4.5 0.5 -6
v 4 0.2 6
v 4 0.2 4.4
v 4 0.2 -4.4
v 4 0.2 -6
v 4 0.5 6
v 4 0.5 4.4
v 4 0.5 -4.4
v 4 0.5 -6
v 4.1 0.2 4.4
v 4.1 0.2 4.2
v 4.1 0.2 -4.2
v 4.1 0.2 -4.4
v 4.1 0.5 4.4
v 4.1 0.5 4.2
v 4.1 0.5 -4.2
v 4.1 0.5 -4.4
v 4.2 0.2 4.2
v 4.2 0.2 4.1
v 4.2 0.2 -4.1
v 4.2 0.2 -4.2
v 4.2 0.5 4.2
v 4.2 0.5 4.1
v 4.2 0.5 -4.1
v 4.2 0.5 -4.2
v 4.4 0.2 4.1
v 4.4 0.2 4
v 4.4 0.2 -4
v 4.4 0.2 -4.1
v 4.4 0.5 4.1
v 4.4 0.5 4
v 4.4 0.5 -4
v 4.4 0.5 -4.1
v -4.4 0.2 4.1
v -4.4 0.2 4
v -4.4 0.2 -4
v -4.4 0.2 -4.1
v -4.4 0.5 4.1
v -4.4 0.5 4
v -4.4 0.5 -4
v -4.4 0.5 -4.1
v -4.2 0.2 4.2
v -4.2 0.2 4.1
v -4.2 0.2 -4.1
v -4.2 0.2 -4.2
v -4.2 0.5 4.2
v -4.2 0.5 4.1
v -4.2 0.5 -4.1
v -4.2 0.5 -4.2
v -4.1 0.2 4.4
v -4.1 0.2 4.2
v -4.1 0.2 -4.2
v -4.1 0.2 -4.4
v -4.1 0.5 4.4
v -4.1 0.5 4.2
v -4.1 0.5 -4.2
v -4.1 0.5 -4.4
v -4 0.2 6
v -4 0.2 4.4
v -4 0.2 -4.4
v -4 0.2 -6
v -4 0.5 6
v -4 0.5 4.4
v -4 0.5 -4.4
v -4 0.5 -6
v 4.5 0 6
v 4.5 0 5
v 4.5 0 -5
v 4.5 0 -6
v 4.5 0.5 6
v 4.5 0.5 5
v 4.5 0.5 -5
v 4.5 0.5 -6
v 12.5 0 5
v 12.5 0 4
v 12.5 0 -4
v 12.5 0 -5
v 12.5 0.2 4
v 12.5 0.2 -4
v 12.5 0.5 5
v 12.5 0.5 4
v 12.5 0.5 -4
v 12.5 0.5 -5
v -4.5 0 6
v -4.5 0.5 6
v -4 0 6
v -4 0.2 6
v -4 0.5 6
v 4 0 6
v 4 0.2 6
v 4 0.5 6
v 4.5 0 6
v 4.5 0.5 6
v -12.5 0 5
v -12.5 0.5 5
v -4.5 0 5
v -4.5 0.5 5
v 4.5 0 5
v 4.5 0.5 5
v 12.5 0 5
v 12.5 0.5 5
v -12.5 0.2 -4
v -12.5 0.5 -4
v -4.4 0.2 -4
v -4.4 0.5 -4
v 4.4 0.2 -4
v 4.4 0.5 -4
v 12.5 0.2 -4
v 12.5 0.5 -4
v -4.4 0.2 -4.1
v -4.4 0.5 -4.1
v -4.2 0.2 -4.1
v -4.2 0.5 -4.1
v 4.2 0.2 -4.1
v 4.2 0.5 -4.1
v 4.4 0.2 -4.1
v 4.4 0.5 -4.1
v -4.2 0.2 -4.2
v -4.2 0.5 -4.2
v -4.1 0.2 -4.2
v -4.1 0.5 -4.2
v 4.1 0.2 -4.2
v 4.1 0.5 -4.2
v 4.2 0.2 -4.2
v 4.2 0.5 -4.2
v -4.1 0.2 -4.4
v -4.1 0.5 -4.4
v -4 0.2 -4.4
v -4 0.5 -4.4
v 4 0.2 -4.4
v 4 0.5 -4.4
v 4.1 0.2 -4.4
v 4.1 0.5 -4.4
v -4.1 0.2 4.4
v -4.1 0.5 4.4
v -4 0.2 4.4
v -4 0.5 4.4
v 4 0.2 4.4
v 4 0.5 4.4
v 4.1 0.2 4.4
v 4.1 0.5 4.4
v -4.2 0.2 4.2
v -4.2 0.5 4.2
v -4.1 0.2 4.2
v -4.1 0.5 4.2
v 4.1 0.2 4.2
v 4.1 0.5 4.2
v 4.2 0.2 4.2
v 4.2 0.5 4.2
v -4.4 0.2 4.1
v -4.4 0.5 4.1
v -4.2 0.2 4.1
v -4.2 0.5 4.1
v 4.2 0.2 4.1
v 4.2 0.5 4.1
v 4.4 0.2 4.1
v 4.4 0.5 4.1
v -12.5 0.2 4
v -12.5 0.5 4
v -4.4 0.2 4
v -4.4 0.5 4
v 4.4 0.2 4
v 4.4 0.5 4
v 12.5 0.2 4
v 12.5 0.5 4
v -12.5 0 -5
v -12.5 0.5 -5
v -4.5 0 -5
v -4.5 0.5 -5
v 4.5 0 -5
v 4.5 0.5 -5
v 12.5 0 -5
v 12.5 0.5 -5
v -4.5 0 -6
v -4.5 0.5 -6
v -4 0 -6
v -4 0.2 -6
v -4 0.5 -6
v -0.1 0.1 -6
v -0.1 0.2 -6
v 0.0999994 0.1 -6
v 0.0999994 0.2 -6
v 4 0 -6
v 4 0.2 -6
v 4 0.5 -6
v 4.5 0 -6
v 4.5 0.5 -6
v -4.5 0 6
v -4 0 6
v 4 0 6
v 4.5 0 6
v -12.5 0 5
v -4.5 0 5
v 4.5 0 5
v 12.5 0 5
v -12.5 0 4
v -4.5 0 4
v 4.5 0 4
v 12.5 0 4
v -12.5 0 -4
v -4.5 0 -4
v 4.5 0 -4
v 12.5 0 -4
v -12.5 0 -5
v -4.5 0 -5
v 4.5 0 -5
v 12.5 0 -5
v -4.5 0 -6
v -4 0 -6
v 4 0 -6
v 4.5 0 -6
v -4 0.2 6
v 4 0.2 6
v -0.1 0.2 5
v 0.0999994 0.2 5
v -4.1 0.2 4.4
v -4 0.2 4.4
v 4 0.2 4.4
v 4.1 0.2 4.4
v -4.2 0.2 4.2
v -4.1 0.2 4.2
v 4.1 0.2 4.2
v 4.2 0.2 4.2
v -4.4 0.2 4.1
v -4.2 0.2 4.1
v 4.2 0.2 4.1
v 4.4 0.2 4.1
v -12.5 0.2 4
v -4.4 0.2 4
v -0.1 0.2 4
v 0.0999994 0.2 4
v 4.4 0.2 4
v 12.5 0.2 4
v -12.5 0.2 -4
v -4.4 0.2 -4
v 4.4 0.2 -4
v 12.5 0.2 -4
v -4.4 0.2 -4.1
v -4.2 0.2 -4.1
v 4.2 0.2 -4.1
v 4.4 0.2 -4.1
v -4.2 0.2 -4.2
v -4.1 0.2 -4.2
v 4.1 0.2 -4.2
v 4.2 0.2 -4.2
v -4.1 0.2 -4.4
v -4 0.2 -4.4
v 4 0.2 -4.4
v 4.1 0.2 -4.4
v -0.1 0.2 -5
v 0.0999994 0.2 -5
v -4 0.2 -6
v -0.1 0.2 -6
v 0.0999994 0.2 -6
v 4 0.2 -6
v -4.5 0.5 6
v -4 0.5 6
v 4 0.5 6
v 4.5 0.5 6
v -12.5 0.5 5
v -4.5 0.5 5
v 4.5 0.5 5
v 12.5 0.5 5
v -4.1 0.5 4.4
v -4 0.5 4.4
v 4 0.5 4.4
v 4.1 0.5 4.4
v -4.2 0.5 4.2
v -4.1 0.5 4.2
v 4.1 0.5 4.2
v 4.2 0.5 4.2
v -4.4 0.5 4.1
v -4.2 0.5 4.1
v 4.2 0.5 4.1
v 4.4 0.5 4.1
v -12.5 0.5 4
v -4.4 0.5 4
v 4.4 0.5 4
v 12.5 0.5 4
v -12.5 0.5 -4
v -4.4 0.5 -4
v 4.4 0.5 -4
v 12.5 0.5 -4
v -4.4 0.5 -4.1
v -4.2 0.5 -4.1
v 4.2 0.5 -4.1
v 4.4 0.5 -4.1
v -4.2 0.5 -4.2
v -4.1 0.5 -4.2
v 4.1 0.5 -4.2
v 4.2 0.5 -4.2
v -4.1 0.5 -4.4
v -4 0.5 -4.4
v 4 0.5 -4.4
v 4.1 0.5 -4.4
v -12.5 0.5 -5
v -4.5 0.5 -5
v 4.5 0.5 -5
v 12.5 0.5 -5
v -4.5 0.5 -6
v -4 0.5 -6
v 4 0.5 -6
v 4.5 0.5 -6

# faces
f 5/3/1 2/3/1 1/3/1
f 5/1/1 3/1/1 2/1/1
f 6/3/1 4/3/1 3/3/1
f 6/1/1 3/1/1 5/1/1
f 7/3/1 5/3/1 1/3/1
f 8/3/1 5/3/1 7/3/1
f 9/3/1 4/3/1 6/3/1
f 10/3/1 4/3/1 9/3/1
f 15/3/1 12/3/1 11/3/1
f 16/3/1 12/3/1 15/3/1
f 17/3/1 14/3/1 13/3/1
f 18/3/1 14/3/1 17/3/1
f 23/3/1 20/3/1 19/3/1
f 24/3/1 20/3/1 23/3/1
f 25/3/1 22/3/1 21/3/1
f 26/3/1 22/3/1 25/3/1
f 31/3/1 28/3/1 27/3/1
f 32/3/1 28/3/1 31/3/1
f 33/3/1 30/3/1 29/3/1
f 34/3/1 30/3/1 33/3/1
f 39/3/1 36/3/1 35/3/1
f 40/3/1 36/3/1 39/3/1
f 41/3/1 38/3/1 37/3/1
f 42/3/1 38/3/1 41/3/1
f 47/3/1 44/3/1 43/3/1
f 48/3/1 44/3/1 47/3/1
f 49/3/1 46/3/1 45/3/1
f 50/3/1 46/3/1 49/3/1
f 51/3/2 52/3/2 55/3/2
f 55/3/2 52/3/2 56/3/2
f 53/3/2 54/3/2 57/3/2
f 57/3/2 54/3/2 58/3/2
f 59/3/2 60/3/2 63/3/2
f 63/3/2 60/3/2 64/3/2
f 61/3/2 62/3/2 65/3/2
f 65/3/2 62/3/2 66/3/2
f 67/3/2 68/3/2 71/3/2
f 71/3/2 68/3/2 72/3/2
f 69/3/2 70/3/2 73/3/2
f 73/3/2 70/3/2 74/3/2
f 75/3/2 76/3/2 79/3/2
f 79/3/2 76/3/2 80/3/2
f 77/3/2 78/3/2 81/3/2
f 81/3/2 78/3/2 82/3/2
f 83/3/2 84/3/2 87/3/2
f 87/3/2 84/3/2 88/3/2
f 85/3/2 86/3/2 89/3/2
f 89/3/2 86/3/2 90/3/2
f 91/3/2 92/3/2 95/3/2
f 92/1/2 93/1/2 95/1/2
f 93/3/2 94/3/2 96/3/2
f 95/1/2 93/1/2 96/1/2
f 91/3/2 95/3/2 97/3/2
f 97/3/2 95/3/2 98/3/2
f 96/3/2 94/3/2 99/3/2
f 99/3/2 94/3/2 100/3/2
f 103/3/3 102/3/3 101/3/3
f 104/3/3 102/3/3 103/3/3
f 105/3/3 102/3/3 104/3/3
f 106/1/3 104/1/3 103/1/3
f 107/1/3 104/1/3 106/1/3
f 109/3/3 107/3/3 106/3/3
f 109/3/3 108/3/3 107/3/3
f 110/3/3 108/3/3 109/3/3
f 113/3/3 112/3/3 111/3/3
f 114/3/3 112/3/3 113/3/3
f 117/3/3 116/3/3 115/3/3
f 118/3/3 116/3/3 117/3/3
f 121/3/3 120/3/3 119/3/3
f 122/3/3 120/3/3 121/3/3
f 125/3/3 124/3/3 123/3/3
f 126/3/3 124/3/3 125/3/3
f 129/3/3 128/3/3 127/3/3
f 130/3/3 128/3/3 129/3/3
f 133/3/3 132/3/3 131/3/3
f 134/3/3 132/3/3 133/3/3
f 137/3/3 136/3/3 135/3/3
f 138/3/3 136/3/3 137/3/3
f 141/3/3 140/3/3 139/3/3
f 142/3/3 140/3/3 141/3/3
f 145/3/3 144/3/3 143/3/3
f 146/3/3 144/3/3 145/3/3
f 149/3/3 148/3/3 147/3/3
f 150/3/3 148/3/3 149/3/3
f 151/3/4 152/3/4 153/3/4
f 153/3/4 152/3/4 154/3/4
f 155/3/4 156/3/4 157/3/4
f 157/3/4 156/3/4 158/3/4
f 159/3/4 160/3/4 161/3/4
f 161/3/4 160/3/4 162/3/4
f 163/3/4 164/3/4 165/3/4
f 165/3/4 164/3/4 166/3/4
f 167/3/4 168/3/4 169/3/4
f 169/3/4 168/3/4 170/3/4
f 171/3/4 172/3/4 173/3/4
f 173/3/4 172/3/4 174/3/4
f 175/3/4 176/3/4 177/3/4
f 177/3/4 176/3/4 178/3/4
f 179/3/4 180/3/4 181/3/4
f 181/3/4 180/3/4 182/3/4
f 183/3/4 184/3/4 185/3/4
f 185/3/4 184/3/4 186/3/4
f 187/3/4 188/3/4 189/3/4
f 189/3/4 188/3/4 190/3/4
f 191/3/4 192/3/4 193/3/4
f 193/3/4 192/3/4 194/3/4
f 194/3/4 192/3/4 195/3/4
f 193/1/4 194/1/4 196/1/4
f 196/1/4 194/1/4 197/1/4
f 193/1/4 196/1/4 198/1/4
f 196/2/4 197/2/4 198/2/4
f 198/2/4 197/2/4 199/2/4
f 193/1/4 198/1/4 200/1/4
f 198/1/4 199/1/4 200/1/4
f 200/1/4 199/1/4 201/1/4
f 200/3/4 201/3/4 203/3/4
f 201/3/4 202/3/4 203/3/4
f 203/3/4 202/3/4 204/3/4
f 210/3/5 206/3/5 205/3/5
f 211/3/5 208/3/5 207/3/5
f 213/3/5 210/3/5 209/3/5
f 214/3/5 206/3/5 210/3/5
f 214/3/5 210/3/5 213/3/5
f 215/3/5 212/3/5 211/3/5
f 215/3/5 211/3/5 207/3/5
f 216/3/5 212/3/5 215/3/5
f 217/1/5 214/1/5 213/1/5
f 218/3/5 206/3/5 214/3/5
f 218/1/5 214/1/5 217/1/5
f 219/3/5 215/3/5 207/3/5
f 219/1/5 216/1/5 215/1/5
f 220/1/5 216/1/5 219/1/5
f 221/3/5 218/3/5 217/3/5
f 222/3/5 206/3/5 218/3/5
f 222/3/5 218/3/5 221/3/5
f 223/3/5 219/3/5 207/3/5
f 223/3/5 220/3/5 219/3/5
f 224/3/5 220/3/5 223/3/5
f 225/3/5 206/3/5 222/3/5
f 226/1/5 207/1/5 206/1/5
f 226/3/5 206/3/5 225/3/5
f 227/3/5 223/3/5 207/3/5
f 227/1/5 207/1/5 226/1/5
f 228/3/5 223/3/5 227/3/5
f 229/1/6 230/1/6 231/1/6
f 231/1/6 230/1/6 232/1/6
f 229/1/6 231/1/6 234/1/6
f 232/1/6 230/1/6 235/1/6
f 233/1/6 234/1/6 238/1/6
f 235/1/6 236/1/6 239/1/6
f 237/1/6 238/1/6 242/1/6
f 239/1/6 240/1/6 243/1/6
f 241/1/6 242/1/6 246/1/6
f 231/2/6 232/2/6 247/2/6
f 234/1/6 231/1/6 247/1/6
f 246/1/6 242/1/6 247/1/6
f 238/1/6 234/1/6 247/1/6
f 242/1/6 238/1/6 247/1/6
f 243/1/6 244/1/6 248/1/6
f 247/2/6 232/2/6 248/2/6
f 232/1/6 235/1/6 248/1/6
f 239/1/6 243/1/6 248/1/6
f 235/1/6 239/1/6 248/1/6
f 248/1/6 244/1/6 249/1/6
f 246/1/6 247/1/6 251/1/6
f 249/1/6 250/1/6 251/1/6
f 248/1/6 249/1/6 251/1/6
f 247/1/6 248/1/6 251/1/6
f 245/1/6 246/1/6 251/1/6
f 251/1/6 250/1/6 252/1/6
f 252/1/6 250/1/6 253/1/6
f 253/1/6 250/1/6 254/1/6
f 252/1/6 253/1/6 255/1/6
f 255/1/6 253/1/6 256/1/6
f 256/1/6 253/1/6 257/1/6
f 257/1/6 253/1/6 258/1/6
f 256/1/6 257/1/6 259/1/6
f 259/1/6 257/1/6 260/1/6
f 260/1/6 257/1/6 261/1/6
f 261/1/6 257/1/6 262/1/6
f 260/1/6 261/1/6 263/1/6
f 263/1/6 261/1/6 264/1/6
f 264/1/6 261/1/6 265/1/6
f 265/1/6 261/1/6 266/1/6
f 264/1/6 265/1/6 267/1/6
f 267/1/6 265/1/6 268/1/6
f 264/1/6 267/1/6 269/1/6
f 267/2/6 268/2/6 270/2/6
f 269/1/6 267/1/6 270/1/6
f 268/1/6 265/1/6 271/1/6
f 270/2/6 268/2/6 271/2/6
f 271/1/6 265/1/6 272/1/6
f 273/3/6 274/3/6 278/3/6
f 275/3/6 276/3/6 279/3/6
f 277/3/6 278/3/6 281/3/6
f 278/3/6 274/3/6 281/3/6
f 281/3/6 274/3/6 282/3/6
f 279/3/6 280/3/6 283/3/6
f 275/3/6 279/3/6 283/3/6
f 283/3/6 280/3/6 284/3/6
f 277/3/6 281/3/6 285/3/6
f 285/3/6 281/3/6 286/3/6
f 284/3/6 280/3/6 287/3/6
f 287/3/6 280/3/6 288/3/6
f 277/3/6 285/3/6 289/3/6
f 289/3/6 285/3/6 290/3/6
f 288/3/6 280/3/6 291/3/6
f 291/3/6 280/3/6 292/3/6
f 277/3/6 289/3/6 293/3/6
f 293/3/6 289/3/6 294/3/6
f 292/3/6 280/3/6 295/3/6
f 295/3/6 280/3/6 296/3/6
f 297/3/6 298/3/6 301/3/6
f 299/3/6 300/3/6 304/3/6
f 301/3/6 302/3/6 305/3/6
f 303/3/6 304/3/6 308/3/6
f 305/3/6 306/3/6 309/3/6
f 307/3/6 308/3/6 312/3/6
f 309/3/6 310/3/6 313/3/6
f 297/3/6 301/3/6 313/3/6
f 301/3/6 305/3/6 313/3/6
f 305/3/6 309/3/6 313/3/6
f 313/3/6 310/3/6 314/3/6
f 311/3/6 312/3/6 315/3/6
f 312/3/6 308/3/6 315/3/6
f 304/3/6 300/3/6 315/3/6
f 308/3/6 304/3/6 315/3/6
f 315/3/6 300/3/6 316/3/6
f 314/3/6 310/3/6 317/3/6
f 317/3/6 310/3/6 318/3/6
f 311/3/6 315/3/6 319/3/6
f 319/3/6 315/3/6 320/3/6
