# MagicaVoxel @ Ephtracy

# group
o 

# material
mtllib HumanWorker-2.mtl
usemtl palette

# normals
vn -1 0 0
vn 1 0 0
vn 0 0 1
vn 0 0 -1
vn 0 -1 0
vn 0 1 0

# texcoords
vt 0.970703 0.5
vt 0.982422 0.5
vt 0.986328 0.5

# verts
v -0.3 -0.8 -0.8
v -0.3 -0.8 -1.2
v -0.3 -0.7 -0.8
v -0.3 -0.7 -1.2
v -0.2 -0.9 0.1
v -0.2 -0.9 -0.1
v -0.2 -0.8 0.6
v -0.2 -0.8 0.5
v -0.2 -0.8 -1.2
v -0.2 -0.8 -1.3
v -0.2 -0.7 0.6
v -0.2 -0.7 0.5
v -0.2 -0.7 0.1
v -0.2 -0.7 -0.1
v -0.2 -0.7 -1.2
v -0.2 -0.7 -1.3
v -0.1 -0.8 0.5
v -0.1 -0.8 0.1
v -0.1 -0.8 -0.1
v -0.1 -0.8 -0.7
v -0.1 -0.8 -0.8
v -0.1 -0.7 0.5
v -0.1 -0.7 0.1
v -0.1 -0.7 -0.1
v -0.1 -0.7 -0.7
v -0.1 -0.7 -0.8
v -0.1 0 0.1
v -0.1 0 -0.1
v 0 -0.9 5.96046e-008
v 0 -0.9 -0.1
v 0 -0.8 0.5
v 0 -0.8 0.1
v 0 -0.8 5.96046e-008
v 0 -0.8 -0.1
v 0 -0.8 -0.7
v 0 -0.8 -0.8
v 0 -0.7 0.5
v 0 -0.7 0.1
v 0 -0.7 -0.1
v 0 -0.7 -0.7
v 0 -0.7 -0.8
v 0.1 -0.9 0.1
v 0.1 -0.9 5.96046e-008
v 0.1 -0.8 0.6
v 0.1 -0.8 0.5
v 0.1 -0.8 5.96046e-008
v 0.1 -0.8 -0.1
v 0.1 -0.8 -1.2
v 0.1 -0.8 -1.3
v 0.1 -0.7 0.6
v 0.1 -0.7 0.5
v 0.1 -0.7 -1.2
v 0.1 -0.7 -1.3
v 0.1 0 0.1
v 0.1 0 -0.1
v 0.2 -0.8 -0.8
v 0.2 -0.8 -1.2
v 0.2 -0.7 -0.8
v 0.2 -0.7 -1.2
v -0.2 -0.8 0.6
v -0.2 -0.7 0.6
v 0.1 -0.8 0.6
v 0.1 -0.7 0.6
v -0.2 -0.9 0.1
v -0.2 -0.7 0.1
v -0.1 -0.8 0.1
v -0.1 -0.7 0.1
v -0.1 0 0.1
v 0 -0.8 0.1
v 0 -0.7 0.1
v 0.1 -0.9 0.1
v 0.1 0 0.1
v -0.3 -0.8 -0.8
v -0.3 -0.7 -0.8
v -0.1 -0.8 -0.8
v -0.1 -0.7 -0.8
v 0 -0.8 -0.8
v 0 -0.7 -0.8
v 0.2 -0.8 -0.8
v 0.2 -0.7 -0.8
v -0.2 -0.8 0.5
v -0.2 -0.7 0.5
v -0.1 -0.8 0.5
v -0.1 -0.7 0.5
v 0 -0.8 0.5
v 0 -0.7 0.5
v 0.1 -0.8 0.5
v 0.1 -0.7 0.5
v 0 -0.9 5.96046e-008
v 0 -0.8 5.96046e-008
v 0.1 -0.9 5.96046e-008
v 0.1 -0.8 5.96046e-008
v -0.2 -0.9 -0.1
v -0.2 -0.7 -0.1
v -0.1 -0.8 -0.1
v -0.1 -0.7 -0.1
v -0.1 0 -0.1
v 0 -0.9 -0.1
v 0 -0.8 -0.1
v 0 -0.7 -0.1
v 0.1 -0.8 -0.1
v 0.1 0 -0.1
v -0.3 -0.8 -1.2
v -0.3 -0.7 -1.2
v -0.2 -0.8 -1.2
v -0.2 -0.7 -1.2
v 0.1 -0.8 -1.2
v 0.1 -0.7 -1.2
v 0.2 -0.8 -1.2
v 0.2 -0.7 -1.2
v -0.2 -0.8 -1.3
v -0.2 -0.7 -1.3
v 0.1 -0.8 -1.3
v 0.1 -0.7 -1.3
v -0.2 -0.9 0.1
v 0.1 -0.9 0.1
v 0 -0.9 5.96046e-008
v 0.1 -0.9 5.96046e-008
v -0.2 -0.9 -0.1
v 0 -0.9 -0.1
v -0.2 -0.8 0.6
v 0.1 -0.8 0.6
v -0.2 -0.8 0.5
v -0.1 -0.8 0.5
v 0 -0.8 0.5
v 0.1 -0.8 0.5
v -0.1 -0.8 0.1
v 0 -0.8 0.1
v 0 -0.8 5.96046e-008
v 0.1 -0.8 5.96046e-008
v -0.1 -0.8 -0.1
v 0 -0.8 -0.1
v 0.1 -0.8 -0.1
v -0.1 -0.8 -0.7
v 0 -0.8 -0.7
v -0.3 -0.8 -0.8
v -0.1 -0.8 -0.8
v 0 -0.8 -0.8
v 0.2 -0.8 -0.8
v -0.3 -0.8 -1.2
v -0.2 -0.8 -1.2
v 0.1 -0.8 -1.2
v 0.2 -0.8 -1.2
v -0.2 -0.8 -1.3
v 0.1 -0.8 -1.3
v -0.2 -0.7 0.6
v 0.1 -0.7 0.6
v -0.2 -0.7 0.5
v -0.1 -0.7 0.5
v 0 -0.7 0.5
v 0.1 -0.7 0.5
v -0.2 -0.7 0.1
v -0.1 -0.7 0.1
v 0 -0.7 0.1
v -0.2 -0.7 -0.1
v -0.1 -0.7 -0.1
v 0 -0.7 -0.1
v -0.1 -0.7 -0.7
v 0 -0.7 -0.7
v -0.3 -0.7 -0.8
v -0.1 -0.7 -0.8
v 0 -0.7 -0.8
v 0.2 -0.7 -0.8
v -0.3 -0.7 -1.2
v -0.2 -0.7 -1.2
v 0.1 -0.7 -1.2
v 0.2 -0.7 -1.2
v -0.2 -0.7 -1.3
v 0.1 -0.7 -1.3
v -0.1 0 0.1
v 0.1 0 0.1
v -0.1 0 -0.1
v 0.1 0 -0.1

# faces
f 3/3/1 2/3/1 1/3/1
f 4/3/1 2/3/1 3/3/1
f 11/2/1 8/2/1 7/2/1
f 12/2/1 8/2/1 11/2/1
f 13/1/1 6/1/1 5/1/1
f 14/1/1 6/1/1 13/1/1
f 15/3/1 10/3/1 9/3/1
f 16/3/1 10/3/1 15/3/1
f 22/2/1 18/2/1 17/2/1
f 23/2/1 18/2/1 22/2/1
f 24/2/1 20/2/1 19/2/1
f 25/3/1 21/3/1 20/3/1
f 25/2/1 20/2/1 24/2/1
f 26/3/1 21/3/1 25/3/1
f 27/1/1 24/1/1 23/1/1
f 28/1/1 24/1/1 27/1/1
f 29/1/2 30/1/2 33/1/2
f 33/1/2 30/1/2 34/1/2
f 31/2/2 32/2/2 37/2/2
f 37/2/2 32/2/2 38/2/2
f 34/2/2 35/2/2 39/2/2
f 35/3/2 36/3/2 40/3/2
f 39/2/2 35/2/2 40/2/2
f 40/3/2 36/3/2 41/3/2
f 42/1/2 43/1/2 46/1/2
f 44/2/2 45/2/2 50/2/2
f 50/2/2 45/2/2 51/2/2
f 48/3/2 49/3/2 52/3/2
f 52/3/2 49/3/2 53/3/2
f 42/1/2 46/1/2 54/1/2
f 46/1/2 47/1/2 54/1/2
f 54/1/2 47/1/2 55/1/2
f 56/3/2 57/3/2 58/3/2
f 58/3/2 57/3/2 59/3/2
f 62/2/3 61/2/3 60/2/3
f 63/2/3 61/2/3 62/2/3
f 66/1/3 65/1/3 64/1/3
f 67/1/3 65/1/3 66/1/3
f 69/1/3 66/1/3 64/1/3
f 70/1/3 68/1/3 67/1/3
f 71/1/3 69/1/3 64/1/3
f 71/1/3 70/1/3 69/1/3
f 72/1/3 68/1/3 70/1/3
f 72/1/3 70/1/3 71/1/3
f 75/3/3 74/3/3 73/3/3
f 76/3/3 74/3/3 75/3/3
f 79/3/3 78/3/3 77/3/3
f 80/3/3 78/3/3 79/3/3
f 81/2/4 82/2/4 83/2/4
f 83/2/4 82/2/4 84/2/4
f 85/2/4 86/2/4 87/2/4
f 87/2/4 86/2/4 88/2/4
f 89/1/4 90/1/4 91/1/4
f 91/1/4 90/1/4 92/1/4
f 93/1/4 94/1/4 95/1/4
f 95/1/4 94/1/4 96/1/4
f 93/1/4 95/1/4 98/1/4
f 98/1/4 95/1/4 99/1/4
f 96/1/4 97/1/4 100/1/4
f 99/1/4 100/1/4 101/1/4
f 100/1/4 97/1/4 102/1/4
f 101/1/4 100/1/4 102/1/4
f 103/3/4 104/3/4 105/3/4
f 105/3/4 104/3/4 106/3/4
f 107/3/4 108/3/4 109/3/4
f 109/3/4 108/3/4 110/3/4
f 111/3/4 112/3/4 113/3/4
f 113/3/4 112/3/4 114/3/4
f 117/1/5 116/1/5 115/1/5
f 118/1/5 116/1/5 117/1/5
f 119/1/5 117/1/5 115/1/5
f 120/1/5 117/1/5 119/1/5
f 123/2/5 122/2/5 121/2/5
f 124/2/5 122/2/5 123/2/5
f 125/2/5 122/2/5 124/2/5
f 126/2/5 122/2/5 125/2/5
f 127/2/5 125/2/5 124/2/5
f 128/2/5 125/2/5 127/2/5
f 132/1/5 130/1/5 129/1/5
f 133/1/5 130/1/5 132/1/5
f 134/2/5 132/2/5 131/2/5
f 135/2/5 132/2/5 134/2/5
f 137/3/5 135/3/5 134/3/5
f 138/3/5 135/3/5 137/3/5
f 140/3/5 138/3/5 137/3/5
f 140/3/5 139/3/5 138/3/5
f 140/3/5 137/3/5 136/3/5
f 141/3/5 139/3/5 140/3/5
f 142/3/5 139/3/5 141/3/5
f 143/3/5 139/3/5 142/3/5
f 144/3/5 142/3/5 141/3/5
f 145/3/5 142/3/5 144/3/5
f 146/2/6 147/2/6 148/2/6
f 148/2/6 147/2/6 149/2/6
f 149/2/6 147/2/6 150/2/6
f 150/2/6 147/2/6 151/2/6
f 149/2/6 150/2/6 153/2/6
f 153/2/6 150/2/6 154/2/6
f 152/1/6 153/1/6 155/1/6
f 155/1/6 153/1/6 156/1/6
f 156/2/6 157/2/6 158/2/6
f 158/2/6 157/2/6 159/2/6
f 158/3/6 159/3/6 161/3/6
f 161/3/6 159/3/6 162/3/6
f 161/3/6 162/3/6 164/3/6
f 162/3/6 163/3/6 164/3/6
f 160/3/6 161/3/6 164/3/6
f 164/3/6 163/3/6 165/3/6
f 165/3/6 163/3/6 166/3/6
f 166/3/6 163/3/6 167/3/6
f 165/3/6 166/3/6 168/3/6
f 168/3/6 166/3/6 169/3/6
f 170/1/6 171/1/6 172/1/6
f 172/1/6 171/1/6 173/1/6
