# MagicaVoxel @ Ephtracy

# group
o 

# material
mtllib RoadSimple.mtl
usemtl palette

# normals
vn -1 0 0
vn 1 0 0
vn 0 0 1
vn 0 0 -1
vn 0 -1 0
vn 0 1 0

# texcoords
vt 0.970703 0.5
vt 0.974609 0.5
vt 0.978516 0.5

# verts
v -4.5 0 6
v -4.5 0 -6
v -4.5 0.5 6
v -4.5 0.5 -6
v 4 0.2 6
v 4 0.2 -6
v 4 0.5 6
v 4 0.5 -6
v -4 0.2 6
v -4 0.2 -6
v -4 0.5 6
v -4 0.5 -6
v 4.5 0 6
v 4.5 0 -6
v 4.5 0.5 6
v 4.5 0.5 -6
v -4.5 0 6
v -4.5 0.5 6
v -4 0 6
v -4 0.2 6
v -4 0.5 6
v -0.0999999 0.1 6
v -0.0999999 0.2 6
v 0.1 0.1 6
v 0.1 0.2 6
v 4 0 6
v 4 0.2 6
v 4 0.5 6
v 4.5 0 6
v 4.5 0.5 6
v -4.5 0 -6
v -4.5 0.5 -6
v -4 0 -6
v -4 0.2 -6
v -4 0.5 -6
v 4 0 -6
v 4 0.2 -6
v 4 0.5 -6
v 4.5 0 -6
v 4.5 0.5 -6
v -4.5 0 6
v -4 0 6
v 4 0 6
v 4.5 0 6
v -4.5 0 -6
v -4 0 -6
v 4 0 -6
v 4.5 0 -6
v -4 0.2 6
v -0.0999999 0.2 6
v 0.1 0.2 6
v 4 0.2 6
v -0.0999999 0.2 5
v 0.1 0.2 5
v -0.0999999 0.2 4
v 0.1 0.2 4
v -0.0999999 0.2 3
v 0.1 0.2 3
v -0.0999999 0.2 2
v 0.1 0.2 2
v -0.0999999 0.2 1
v 0.1 0.2 1
v -0.0999999 0.2 0
v 0.1 0.2 0
v -0.0999999 0.2 -1
v 0.1 0.2 -1
v -0.0999999 0.2 -2
v 0.1 0.2 -2
v -0.0999999 0.2 -3
v 0.1 0.2 -3
v -0.0999999 0.2 -4
v 0.1 0.2 -4
v -0.0999999 0.2 -5
v 0.1 0.2 -5
v -4 0.2 -6
v 4 0.2 -6
v -4.5 0.5 6
v -4 0.5 6
v 4 0.5 6
v 4.5 0.5 6
v -4.5 0.5 -6
v -4 0.5 -6
v 4 0.5 -6
v 4.5 0.5 -6

# faces
f 3/3/1 2/3/1 1/3/1
f 4/3/1 2/3/1 3/3/1
f 7/3/1 6/3/1 5/3/1
f 8/3/1 6/3/1 7/3/1
f 9/3/2 10/3/2 11/3/2
f 11/3/2 10/3/2 12/3/2
f 13/3/2 14/3/2 15/3/2
f 15/3/2 14/3/2 16/3/2
f 19/3/3 18/3/3 17/3/3
f 20/3/3 18/3/3 19/3/3
f 21/3/3 18/3/3 20/3/3
f 22/1/3 20/1/3 19/1/3
f 23/1/3 20/1/3 22/1/3
f 24/1/3 22/1/3 19/1/3
f 24/2/3 23/2/3 22/2/3
f 25/2/3 23/2/3 24/2/3
f 26/1/3 24/1/3 19/1/3
f 26/1/3 25/1/3 24/1/3
f 27/1/3 25/1/3 26/1/3
f 29/3/3 27/3/3 26/3/3
f 29/3/3 28/3/3 27/3/3
f 30/3/3 28/3/3 29/3/3
f 31/3/4 32/3/4 33/3/4
f 33/3/4 32/3/4 34/3/4
f 34/3/4 32/3/4 35/3/4
f 33/1/4 34/1/4 36/1/4
f 36/1/4 34/1/4 37/1/4
f 36/3/4 37/3/4 39/3/4
f 37/3/4 38/3/4 39/3/4
f 39/3/4 38/3/4 40/3/4
f 45/3/5 42/3/5 41/3/5
f 46/1/5 43/1/5 42/1/5
f 46/3/5 42/3/5 45/3/5
f 47/3/5 44/3/5 43/3/5
f 47/1/5 43/1/5 46/1/5
f 48/3/5 44/3/5 47/3/5
f 49/1/6 50/1/6 53/1/6
f 50/2/6 51/2/6 53/2/6
f 51/1/6 52/1/6 54/1/6
f 53/2/6 51/2/6 54/2/6
f 49/1/6 53/1/6 55/1/6
f 53/1/6 54/1/6 55/1/6
f 54/1/6 52/1/6 56/1/6
f 55/1/6 54/1/6 56/1/6
f 49/1/6 55/1/6 57/1/6
f 55/2/6 56/2/6 57/2/6
f 56/1/6 52/1/6 58/1/6
f 57/2/6 56/2/6 58/2/6
f 49/1/6 57/1/6 59/1/6
f 57/1/6 58/1/6 59/1/6
f 58/1/6 52/1/6 60/1/6
f 59/1/6 58/1/6 60/1/6
f 49/1/6 59/1/6 61/1/6
f 59/2/6 60/2/6 61/2/6
f 60/1/6 52/1/6 62/1/6
f 61/2/6 60/2/6 62/2/6
f 49/1/6 61/1/6 63/1/6
f 61/1/6 62/1/6 63/1/6
f 62/1/6 52/1/6 64/1/6
f 63/1/6 62/1/6 64/1/6
f 49/1/6 63/1/6 65/1/6
f 63/2/6 64/2/6 65/2/6
f 64/1/6 52/1/6 66/1/6
f 65/2/6 64/2/6 66/2/6
f 49/1/6 65/1/6 67/1/6
f 65/1/6 66/1/6 67/1/6
f 66/1/6 52/1/6 68/1/6
f 67/1/6 66/1/6 68/1/6
f 49/1/6 67/1/6 69/1/6
f 67/2/6 68/2/6 69/2/6
f 68/1/6 52/1/6 70/1/6
f 69/2/6 68/2/6 70/2/6
f 49/1/6 69/1/6 71/1/6
f 69/1/6 70/1/6 71/1/6
f 70/1/6 52/1/6 72/1/6
f 71/1/6 70/1/6 72/1/6
f 49/1/6 71/1/6 73/1/6
f 71/2/6 72/2/6 73/2/6
f 72/1/6 52/1/6 74/1/6
f 73/2/6 72/2/6 74/2/6
f 49/1/6 73/1/6 75/1/6
f 73/1/6 74/1/6 75/1/6
f 74/1/6 52/1/6 76/1/6
f 75/1/6 74/1/6 76/1/6
f 77/3/6 78/3/6 81/3/6
f 81/3/6 78/3/6 82/3/6
f 79/3/6 80/3/6 83/3/6
f 83/3/6 80/3/6 84/3/6
