# MagicaVoxel @ Ephtracy

# group
o 

# material
mtllib RoadCrossing.mtl
usemtl palette

# normals
vn -1 0 0
vn 1 0 0
vn 0 0 1
vn 0 0 -1
vn 0 -1 0
vn 0 1 0

# texcoords
vt 0.970703 0.5
vt 0.974609 0.5
vt 0.978516 0.5

# verts
v -4.5 0 6
v -4.5 0 -6
v -4.5 0.2 1.5
v -4.5 0.2 -1.5
v -4.5 0.5 6
v -4.5 0.5 1.5
v -4.5 0.5 -1.5
v -4.5 0.5 -6
v 4 0.2 6
v 4 0.2 1.5
v 4 0.2 -1.5
v 4 0.2 -6
v 4 0.5 6
v 4 0.5 1.5
v 4 0.5 -1.5
v 4 0.5 -6
v -4 0.2 6
v -4 0.2 1.5
v -4 0.2 -1.5
v -4 0.2 -6
v -4 0.5 6
v -4 0.5 1.5
v -4 0.5 -1.5
v -4 0.5 -6
v 4.5 0 6
v 4.5 0 -6
v 4.5 0.2 1.5
v 4.5 0.2 -1.5
v 4.5 0.5 6
v 4.5 0.5 1.5
v 4.5 0.5 -1.5
v 4.5 0.5 -6
v -4.5 0 6
v -4.5 0.5 6
v -4 0 6
v -4 0.2 6
v -4 0.5 6
v -0.0999999 0.1 6
v -0.0999999 0.2 6
v 0.1 0.1 6
v 0.1 0.2 6
v 4 0 6
v 4 0.2 6
v 4 0.5 6
v 4.5 0 6
v 4.5 0.5 6
v -4.5 0.2 -1.5
v -4.5 0.5 -1.5
v -4 0.2 -1.5
v -4 0.5 -1.5
v 4 0.2 -1.5
v 4 0.5 -1.5
v 4.5 0.2 -1.5
v 4.5 0.5 -1.5
v -4.5 0.2 1.5
v -4.5 0.5 1.5
v -4 0.2 1.5
v -4 0.5 1.5
v 4 0.2 1.5
v 4 0.5 1.5
v 4.5 0.2 1.5
v 4.5 0.5 1.5
v -4.5 0 -6
v -4.5 0.5 -6
v -4 0 -6
v -4 0.2 -6
v -4 0.5 -6
v 4 0 -6
v 4 0.2 -6
v 4 0.5 -6
v 4.5 0 -6
v 4.5 0.5 -6
v -4.5 0 6
v -4 0 6
v 4 0 6
v 4.5 0 6
v -4.5 0 -6
v -4 0 -6
v 4 0 -6
v 4.5 0 -6
v -4 0.2 6
v -0.0999999 0.2 6
v 0.1 0.2 6
v 4 0.2 6
v -0.0999999 0.2 5
v 0.1 0.2 5
v -0.0999999 0.2 4
v 0.1 0.2 4
v -0.0999999 0.2 3
v 0.1 0.2 3
v -4.5 0.2 1.5
v -4 0.2 1.5
v -3.8 0.2 1.5
v -3.2 0.2 1.5
v -2.8 0.2 1.5
v -2.2 0.2 1.5
v -1.8 0.2 1.5
v -1.2 0.2 1.5
v -0.8 0.2 1.5
v -0.2 0.2 1.5
v 0.2 0.2 1.5
v 0.8 0.2 1.5
v 1.2 0.2 1.5
v 1.8 0.2 1.5
v 2.2 0.2 1.5
v 2.8 0.2 1.5
v 3.2 0.2 1.5
v 3.8 0.2 1.5
v 4 0.2 1.5
v 4.5 0.2 1.5
v -4.5 0.2 -1.5
v -4 0.2 -1.5
v -3.8 0.2 -1.5
v -3.2 0.2 -1.5
v -2.8 0.2 -1.5
v -2.2 0.2 -1.5
v -1.8 0.2 -1.5
v -1.2 0.2 -1.5
v -0.8 0.2 -1.5
v -0.2 0.2 -1.5
v 0.2 0.2 -1.5
v 0.8 0.2 -1.5
v 1.2 0.2 -1.5
v 1.8 0.2 -1.5
v 2.2 0.2 -1.5
v 2.8 0.2 -1.5
v 3.2 0.2 -1.5
v 3.8 0.2 -1.5
v 4 0.2 -1.5
v 4.5 0.2 -1.5
v -0.0999999 0.2 -2
v 0.1 0.2 -2
v -0.0999999 0.2 -3
v 0.1 0.2 -3
v -0.0999999 0.2 -4
v 0.1 0.2 -4
v -0.0999999 0.2 -5
v 0.1 0.2 -5
v -4 0.2 -6
v 4 0.2 -6
v -4.5 0.5 6
v -4 0.5 6
v 4 0.5 6
v 4.5 0.5 6
v -4.5 0.5 1.5
v -4 0.5 1.5
v 4 0.5 1.5
v 4.5 0.5 1.5
v -4.5 0.5 -1.5
v -4 0.5 -1.5
v 4 0.5 -1.5
v 4.5 0.5 -1.5
v -4.5 0.5 -6
v -4 0.5 -6
v 4 0.5 -6
v 4.5 0.5 -6

# faces
f 3/3/1 2/3/1 1/3/1
f 4/3/1 2/3/1 3/3/1
f 5/3/1 3/3/1 1/3/1
f 6/3/1 3/3/1 5/3/1
f 7/3/1 2/3/1 4/3/1
f 8/3/1 2/3/1 7/3/1
f 13/3/1 10/3/1 9/3/1
f 14/3/1 10/3/1 13/3/1
f 15/3/1 12/3/1 11/3/1
f 16/3/1 12/3/1 15/3/1
f 17/3/2 18/3/2 21/3/2
f 21/3/2 18/3/2 22/3/2
f 19/3/2 20/3/2 23/3/2
f 23/3/2 20/3/2 24/3/2
f 25/3/2 26/3/2 27/3/2
f 27/3/2 26/3/2 28/3/2
f 25/3/2 27/3/2 29/3/2
f 29/3/2 27/3/2 30/3/2
f 28/3/2 26/3/2 31/3/2
f 31/3/2 26/3/2 32/3/2
f 35/3/3 34/3/3 33/3/3
f 36/3/3 34/3/3 35/3/3
f 37/3/3 34/3/3 36/3/3
f 38/1/3 36/1/3 35/1/3
f 39/1/3 36/1/3 38/1/3
f 40/1/3 38/1/3 35/1/3
f 40/2/3 39/2/3 38/2/3
f 41/2/3 39/2/3 40/2/3
f 42/1/3 40/1/3 35/1/3
f 42/1/3 41/1/3 40/1/3
f 43/1/3 41/1/3 42/1/3
f 45/3/3 43/3/3 42/3/3
f 45/3/3 44/3/3 43/3/3
f 46/3/3 44/3/3 45/3/3
f 49/3/3 48/3/3 47/3/3
f 50/3/3 48/3/3 49/3/3
f 53/3/3 52/3/3 51/3/3
f 54/3/3 52/3/3 53/3/3
f 55/3/4 56/3/4 57/3/4
f 57/3/4 56/3/4 58/3/4
f 59/3/4 60/3/4 61/3/4
f 61/3/4 60/3/4 62/3/4
f 63/3/4 64/3/4 65/3/4
f 65/3/4 64/3/4 66/3/4
f 66/3/4 64/3/4 67/3/4
f 65/1/4 66/1/4 68/1/4
f 68/1/4 66/1/4 69/1/4
f 68/3/4 69/3/4 71/3/4
f 69/3/4 70/3/4 71/3/4
f 71/3/4 70/3/4 72/3/4
f 77/3/5 74/3/5 73/3/5
f 78/1/5 75/1/5 74/1/5
f 78/3/5 74/3/5 77/3/5
f 79/3/5 76/3/5 75/3/5
f 79/1/5 75/1/5 78/1/5
f 80/3/5 76/3/5 79/3/5
f 81/1/6 82/1/6 85/1/6
f 82/2/6 83/2/6 85/2/6
f 83/1/6 84/1/6 86/1/6
f 85/2/6 83/2/6 86/2/6
f 81/1/6 85/1/6 87/1/6
f 85/1/6 86/1/6 87/1/6
f 86/1/6 84/1/6 88/1/6
f 87/1/6 86/1/6 88/1/6
f 81/1/6 87/1/6 89/1/6
f 87/2/6 88/2/6 89/2/6
f 88/1/6 84/1/6 90/1/6
f 89/2/6 88/2/6 90/2/6
f 81/1/6 89/1/6 92/1/6
f 89/1/6 90/1/6 92/1/6
f 92/1/6 90/1/6 93/1/6
f 93/1/6 90/1/6 94/1/6
f 94/1/6 90/1/6 95/1/6
f 95/1/6 90/1/6 96/1/6
f 96/1/6 90/1/6 97/1/6
f 97/1/6 90/1/6 98/1/6
f 98/1/6 90/1/6 99/1/6
f 99/1/6 90/1/6 100/1/6
f 90/1/6 84/1/6 101/1/6
f 100/1/6 90/1/6 101/1/6
f 101/1/6 84/1/6 102/1/6
f 102/1/6 84/1/6 103/1/6
f 103/1/6 84/1/6 104/1/6
f 104/1/6 84/1/6 105/1/6
f 105/1/6 84/1/6 106/1/6
f 106/1/6 84/1/6 107/1/6
f 107/1/6 84/1/6 108/1/6
f 108/1/6 84/1/6 109/1/6
f 91/3/6 92/3/6 111/3/6
f 92/1/6 93/1/6 112/1/6
f 111/3/6 92/3/6 112/3/6
f 93/2/6 94/2/6 113/2/6
f 112/1/6 93/1/6 113/1/6
f 94/1/6 95/1/6 114/1/6
f 113/2/6 94/2/6 114/2/6
f 95/2/6 96/2/6 115/2/6
f 114/1/6 95/1/6 115/1/6
f 96/1/6 97/1/6 116/1/6
f 115/2/6 96/2/6 116/2/6
f 97/2/6 98/2/6 117/2/6
f 116/1/6 97/1/6 117/1/6
f 98/1/6 99/1/6 118/1/6
f 117/2/6 98/2/6 118/2/6
f 99/2/6 100/2/6 119/2/6
f 118/1/6 99/1/6 119/1/6
f 100/1/6 101/1/6 120/1/6
f 119/2/6 100/2/6 120/2/6
f 101/2/6 102/2/6 121/2/6
f 120/1/6 101/1/6 121/1/6
f 102/1/6 103/1/6 122/1/6
f 121/2/6 102/2/6 122/2/6
f 103/2/6 104/2/6 123/2/6
f 122/1/6 103/1/6 123/1/6
f 104/1/6 105/1/6 124/1/6
f 123/2/6 104/2/6 124/2/6
f 105/2/6 106/2/6 125/2/6
f 124/1/6 105/1/6 125/1/6
f 106/1/6 107/1/6 126/1/6
f 125/2/6 106/2/6 126/2/6
f 107/2/6 108/2/6 127/2/6
f 126/1/6 107/1/6 127/1/6
f 108/1/6 109/1/6 128/1/6
f 127/2/6 108/2/6 128/2/6
f 109/3/6 110/3/6 129/3/6
f 128/1/6 109/1/6 129/1/6
f 129/3/6 110/3/6 130/3/6
f 117/1/6 118/1/6 131/1/6
f 127/1/6 128/1/6 131/1/6
f 128/1/6 129/1/6 131/1/6
f 126/1/6 127/1/6 131/1/6
f 125/1/6 126/1/6 131/1/6
f 124/1/6 125/1/6 131/1/6
f 123/1/6 124/1/6 131/1/6
f 122/1/6 123/1/6 131/1/6
f 121/1/6 122/1/6 131/1/6
f 120/1/6 121/1/6 131/1/6
f 119/1/6 120/1/6 131/1/6
f 118/1/6 119/1/6 131/1/6
f 116/1/6 117/1/6 131/1/6
f 115/1/6 116/1/6 131/1/6
f 114/1/6 115/1/6 131/1/6
f 113/1/6 114/1/6 131/1/6
f 112/1/6 113/1/6 131/1/6
f 131/1/6 129/1/6 132/1/6
f 112/1/6 131/1/6 133/1/6
f 131/2/6 132/2/6 133/2/6
f 132/1/6 129/1/6 134/1/6
f 133/2/6 132/2/6 134/2/6
f 112/1/6 133/1/6 135/1/6
f 133/1/6 134/1/6 135/1/6
f 134/1/6 129/1/6 136/1/6
f 135/1/6 134/1/6 136/1/6
f 112/1/6 135/1/6 137/1/6
f 135/2/6 136/2/6 137/2/6
f 136/1/6 129/1/6 138/1/6
f 137/2/6 136/2/6 138/2/6
f 112/1/6 137/1/6 139/1/6
f 137/1/6 138/1/6 139/1/6
f 138/1/6 129/1/6 140/1/6
f 139/1/6 138/1/6 140/1/6
f 141/3/6 142/3/6 145/3/6
f 145/3/6 142/3/6 146/3/6
f 143/3/6 144/3/6 147/3/6
f 147/3/6 144/3/6 148/3/6
f 149/3/6 150/3/6 153/3/6
f 153/3/6 150/3/6 154/3/6
f 151/3/6 152/3/6 155/3/6
f 155/3/6 152/3/6 156/3/6
